{"glyphs":{"0":{"ha":833,"x_min":72,"x_max":760,"o":"m 424 735 q 598 690 522 735 q 717 563 674 644 q 760 369 760 481 q 715 170 760 258 q 592 31 671 82 q 408 -19 514 -19 q 236 26 313 -19 q 116 153 160 71 q 72 347 72 236 q 116 544 72 457 q 239 683 160 632 q 424 735 318 735 m 411 710 q 265 615 322 710 q 207 351 207 521 q 236 151 207 226 q 315 40 265 75 q 421 6 364 6 q 568 101 511 6 q 625 365 625 196 q 596 566 625 490 q 518 676 567 642 q 411 710 469 710 z "},"1":{"ha":514,"x_min":65,"x_max":485,"o":"m 351 731 l 351 143 q 382 53 351 76 q 485 29 413 29 l 485 0 q 403 3 457 1 q 293 6 350 6 q 170 3 229 6 q 79 0 111 1 l 79 29 q 188 52 149 29 q 226 143 226 75 l 226 479 q 213 578 226 546 q 163 619 199 610 q 65 629 128 629 l 65 660 q 232 678 165 663 q 351 731 299 693 z "},"2":{"ha":665,"x_min":65,"x_max":603,"o":"m 339 735 q 491 690 435 735 q 547 560 547 644 q 508 430 547 490 q 411 315 469 369 q 294 210 353 261 q 199 107 236 158 l 481 107 q 553 123 538 107 q 574 178 568 139 l 597 178 q 599 65 597 104 q 603 -7 600 25 q 522 -1 585 -3 q 396 0 458 0 l 71 0 l 71 24 q 171 122 113 69 q 284 235 229 174 q 376 370 339 297 q 413 529 413 443 q 376 644 413 608 q 274 679 339 679 q 171 647 218 679 q 88 549 124 614 l 65 561 q 162 681 97 626 q 339 735 226 735 z "},"3":{"ha":626,"x_min":51,"x_max":565,"o":"m 315 735 q 458 692 401 735 q 515 576 515 650 q 485 477 515 522 q 408 399 456 432 q 308 347 361 367 q 432 323 374 346 q 528 254 490 300 q 565 136 565 208 q 519 -7 565 57 q 398 -116 474 -71 q 231 -185 322 -161 q 51 -210 140 -210 l 51 -185 q 190 -162 122 -183 q 313 -100 258 -140 q 401 0 368 -60 q 433 136 433 60 q 394 272 433 218 q 286 331 354 325 q 249 316 265 322 q 221 310 233 310 q 199 328 199 310 q 210 347 199 340 q 235 354 221 354 q 258 352 246 354 q 283 349 269 350 q 365 444 340 392 q 390 549 390 496 q 358 644 390 614 q 269 674 325 674 q 165 643 213 674 q 85 550 117 613 l 61 561 q 115 647 82 607 q 198 710 149 686 q 315 735 247 735 z "},"4":{"ha":686,"x_min":24,"x_max":636,"o":"m 475 735 l 481 699 l 90 146 l 89 168 l 514 168 q 586 184 571 168 q 607 239 601 200 l 631 239 q 632 135 631 171 q 636 68 633 99 q 590 72 624 71 q 514 74 557 74 q 429 75 471 75 l 24 75 l 24 104 l 475 735 m 497 735 l 497 -196 l 386 -196 l 386 588 l 475 735 l 497 735 z "},"5":{"ha":576,"x_min":63,"x_max":521,"o":"m 464 785 q 465 661 464 706 q 469 582 467 617 q 393 588 451 586 q 276 589 335 589 l 129 589 l 113 321 q 181 349 143 336 q 275 363 218 363 q 461 301 401 363 q 521 149 521 240 q 481 3 521 68 q 373 -109 440 -62 q 225 -181 306 -156 q 63 -206 144 -206 l 63 -181 q 219 -144 144 -179 q 341 -40 293 -110 q 389 135 389 31 q 344 272 389 222 q 214 321 299 321 q 153 315 178 321 q 100 297 129 308 l 86 306 l 113 719 q 148 715 128 717 q 188 714 168 714 l 344 714 q 417 730 401 714 q 438 785 432 746 l 464 785 z "},"6":{"ha":718,"x_min":76,"x_max":665,"o":"m 547 1004 l 553 976 q 435 924 496 958 q 324 825 375 890 q 242 652 274 760 q 211 378 211 544 q 236 151 211 232 q 299 40 261 71 q 374 8 336 8 q 483 74 435 8 q 531 296 531 140 q 486 507 531 446 q 381 568 442 568 q 314 554 350 568 q 247 508 278 540 q 203 415 217 475 l 189 407 q 238 528 199 485 q 326 590 276 572 q 415 608 375 608 q 538 573 481 608 q 630 470 594 538 q 665 306 665 403 q 624 128 665 201 q 513 18 582 56 q 360 -19 443 -19 q 152 84 228 -19 q 76 375 76 188 q 107 599 76 501 q 188 767 138 696 q 301 888 239 839 q 427 965 363 936 q 547 1004 492 993 z "},"7":{"ha":564,"x_min":38,"x_max":553,"o":"m 38 721 q 119 715 57 717 q 244 714 182 714 l 553 714 l 553 685 q 483 539 524 614 q 402 378 442 464 q 337 194 363 293 q 313 -25 311 94 q 314 -67 313 -47 q 317 -103 315 -86 q 318 -135 318 -119 q 300 -185 318 -165 q 253 -206 282 -206 q 206 -182 221 -206 q 190 -128 190 -158 q 215 54 190 -33 q 278 224 239 142 q 363 385 317 307 q 455 538 410 464 q 536 685 500 613 l 497 597 l 160 597 q 88 582 103 597 q 67 526 72 567 l 43 526 q 42 644 43 600 q 38 721 40 689 z "},"8":{"ha":722,"x_min":72,"x_max":651,"o":"m 372 1003 q 534 955 467 1003 q 601 813 601 907 q 546 663 601 728 q 403 542 490 597 l 392 561 q 467 666 444 606 q 490 794 490 726 q 456 927 490 876 q 357 978 422 978 q 264 938 301 978 q 226 829 226 899 q 257 715 226 764 q 336 625 288 665 q 439 547 385 585 q 542 466 493 508 q 621 370 590 424 q 651 246 651 317 q 613 107 651 167 q 506 14 574 47 q 351 -19 439 -19 q 214 6 278 -19 q 111 84 150 32 q 72 214 72 136 q 143 397 72 321 q 314 519 214 474 l 325 500 q 224 383 253 451 q 194 235 194 314 q 210 123 194 175 q 263 38 226 71 q 360 6 300 6 q 481 52 429 6 q 533 188 533 99 q 503 307 533 256 q 426 402 474 358 q 326 486 379 446 q 225 569 272 526 q 148 665 178 613 q 118 786 118 718 q 152 900 118 851 q 244 976 186 949 q 372 1003 301 1003 z "},"9":{"ha":707,"x_min":51,"x_max":640,"o":"m 357 735 q 565 639 489 735 q 640 368 640 543 q 610 165 640 254 q 528 10 579 76 q 416 -100 478 -56 q 290 -170 354 -144 q 169 -206 226 -196 l 164 -178 q 281 -131 221 -161 q 392 -42 342 -100 q 474 115 443 17 q 506 365 506 214 q 481 575 506 501 q 419 678 456 649 q 343 707 382 707 q 234 641 282 707 q 186 419 186 575 q 231 208 186 269 q 336 147 275 147 q 403 161 367 147 q 470 208 439 175 q 514 300 501 242 l 528 308 q 479 187 518 231 q 392 125 440 143 q 301 107 343 107 q 180 142 238 107 q 87 245 122 178 q 51 410 51 313 q 93 587 51 514 q 204 697 135 660 q 357 735 274 735 z "},"A":{"ha":875,"x_min":-10,"x_max":883,"o":"m 449 990 l 788 117 q 835 47 808 64 q 883 28 861 29 l 883 0 q 815 3 856 3 q 735 4 775 4 q 633 3 681 4 q 557 0 586 3 l 557 28 q 647 52 628 31 q 639 144 667 74 l 381 835 l 403 853 l 161 225 q 133 108 132 150 q 165 47 135 65 q 254 28 196 29 l 254 0 q 173 3 215 3 q 94 4 131 4 q 35 3 60 4 q -10 0 11 3 l -10 28 q 47 60 18 35 q 100 149 76 86 l 426 990 q 438 990 432 990 q 449 990 443 990 m 618 400 l 618 372 l 204 372 l 218 400 l 618 400 z "},"Á":{"ha":875,"x_min":-10,"x_max":883,"o":"m 449 990 l 788 117 q 835 47 808 64 q 883 28 861 29 l 883 0 q 815 3 856 3 q 735 4 775 4 q 633 3 681 4 q 557 0 586 3 l 557 28 q 647 52 628 31 q 639 144 667 74 l 381 835 l 403 853 l 161 225 q 133 108 132 150 q 165 47 135 65 q 254 28 196 29 l 254 0 q 173 3 215 3 q 94 4 131 4 q 35 3 60 4 q -10 0 11 3 l -10 28 q 47 60 18 35 q 100 149 76 86 l 426 990 q 438 990 432 990 q 449 990 443 990 m 618 400 l 618 372 l 204 372 l 218 400 l 618 400 m 585 1286 q 635 1299 613 1304 q 669 1276 658 1294 q 675 1237 681 1258 q 640 1196 669 1215 q 573 1163 611 1178 q 484 1128 535 1149 q 361 1072 433 1108 l 351 1090 q 456 1176 415 1139 q 526 1240 497 1213 q 585 1286 556 1268 z "},"Ă":{"ha":875,"x_min":-10,"x_max":883,"o":"m 449 990 l 788 117 q 835 47 808 64 q 883 28 861 29 l 883 0 q 815 3 856 3 q 735 4 775 4 q 633 3 681 4 q 557 0 586 3 l 557 28 q 647 52 628 31 q 639 144 667 74 l 381 835 l 403 853 l 161 225 q 133 108 132 150 q 165 47 135 65 q 254 28 196 29 l 254 0 q 173 3 215 3 q 94 4 131 4 q 35 3 60 4 q -10 0 11 3 l -10 28 q 47 60 18 35 q 100 149 76 86 l 426 990 q 438 990 432 990 q 449 990 443 990 m 618 400 l 618 372 l 204 372 l 218 400 l 618 400 m 696 1263 l 713 1247 q 653 1174 690 1211 q 561 1111 615 1136 q 436 1086 507 1086 q 311 1111 365 1086 q 219 1174 257 1136 q 160 1247 182 1211 l 178 1261 q 273 1201 210 1231 q 436 1172 336 1172 q 600 1202 536 1172 q 696 1263 664 1232 z "},"Ắ":{"ha":875,"x_min":-10,"x_max":883,"o":"m 449 990 l 788 117 q 835 47 808 64 q 883 28 861 29 l 883 0 q 815 3 856 3 q 735 4 775 4 q 633 3 681 4 q 557 0 586 3 l 557 28 q 647 52 628 31 q 639 144 667 74 l 381 835 l 403 853 l 161 225 q 133 108 132 150 q 165 47 135 65 q 254 28 196 29 l 254 0 q 173 3 215 3 q 94 4 131 4 q 35 3 60 4 q -10 0 11 3 l -10 28 q 47 60 18 35 q 100 149 76 86 l 426 990 q 438 990 432 990 q 449 990 443 990 m 618 400 l 618 372 l 204 372 l 218 400 l 618 400 m 696 1263 l 713 1247 q 653 1174 690 1211 q 561 1111 615 1136 q 436 1086 507 1086 q 311 1111 365 1086 q 219 1174 257 1136 q 160 1247 182 1211 l 178 1261 q 273 1201 210 1231 q 436 1172 336 1172 q 600 1202 536 1172 q 696 1263 664 1232 m 585 1494 q 635 1508 613 1513 q 669 1485 658 1503 q 675 1445 681 1467 q 640 1404 669 1424 q 573 1372 611 1386 q 484 1337 535 1357 q 361 1281 433 1317 l 351 1299 q 456 1384 415 1347 q 526 1449 497 1421 q 585 1494 556 1476 z "},"Ặ":{"ha":875,"x_min":-10,"x_max":883,"o":"m 449 990 l 788 117 q 835 47 808 64 q 883 28 861 29 l 883 0 q 815 3 856 3 q 735 4 775 4 q 633 3 681 4 q 557 0 586 3 l 557 28 q 647 52 628 31 q 639 144 667 74 l 381 835 l 403 853 l 161 225 q 133 108 132 150 q 165 47 135 65 q 254 28 196 29 l 254 0 q 173 3 215 3 q 94 4 131 4 q 35 3 60 4 q -10 0 11 3 l -10 28 q 47 60 18 35 q 100 149 76 86 l 426 990 q 438 990 432 990 q 449 990 443 990 m 618 400 l 618 372 l 204 372 l 218 400 l 618 400 m 696 1263 l 713 1247 q 653 1174 690 1211 q 561 1111 615 1136 q 436 1086 507 1086 q 311 1111 365 1086 q 219 1174 257 1136 q 160 1247 182 1211 l 178 1261 q 273 1201 210 1231 q 436 1172 336 1172 q 600 1202 536 1172 q 696 1263 664 1232 m 438 -251 q 381 -230 404 -251 q 357 -174 357 -208 q 378 -119 357 -142 q 438 -96 400 -96 q 497 -119 475 -96 q 518 -175 518 -143 q 494 -231 518 -210 q 438 -251 469 -251 z "},"Ằ":{"ha":875,"x_min":-10,"x_max":883,"o":"m 449 990 l 788 117 q 835 47 808 64 q 883 28 861 29 l 883 0 q 815 3 856 3 q 735 4 775 4 q 633 3 681 4 q 557 0 586 3 l 557 28 q 647 52 628 31 q 639 144 667 74 l 381 835 l 403 853 l 161 225 q 133 108 132 150 q 165 47 135 65 q 254 28 196 29 l 254 0 q 173 3 215 3 q 94 4 131 4 q 35 3 60 4 q -10 0 11 3 l -10 28 q 47 60 18 35 q 100 149 76 86 l 426 990 q 438 990 432 990 q 449 990 443 990 m 618 400 l 618 372 l 204 372 l 218 400 l 618 400 m 696 1263 l 713 1247 q 653 1174 690 1211 q 561 1111 615 1136 q 436 1086 507 1086 q 311 1111 365 1086 q 219 1174 257 1136 q 160 1247 182 1211 l 178 1261 q 273 1201 210 1231 q 436 1172 336 1172 q 600 1202 536 1172 q 696 1263 664 1232 m 296 1494 q 354 1449 325 1476 q 424 1384 383 1421 q 529 1299 465 1347 l 519 1281 q 397 1337 449 1317 q 308 1372 344 1357 q 240 1404 271 1386 q 206 1445 211 1424 q 211 1485 200 1467 q 245 1508 222 1503 q 296 1494 268 1513 z "},"Ẳ":{"ha":875,"x_min":-10,"x_max":883,"o":"m 449 990 l 788 117 q 835 47 808 64 q 883 28 861 29 l 883 0 q 815 3 856 3 q 735 4 775 4 q 633 3 681 4 q 557 0 586 3 l 557 28 q 647 52 628 31 q 639 144 667 74 l 381 835 l 403 853 l 161 225 q 133 108 132 150 q 165 47 135 65 q 254 28 196 29 l 254 0 q 173 3 215 3 q 94 4 131 4 q 35 3 60 4 q -10 0 11 3 l -10 28 q 47 60 18 35 q 100 149 76 86 l 426 990 q 438 990 432 990 q 449 990 443 990 m 618 400 l 618 372 l 204 372 l 218 400 l 618 400 m 696 1263 l 713 1247 q 653 1174 690 1211 q 561 1111 615 1136 q 436 1086 507 1086 q 311 1111 365 1086 q 219 1174 257 1136 q 160 1247 182 1211 l 178 1261 q 273 1201 210 1231 q 436 1172 336 1172 q 600 1202 536 1172 q 696 1263 664 1232 m 422 1272 l 422 1349 q 492 1394 471 1368 q 514 1453 514 1421 q 485 1513 514 1493 q 417 1533 457 1533 q 381 1529 400 1533 q 350 1511 361 1525 q 394 1454 394 1501 q 376 1409 394 1425 q 332 1393 358 1393 q 289 1409 306 1393 q 272 1451 272 1425 q 288 1499 272 1478 q 326 1533 304 1519 q 373 1553 346 1544 q 443 1561 400 1561 q 519 1551 481 1561 q 583 1520 557 1542 q 610 1461 610 1499 q 567 1384 610 1417 q 450 1336 524 1351 l 450 1272 l 422 1272 z "},"Ẵ":{"ha":875,"x_min":-10,"x_max":883,"o":"m 449 990 l 788 117 q 835 47 808 64 q 883 28 861 29 l 883 0 q 815 3 856 3 q 735 4 775 4 q 633 3 681 4 q 557 0 586 3 l 557 28 q 647 52 628 31 q 639 144 667 74 l 381 835 l 403 853 l 161 225 q 133 108 132 150 q 165 47 135 65 q 254 28 196 29 l 254 0 q 173 3 215 3 q 94 4 131 4 q 35 3 60 4 q -10 0 11 3 l -10 28 q 47 60 18 35 q 100 149 76 86 l 426 990 q 438 990 432 990 q 449 990 443 990 m 618 400 l 618 372 l 204 372 l 218 400 l 618 400 m 696 1263 l 713 1247 q 653 1174 690 1211 q 561 1111 615 1136 q 436 1086 507 1086 q 311 1111 365 1086 q 219 1174 257 1136 q 160 1247 182 1211 l 178 1261 q 273 1201 210 1231 q 436 1172 336 1172 q 600 1202 536 1172 q 696 1263 664 1232 m 324 1461 q 396 1445 363 1461 q 461 1408 429 1429 q 525 1370 493 1386 q 593 1354 557 1354 q 644 1371 621 1354 q 679 1432 667 1388 l 700 1428 q 649 1320 694 1360 q 546 1281 604 1281 q 474 1297 507 1281 q 408 1334 440 1313 q 344 1372 376 1356 q 276 1388 313 1388 q 225 1371 247 1388 q 190 1310 203 1354 l 169 1314 q 221 1422 176 1383 q 324 1461 265 1461 z "},"Ǎ":{"ha":875,"x_min":-10,"x_max":883,"o":"m 449 990 l 788 117 q 835 47 808 64 q 883 28 861 29 l 883 0 q 815 3 856 3 q 735 4 775 4 q 633 3 681 4 q 557 0 586 3 l 557 28 q 647 52 628 31 q 639 144 667 74 l 381 835 l 403 853 l 161 225 q 133 108 132 150 q 165 47 135 65 q 254 28 196 29 l 254 0 q 173 3 215 3 q 94 4 131 4 q 35 3 60 4 q -10 0 11 3 l -10 28 q 47 60 18 35 q 100 149 76 86 l 426 990 q 438 990 432 990 q 449 990 443 990 m 618 400 l 618 372 l 204 372 l 218 400 l 618 400 m 697 1286 l 704 1267 q 545 1186 614 1236 q 444 1083 476 1136 l 419 1083 q 319 1186 388 1136 q 160 1267 250 1236 l 167 1286 q 331 1242 250 1268 q 460 1189 413 1215 q 565 1242 500 1215 q 697 1286 631 1268 z "},"Â":{"ha":875,"x_min":-10,"x_max":883,"o":"m 449 990 l 788 117 q 835 47 808 64 q 883 28 861 29 l 883 0 q 815 3 856 3 q 735 4 775 4 q 633 3 681 4 q 557 0 586 3 l 557 28 q 647 52 628 31 q 639 144 667 74 l 381 835 l 403 853 l 161 225 q 133 108 132 150 q 165 47 135 65 q 254 28 196 29 l 254 0 q 173 3 215 3 q 94 4 131 4 q 35 3 60 4 q -10 0 11 3 l -10 28 q 47 60 18 35 q 100 149 76 86 l 426 990 q 438 990 432 990 q 449 990 443 990 m 618 400 l 618 372 l 204 372 l 218 400 l 618 400 m 449 1272 q 549 1170 481 1219 q 708 1089 618 1121 l 701 1069 q 538 1114 618 1088 q 408 1167 457 1140 q 303 1114 369 1140 q 171 1069 238 1088 l 164 1089 q 323 1170 254 1121 q 424 1272 392 1219 l 449 1272 z "},"Ấ":{"ha":875,"x_min":-10,"x_max":883,"o":"m 449 990 l 788 117 q 835 47 808 64 q 883 28 861 29 l 883 0 q 815 3 856 3 q 735 4 775 4 q 633 3 681 4 q 557 0 586 3 l 557 28 q 647 52 628 31 q 639 144 667 74 l 381 835 l 403 853 l 161 225 q 133 108 132 150 q 165 47 135 65 q 254 28 196 29 l 254 0 q 173 3 215 3 q 94 4 131 4 q 35 3 60 4 q -10 0 11 3 l -10 28 q 47 60 18 35 q 100 149 76 86 l 426 990 q 438 990 432 990 q 449 990 443 990 m 618 400 l 618 372 l 204 372 l 218 400 l 618 400 m 449 1272 q 549 1170 481 1219 q 708 1089 618 1121 l 701 1069 q 538 1114 618 1088 q 408 1167 457 1140 q 303 1114 369 1140 q 171 1069 238 1088 l 164 1089 q 323 1170 254 1121 q 424 1272 392 1219 l 449 1272 m 585 1592 q 635 1605 613 1610 q 669 1582 658 1600 q 675 1542 681 1564 q 640 1501 669 1521 q 573 1469 611 1483 q 484 1434 535 1454 q 361 1378 433 1414 l 351 1396 q 456 1481 415 1444 q 526 1546 497 1518 q 585 1592 556 1574 z "},"Ậ":{"ha":875,"x_min":-10,"x_max":883,"o":"m 449 990 l 788 117 q 835 47 808 64 q 883 28 861 29 l 883 0 q 815 3 856 3 q 735 4 775 4 q 633 3 681 4 q 557 0 586 3 l 557 28 q 647 52 628 31 q 639 144 667 74 l 381 835 l 403 853 l 161 225 q 133 108 132 150 q 165 47 135 65 q 254 28 196 29 l 254 0 q 173 3 215 3 q 94 4 131 4 q 35 3 60 4 q -10 0 11 3 l -10 28 q 47 60 18 35 q 100 149 76 86 l 426 990 q 438 990 432 990 q 449 990 443 990 m 618 400 l 618 372 l 204 372 l 218 400 l 618 400 m 449 1272 q 549 1170 481 1219 q 708 1089 618 1121 l 701 1069 q 538 1114 618 1088 q 408 1167 457 1140 q 303 1114 369 1140 q 171 1069 238 1088 l 164 1089 q 323 1170 254 1121 q 424 1272 392 1219 l 449 1272 m 438 -251 q 381 -230 404 -251 q 357 -174 357 -208 q 378 -119 357 -142 q 438 -96 400 -96 q 497 -119 475 -96 q 518 -175 518 -143 q 494 -231 518 -210 q 438 -251 469 -251 z "},"Ầ":{"ha":875,"x_min":-10,"x_max":883,"o":"m 449 990 l 788 117 q 835 47 808 64 q 883 28 861 29 l 883 0 q 815 3 856 3 q 735 4 775 4 q 633 3 681 4 q 557 0 586 3 l 557 28 q 647 52 628 31 q 639 144 667 74 l 381 835 l 403 853 l 161 225 q 133 108 132 150 q 165 47 135 65 q 254 28 196 29 l 254 0 q 173 3 215 3 q 94 4 131 4 q 35 3 60 4 q -10 0 11 3 l -10 28 q 47 60 18 35 q 100 149 76 86 l 426 990 q 438 990 432 990 q 449 990 443 990 m 618 400 l 618 372 l 204 372 l 218 400 l 618 400 m 449 1272 q 549 1170 481 1219 q 708 1089 618 1121 l 701 1069 q 538 1114 618 1088 q 408 1167 457 1140 q 303 1114 369 1140 q 171 1069 238 1088 l 164 1089 q 323 1170 254 1121 q 424 1272 392 1219 l 449 1272 m 296 1592 q 354 1546 325 1574 q 424 1481 383 1518 q 529 1396 465 1444 l 519 1378 q 397 1434 449 1414 q 308 1469 344 1454 q 240 1501 271 1483 q 206 1542 211 1521 q 211 1582 200 1564 q 245 1605 222 1600 q 296 1592 268 1610 z "},"Ẩ":{"ha":875,"x_min":-10,"x_max":883,"o":"m 449 990 l 788 117 q 835 47 808 64 q 883 28 861 29 l 883 0 q 815 3 856 3 q 735 4 775 4 q 633 3 681 4 q 557 0 586 3 l 557 28 q 647 52 628 31 q 639 144 667 74 l 381 835 l 403 853 l 161 225 q 133 108 132 150 q 165 47 135 65 q 254 28 196 29 l 254 0 q 173 3 215 3 q 94 4 131 4 q 35 3 60 4 q -10 0 11 3 l -10 28 q 47 60 18 35 q 100 149 76 86 l 426 990 q 438 990 432 990 q 449 990 443 990 m 618 400 l 618 372 l 204 372 l 218 400 l 618 400 m 449 1272 q 549 1170 481 1219 q 708 1089 618 1121 l 701 1069 q 538 1114 618 1088 q 408 1167 457 1140 q 303 1114 369 1140 q 171 1069 238 1088 l 164 1089 q 323 1170 254 1121 q 424 1272 392 1219 l 449 1272 m 642 1269 l 642 1346 q 712 1392 690 1365 q 733 1450 733 1418 q 705 1510 733 1490 q 636 1531 676 1531 q 600 1526 619 1531 q 569 1508 581 1522 q 614 1451 614 1499 q 596 1406 614 1422 q 551 1390 578 1390 q 508 1406 525 1390 q 492 1449 492 1422 q 508 1496 492 1475 q 546 1531 524 1517 q 592 1550 565 1542 q 663 1558 619 1558 q 738 1549 700 1558 q 803 1517 776 1539 q 829 1458 829 1496 q 786 1381 829 1414 q 669 1333 743 1349 l 669 1269 l 642 1269 z "},"Ẫ":{"ha":875,"x_min":-10,"x_max":883,"o":"m 449 990 l 788 117 q 835 47 808 64 q 883 28 861 29 l 883 0 q 815 3 856 3 q 735 4 775 4 q 633 3 681 4 q 557 0 586 3 l 557 28 q 647 52 628 31 q 639 144 667 74 l 381 835 l 403 853 l 161 225 q 133 108 132 150 q 165 47 135 65 q 254 28 196 29 l 254 0 q 173 3 215 3 q 94 4 131 4 q 35 3 60 4 q -10 0 11 3 l -10 28 q 47 60 18 35 q 100 149 76 86 l 426 990 q 438 990 432 990 q 449 990 443 990 m 618 400 l 618 372 l 204 372 l 218 400 l 618 400 m 449 1272 q 549 1170 481 1219 q 708 1089 618 1121 l 701 1069 q 538 1114 618 1088 q 408 1167 457 1140 q 303 1114 369 1140 q 171 1069 238 1088 l 164 1089 q 323 1170 254 1121 q 424 1272 392 1219 l 449 1272 m 324 1558 q 396 1542 363 1558 q 461 1505 429 1526 q 525 1467 493 1483 q 593 1451 557 1451 q 644 1468 621 1451 q 679 1529 667 1485 l 700 1525 q 649 1417 694 1457 q 546 1378 604 1378 q 474 1394 507 1378 q 408 1431 440 1410 q 344 1469 376 1453 q 276 1485 313 1485 q 225 1468 247 1485 q 190 1407 203 1451 l 169 1411 q 221 1519 176 1481 q 324 1558 265 1558 z "},"Ä":{"ha":875,"x_min":-10,"x_max":883,"o":"m 449 990 l 788 117 q 835 47 808 64 q 883 28 861 29 l 883 0 q 815 3 856 3 q 735 4 775 4 q 633 3 681 4 q 557 0 586 3 l 557 28 q 647 52 628 31 q 639 144 667 74 l 381 835 l 403 853 l 161 225 q 133 108 132 150 q 165 47 135 65 q 254 28 196 29 l 254 0 q 173 3 215 3 q 94 4 131 4 q 35 3 60 4 q -10 0 11 3 l -10 28 q 47 60 18 35 q 100 149 76 86 l 426 990 q 438 990 432 990 q 449 990 443 990 m 618 400 l 618 372 l 204 372 l 218 400 l 618 400 m 583 1233 q 640 1209 615 1233 q 664 1153 664 1185 q 640 1096 664 1119 q 583 1072 615 1072 q 526 1096 550 1072 q 503 1153 503 1119 q 526 1209 503 1185 q 583 1233 550 1233 m 289 1233 q 345 1209 321 1233 q 369 1153 369 1185 q 345 1096 369 1119 q 289 1072 321 1072 q 232 1096 256 1072 q 208 1153 208 1119 q 232 1209 208 1185 q 289 1233 256 1233 z "},"Ạ":{"ha":875,"x_min":-10,"x_max":883,"o":"m 449 990 l 788 117 q 835 47 808 64 q 883 28 861 29 l 883 0 q 815 3 856 3 q 735 4 775 4 q 633 3 681 4 q 557 0 586 3 l 557 28 q 647 52 628 31 q 639 144 667 74 l 381 835 l 403 853 l 161 225 q 133 108 132 150 q 165 47 135 65 q 254 28 196 29 l 254 0 q 173 3 215 3 q 94 4 131 4 q 35 3 60 4 q -10 0 11 3 l -10 28 q 47 60 18 35 q 100 149 76 86 l 426 990 q 438 990 432 990 q 449 990 443 990 m 618 400 l 618 372 l 204 372 l 218 400 l 618 400 m 438 -251 q 381 -230 404 -251 q 357 -174 357 -208 q 378 -119 357 -142 q 438 -96 400 -96 q 497 -119 475 -96 q 518 -175 518 -143 q 494 -231 518 -210 q 438 -251 469 -251 z "},"À":{"ha":875,"x_min":-10,"x_max":883,"o":"m 449 990 l 788 117 q 835 47 808 64 q 883 28 861 29 l 883 0 q 815 3 856 3 q 735 4 775 4 q 633 3 681 4 q 557 0 586 3 l 557 28 q 647 52 628 31 q 639 144 667 74 l 381 835 l 403 853 l 161 225 q 133 108 132 150 q 165 47 135 65 q 254 28 196 29 l 254 0 q 173 3 215 3 q 94 4 131 4 q 35 3 60 4 q -10 0 11 3 l -10 28 q 47 60 18 35 q 100 149 76 86 l 426 990 q 438 990 432 990 q 449 990 443 990 m 618 400 l 618 372 l 204 372 l 218 400 l 618 400 m 296 1286 q 354 1240 325 1268 q 424 1176 383 1213 q 529 1090 465 1139 l 519 1072 q 397 1128 449 1108 q 308 1163 344 1149 q 240 1196 271 1178 q 206 1237 211 1215 q 211 1276 200 1258 q 245 1299 222 1294 q 296 1286 268 1304 z "},"Ả":{"ha":875,"x_min":-10,"x_max":883,"o":"m 449 990 l 788 117 q 835 47 808 64 q 883 28 861 29 l 883 0 q 815 3 856 3 q 735 4 775 4 q 633 3 681 4 q 557 0 586 3 l 557 28 q 647 52 628 31 q 639 144 667 74 l 381 835 l 403 853 l 161 225 q 133 108 132 150 q 165 47 135 65 q 254 28 196 29 l 254 0 q 173 3 215 3 q 94 4 131 4 q 35 3 60 4 q -10 0 11 3 l -10 28 q 47 60 18 35 q 100 149 76 86 l 426 990 q 438 990 432 990 q 449 990 443 990 m 618 400 l 618 372 l 204 372 l 218 400 l 618 400 m 422 1064 l 422 1140 q 492 1186 471 1160 q 514 1244 514 1213 q 485 1305 514 1285 q 417 1325 457 1325 q 381 1321 400 1325 q 350 1303 361 1317 q 394 1246 394 1293 q 376 1201 394 1217 q 332 1185 358 1185 q 289 1201 306 1185 q 272 1243 272 1217 q 288 1290 272 1269 q 326 1325 304 1311 q 373 1344 346 1336 q 443 1353 400 1353 q 519 1343 481 1353 q 583 1312 557 1333 q 610 1253 610 1290 q 567 1176 610 1208 q 450 1128 524 1143 l 450 1064 l 422 1064 z "},"Ā":{"ha":875,"x_min":-10,"x_max":883,"o":"m 449 990 l 788 117 q 835 47 808 64 q 883 28 861 29 l 883 0 q 815 3 856 3 q 735 4 775 4 q 633 3 681 4 q 557 0 586 3 l 557 28 q 647 52 628 31 q 639 144 667 74 l 381 835 l 403 853 l 161 225 q 133 108 132 150 q 165 47 135 65 q 254 28 196 29 l 254 0 q 173 3 215 3 q 94 4 131 4 q 35 3 60 4 q -10 0 11 3 l -10 28 q 47 60 18 35 q 100 149 76 86 l 426 990 q 438 990 432 990 q 449 990 443 990 m 618 400 l 618 372 l 204 372 l 218 400 l 618 400 m 681 1172 l 681 1138 l 192 1138 l 192 1172 l 681 1172 z "},"Ą":{"ha":875,"x_min":-10,"x_max":889,"o":"m 449 990 l 788 117 q 835 47 808 64 q 883 28 861 29 l 883 0 q 815 3 856 3 q 735 4 775 4 q 633 3 681 4 q 557 0 586 3 l 557 28 q 647 52 628 31 q 639 144 667 74 l 381 835 l 403 853 l 161 225 q 133 108 132 150 q 165 47 135 65 q 254 28 196 29 l 254 0 q 173 3 215 3 q 94 4 131 4 q 35 3 60 4 q -10 0 11 3 l -10 28 q 47 60 18 35 q 100 149 76 86 l 426 990 q 438 990 432 990 q 449 990 443 990 m 618 400 l 618 372 l 204 372 l 218 400 l 618 400 m 867 4 q 754 -58 785 -18 q 724 -133 724 -97 q 740 -177 724 -160 q 783 -194 756 -194 q 832 -181 810 -194 q 868 -149 854 -167 l 889 -167 q 817 -238 857 -215 q 732 -261 778 -261 q 652 -236 682 -261 q 622 -171 622 -211 q 672 -72 622 -117 q 814 4 722 -26 l 867 4 z "},"Å":{"ha":875,"x_min":-10,"x_max":883,"o":"m 449 990 l 788 117 q 835 47 808 64 q 883 28 861 29 l 883 0 q 815 3 856 3 q 735 4 775 4 q 633 3 681 4 q 557 0 586 3 l 557 28 q 647 52 628 31 q 639 144 667 74 l 381 835 l 403 853 l 161 225 q 133 108 132 150 q 165 47 135 65 q 254 28 196 29 l 254 0 q 173 3 215 3 q 94 4 131 4 q 35 3 60 4 q -10 0 11 3 l -10 28 q 47 60 18 35 q 100 149 76 86 l 426 990 q 438 990 432 990 q 449 990 443 990 m 618 400 l 618 372 l 204 372 l 218 400 l 618 400 m 436 1285 q 531 1251 490 1285 q 571 1158 571 1217 q 531 1065 571 1099 q 436 1031 490 1031 q 343 1065 383 1031 q 303 1158 303 1099 q 343 1251 303 1217 q 436 1285 383 1285 m 436 1256 q 372 1231 403 1256 q 342 1157 342 1206 q 372 1084 342 1108 q 436 1060 403 1060 q 501 1084 471 1060 q 532 1157 532 1108 q 501 1231 532 1206 q 436 1256 471 1256 z "},"Ã":{"ha":875,"x_min":-10,"x_max":883,"o":"m 449 990 l 788 117 q 835 47 808 64 q 883 28 861 29 l 883 0 q 815 3 856 3 q 735 4 775 4 q 633 3 681 4 q 557 0 586 3 l 557 28 q 647 52 628 31 q 639 144 667 74 l 381 835 l 403 853 l 161 225 q 133 108 132 150 q 165 47 135 65 q 254 28 196 29 l 254 0 q 173 3 215 3 q 94 4 131 4 q 35 3 60 4 q -10 0 11 3 l -10 28 q 47 60 18 35 q 100 149 76 86 l 426 990 q 438 990 432 990 q 449 990 443 990 m 618 400 l 618 372 l 204 372 l 218 400 l 618 400 m 324 1253 q 396 1237 363 1253 q 461 1199 429 1221 q 525 1162 493 1178 q 593 1146 557 1146 q 644 1163 621 1146 q 679 1224 667 1179 l 700 1219 q 649 1112 694 1151 q 546 1072 604 1072 q 474 1088 507 1072 q 408 1126 440 1104 q 344 1163 376 1147 q 276 1179 313 1179 q 225 1163 247 1179 q 190 1101 203 1146 l 169 1106 q 221 1214 176 1175 q 324 1253 265 1253 z "},"Æ":{"ha":1186,"x_min":-14,"x_max":1119,"o":"m 694 1072 l 135 144 q 115 56 96 81 q 206 28 135 31 l 206 0 q 151 3 185 3 q 79 4 117 4 q 30 3 56 4 q -14 0 4 3 l -14 28 q 31 49 8 29 q 82 117 53 68 l 661 1072 l 694 1072 m 1092 983 q 1084 889 1086 935 q 1082 819 1082 843 q 1083 772 1082 794 q 1086 733 1085 749 l 1054 733 q 1035 863 1047 815 q 995 931 1024 911 q 910 951 967 951 l 822 951 q 751 944 775 951 q 718 912 726 936 q 710 836 710 888 l 710 147 q 718 72 710 97 q 751 40 726 47 q 822 32 775 32 l 924 32 q 1022 56 992 32 q 1064 133 1053 79 q 1082 278 1075 186 l 1114 278 q 1110 178 1110 240 q 1112 102 1110 151 q 1119 0 1114 53 q 974 3 1056 3 q 829 4 893 4 q 738 4 794 4 q 618 3 682 4 q 496 0 554 3 l 496 28 q 550 39 532 31 q 574 72 568 47 q 581 147 581 97 l 581 836 q 572 912 581 888 q 540 945 564 936 q 468 956 515 954 l 468 983 q 600 981 531 982 q 731 979 669 979 q 829 979 792 979 q 960 980 886 979 q 1092 983 1033 981 m 626 508 l 626 481 l 321 481 l 335 508 l 626 508 m 904 508 q 904 494 904 508 q 904 481 904 481 l 668 481 q 668 494 668 481 q 668 508 668 508 l 904 508 m 944 664 q 940 560 939 596 q 940 494 940 525 q 942 429 940 464 q 949 325 943 394 l 917 325 q 906 399 913 363 q 880 458 900 435 q 811 481 860 481 l 811 508 q 879 535 860 508 q 903 599 899 563 q 913 664 908 636 l 944 664 z "},"B":{"ha":865,"x_min":58,"x_max":803,"o":"m 58 983 q 135 981 88 982 q 228 979 182 979 q 353 981 293 979 q 438 982 413 982 q 657 921 583 982 q 731 764 731 860 q 710 669 731 715 q 644 584 690 622 q 519 522 597 546 l 519 519 q 691 467 629 506 q 778 378 753 429 q 803 269 803 326 q 715 76 803 151 q 469 0 626 0 q 378 2 439 0 q 231 4 317 4 q 135 3 182 4 q 58 0 88 3 l 58 28 q 130 39 106 31 q 163 72 154 47 q 171 147 171 97 l 171 836 q 163 912 171 888 q 130 945 154 936 q 58 956 106 954 l 58 983 m 403 956 q 319 932 339 956 q 300 836 300 908 l 300 147 q 320 53 300 75 q 404 32 340 32 q 602 95 540 32 q 664 275 664 158 q 606 440 664 382 q 417 499 549 499 l 274 499 q 274 510 274 499 q 274 522 274 522 l 393 522 q 519 553 475 522 q 581 637 564 585 q 597 749 597 689 q 552 903 597 851 q 403 956 507 956 z "},"C":{"ha":956,"x_min":74,"x_max":865,"o":"m 515 1003 q 666 976 607 1003 q 771 913 725 949 q 813 908 799 892 q 833 983 828 924 l 865 983 q 861 858 863 932 q 860 664 860 785 l 828 664 q 810 759 818 724 q 790 819 801 794 q 758 869 778 844 q 650 952 715 926 q 513 978 585 978 q 390 944 444 978 q 295 846 335 910 q 234 692 256 782 q 213 489 213 601 q 236 283 213 372 q 302 132 260 193 q 402 40 344 71 q 526 8 460 8 q 657 33 589 8 q 764 114 725 58 q 806 201 794 154 q 828 333 818 249 l 860 333 q 861 130 860 207 q 865 0 863 53 l 833 0 q 815 75 828 60 q 771 71 801 90 q 662 8 719 35 q 514 -19 604 -19 q 283 40 382 -19 q 128 213 183 100 q 74 483 74 325 q 131 756 74 639 q 287 938 188 872 q 515 1003 386 1003 z "},"Ć":{"ha":956,"x_min":74,"x_max":865,"o":"m 515 1003 q 666 976 607 1003 q 771 913 725 949 q 813 908 799 892 q 833 983 828 924 l 865 983 q 861 858 863 932 q 860 664 860 785 l 828 664 q 810 759 818 724 q 790 819 801 794 q 758 869 778 844 q 650 952 715 926 q 513 978 585 978 q 390 944 444 978 q 295 846 335 910 q 234 692 256 782 q 213 489 213 601 q 236 283 213 372 q 302 132 260 193 q 402 40 344 71 q 526 8 460 8 q 657 33 589 8 q 764 114 725 58 q 806 201 794 154 q 828 333 818 249 l 860 333 q 861 130 860 207 q 865 0 863 53 l 833 0 q 815 75 828 60 q 771 71 801 90 q 662 8 719 35 q 514 -19 604 -19 q 283 40 382 -19 q 128 213 183 100 q 74 483 74 325 q 131 756 74 639 q 287 938 188 872 q 515 1003 386 1003 m 654 1286 q 705 1299 682 1304 q 739 1276 728 1294 q 744 1237 750 1258 q 710 1196 739 1215 q 642 1163 681 1178 q 553 1128 604 1149 q 431 1072 503 1108 l 421 1090 q 526 1176 485 1139 q 596 1240 567 1213 q 654 1286 625 1268 z "},"Č":{"ha":956,"x_min":74,"x_max":865,"o":"m 515 1003 q 666 976 607 1003 q 771 913 725 949 q 813 908 799 892 q 833 983 828 924 l 865 983 q 861 858 863 932 q 860 664 860 785 l 828 664 q 810 759 818 724 q 790 819 801 794 q 758 869 778 844 q 650 952 715 926 q 513 978 585 978 q 390 944 444 978 q 295 846 335 910 q 234 692 256 782 q 213 489 213 601 q 236 283 213 372 q 302 132 260 193 q 402 40 344 71 q 526 8 460 8 q 657 33 589 8 q 764 114 725 58 q 806 201 794 154 q 828 333 818 249 l 860 333 q 861 130 860 207 q 865 0 863 53 l 833 0 q 815 75 828 60 q 771 71 801 90 q 662 8 719 35 q 514 -19 604 -19 q 283 40 382 -19 q 128 213 183 100 q 74 483 74 325 q 131 756 74 639 q 287 938 188 872 q 515 1003 386 1003 m 767 1286 l 774 1267 q 615 1186 683 1236 q 514 1083 546 1136 l 489 1083 q 388 1186 457 1136 q 229 1267 319 1236 l 236 1286 q 401 1242 319 1268 q 529 1189 482 1215 q 635 1242 569 1215 q 767 1286 700 1268 z "},"Ç":{"ha":956,"x_min":74,"x_max":865,"o":"m 515 1003 q 666 976 607 1003 q 771 913 725 949 q 813 908 799 892 q 833 983 828 924 l 865 983 q 861 858 863 932 q 860 664 860 785 l 828 664 q 810 759 818 724 q 790 819 801 794 q 758 869 778 844 q 650 952 715 926 q 513 978 585 978 q 390 944 444 978 q 295 846 335 910 q 234 692 256 782 q 213 489 213 601 q 236 283 213 372 q 302 132 260 193 q 402 40 344 71 q 526 8 460 8 q 657 33 589 8 q 764 114 725 58 q 806 201 794 154 q 828 333 818 249 l 860 333 q 861 130 860 207 q 865 0 863 53 l 833 0 q 815 75 828 60 q 771 71 801 90 q 662 8 719 35 q 514 -19 604 -19 q 283 40 382 -19 q 128 213 183 100 q 74 483 74 325 q 131 756 74 639 q 287 938 188 872 q 515 1003 386 1003 m 535 7 l 499 -100 q 538 -93 517 -96 q 581 -90 558 -90 q 642 -107 619 -90 q 665 -156 665 -124 q 640 -217 665 -194 q 578 -251 614 -240 q 508 -261 542 -261 q 441 -256 469 -261 q 393 -246 413 -251 l 399 -221 q 420 -224 406 -222 q 451 -225 435 -225 q 534 -212 492 -225 q 576 -162 576 -200 q 561 -133 576 -143 q 518 -124 546 -124 q 486 -126 507 -124 q 450 -133 465 -128 l 497 7 l 535 7 z "},"Ĉ":{"ha":956,"x_min":74,"x_max":865,"o":"m 515 1003 q 666 976 607 1003 q 771 913 725 949 q 813 908 799 892 q 833 983 828 924 l 865 983 q 861 858 863 932 q 860 664 860 785 l 828 664 q 810 759 818 724 q 790 819 801 794 q 758 869 778 844 q 650 952 715 926 q 513 978 585 978 q 390 944 444 978 q 295 846 335 910 q 234 692 256 782 q 213 489 213 601 q 236 283 213 372 q 302 132 260 193 q 402 40 344 71 q 526 8 460 8 q 657 33 589 8 q 764 114 725 58 q 806 201 794 154 q 828 333 818 249 l 860 333 q 861 130 860 207 q 865 0 863 53 l 833 0 q 815 75 828 60 q 771 71 801 90 q 662 8 719 35 q 514 -19 604 -19 q 283 40 382 -19 q 128 213 183 100 q 74 483 74 325 q 131 756 74 639 q 287 938 188 872 q 515 1003 386 1003 m 518 1272 q 619 1170 550 1219 q 778 1089 688 1121 l 771 1069 q 607 1114 688 1088 q 478 1167 526 1140 q 373 1114 439 1140 q 240 1069 307 1088 l 233 1089 q 392 1170 324 1121 q 493 1272 461 1219 l 518 1272 z "},"Ċ":{"ha":956,"x_min":74,"x_max":865,"o":"m 515 1003 q 666 976 607 1003 q 771 913 725 949 q 813 908 799 892 q 833 983 828 924 l 865 983 q 861 858 863 932 q 860 664 860 785 l 828 664 q 810 759 818 724 q 790 819 801 794 q 758 869 778 844 q 650 952 715 926 q 513 978 585 978 q 390 944 444 978 q 295 846 335 910 q 234 692 256 782 q 213 489 213 601 q 236 283 213 372 q 302 132 260 193 q 402 40 344 71 q 526 8 460 8 q 657 33 589 8 q 764 114 725 58 q 806 201 794 154 q 828 333 818 249 l 860 333 q 861 130 860 207 q 865 0 863 53 l 833 0 q 815 75 828 60 q 771 71 801 90 q 662 8 719 35 q 514 -19 604 -19 q 283 40 382 -19 q 128 213 183 100 q 74 483 74 325 q 131 756 74 639 q 287 938 188 872 q 515 1003 386 1003 m 506 1250 q 568 1224 542 1250 q 594 1161 594 1197 q 568 1099 594 1125 q 506 1072 542 1072 q 443 1099 469 1072 q 417 1161 417 1125 q 443 1224 417 1197 q 506 1250 469 1250 z "},"D":{"ha":1004,"x_min":58,"x_max":928,"o":"m 438 983 q 807 859 686 983 q 928 503 928 735 q 869 238 928 351 q 697 63 810 125 q 425 0 585 0 q 335 2 394 0 q 231 4 275 4 q 135 3 182 4 q 58 0 88 3 l 58 28 q 130 39 106 31 q 163 72 154 47 q 171 147 171 97 l 171 836 q 163 912 171 888 q 130 945 154 936 q 58 956 106 954 l 58 983 q 135 980 88 982 q 228 979 182 978 q 338 982 276 981 q 438 983 399 983 m 403 958 q 319 935 339 958 q 300 839 300 911 l 300 144 q 320 49 300 72 q 404 25 340 25 q 639 80 556 25 q 756 240 722 135 q 789 497 789 346 q 703 844 789 731 q 403 958 618 958 z "},"Ð":{"ha":1004,"x_min":13,"x_max":928,"o":"m 438 983 q 807 859 686 983 q 928 503 928 735 q 869 238 928 351 q 697 63 810 125 q 425 0 585 0 q 335 2 394 0 q 231 4 275 4 q 135 3 182 4 q 58 0 88 3 l 58 28 q 130 39 106 31 q 163 72 154 47 q 171 147 171 97 l 171 836 q 163 912 171 888 q 130 945 154 936 q 58 956 106 954 l 58 983 q 135 980 88 982 q 228 979 182 978 q 338 982 276 981 q 438 983 399 983 m 403 958 q 319 935 339 958 q 300 839 300 911 l 300 144 q 320 49 300 72 q 404 25 340 25 q 639 80 556 25 q 756 240 722 135 q 789 497 789 346 q 703 844 789 731 q 403 958 618 958 m 504 508 l 504 481 l 13 481 l 13 508 l 504 508 z "},"Ď":{"ha":1004,"x_min":58,"x_max":928,"o":"m 438 983 q 807 859 686 983 q 928 503 928 735 q 869 238 928 351 q 697 63 810 125 q 425 0 585 0 q 335 2 394 0 q 231 4 275 4 q 135 3 182 4 q 58 0 88 3 l 58 28 q 130 39 106 31 q 163 72 154 47 q 171 147 171 97 l 171 836 q 163 912 171 888 q 130 945 154 936 q 58 956 106 954 l 58 983 q 135 980 88 982 q 228 979 182 978 q 338 982 276 981 q 438 983 399 983 m 403 958 q 319 935 339 958 q 300 839 300 911 l 300 144 q 320 49 300 72 q 404 25 340 25 q 639 80 556 25 q 756 240 722 135 q 789 497 789 346 q 703 844 789 731 q 403 958 618 958 m 699 1286 l 706 1267 q 547 1186 615 1236 q 446 1083 478 1136 l 421 1083 q 320 1186 389 1136 q 161 1267 251 1236 l 168 1286 q 333 1242 251 1268 q 461 1189 414 1215 q 567 1242 501 1215 q 699 1286 632 1268 z "},"Đ":{"ha":1004,"x_min":13,"x_max":928,"o":"m 438 983 q 807 859 686 983 q 928 503 928 735 q 869 238 928 351 q 697 63 810 125 q 425 0 585 0 q 335 2 394 0 q 231 4 275 4 q 135 3 182 4 q 58 0 88 3 l 58 28 q 130 39 106 31 q 163 72 154 47 q 171 147 171 97 l 171 836 q 163 912 171 888 q 130 945 154 936 q 58 956 106 954 l 58 983 q 135 980 88 982 q 228 979 182 978 q 338 982 276 981 q 438 983 399 983 m 403 958 q 319 935 339 958 q 300 839 300 911 l 300 144 q 320 49 300 72 q 404 25 340 25 q 639 80 556 25 q 756 240 722 135 q 789 497 789 346 q 703 844 789 731 q 403 958 618 958 m 504 508 l 504 481 l 13 481 l 13 508 l 504 508 z "},"E":{"ha":846,"x_min":58,"x_max":779,"o":"m 751 983 q 744 889 746 935 q 742 819 742 843 q 743 772 742 794 q 746 733 744 749 l 714 733 q 690 863 706 815 q 638 931 675 911 q 528 951 601 951 l 413 951 q 341 944 365 951 q 308 912 317 936 q 300 836 300 888 l 300 147 q 308 72 300 97 q 341 40 317 47 q 413 32 365 32 l 514 32 q 647 56 601 32 q 712 133 692 79 q 742 278 732 186 l 774 278 q 769 178 769 240 q 772 102 769 151 q 779 0 774 53 q 619 3 708 3 q 461 4 531 4 q 351 4 419 4 q 204 3 282 4 q 58 0 126 3 l 58 28 q 130 39 106 31 q 163 72 154 47 q 171 147 171 97 l 171 836 q 163 912 171 888 q 130 945 154 936 q 58 956 106 954 l 58 983 q 204 981 126 982 q 351 979 282 979 q 461 979 419 979 q 606 980 525 979 q 751 983 688 981 m 513 508 q 513 494 513 508 q 513 481 513 481 l 258 481 q 258 494 258 481 q 258 508 258 508 l 513 508 m 553 692 q 548 571 547 613 q 549 494 549 529 q 550 418 549 460 q 557 297 551 376 l 525 297 q 512 384 519 342 q 478 453 504 426 q 392 481 453 481 l 392 508 q 477 540 453 508 q 508 615 501 572 q 521 692 515 658 l 553 692 z "},"É":{"ha":846,"x_min":58,"x_max":779,"o":"m 751 983 q 744 889 746 935 q 742 819 742 843 q 743 772 742 794 q 746 733 744 749 l 714 733 q 690 863 706 815 q 638 931 675 911 q 528 951 601 951 l 413 951 q 341 944 365 951 q 308 912 317 936 q 300 836 300 888 l 300 147 q 308 72 300 97 q 341 40 317 47 q 413 32 365 32 l 514 32 q 647 56 601 32 q 712 133 692 79 q 742 278 732 186 l 774 278 q 769 178 769 240 q 772 102 769 151 q 779 0 774 53 q 619 3 708 3 q 461 4 531 4 q 351 4 419 4 q 204 3 282 4 q 58 0 126 3 l 58 28 q 130 39 106 31 q 163 72 154 47 q 171 147 171 97 l 171 836 q 163 912 171 888 q 130 945 154 936 q 58 956 106 954 l 58 983 q 204 981 126 982 q 351 979 282 979 q 461 979 419 979 q 606 980 525 979 q 751 983 688 981 m 513 508 q 513 494 513 508 q 513 481 513 481 l 258 481 q 258 494 258 481 q 258 508 258 508 l 513 508 m 553 692 q 548 571 547 613 q 549 494 549 529 q 550 418 549 460 q 557 297 551 376 l 525 297 q 512 384 519 342 q 478 453 504 426 q 392 481 453 481 l 392 508 q 477 540 453 508 q 508 615 501 572 q 521 692 515 658 l 553 692 m 574 1286 q 624 1299 601 1304 q 658 1276 647 1294 q 664 1237 669 1258 q 629 1196 658 1215 q 562 1163 600 1178 q 473 1128 524 1149 q 350 1072 422 1108 l 340 1090 q 445 1176 404 1139 q 515 1240 486 1213 q 574 1286 544 1268 z "},"Ĕ":{"ha":846,"x_min":58,"x_max":779,"o":"m 751 983 q 744 889 746 935 q 742 819 742 843 q 743 772 742 794 q 746 733 744 749 l 714 733 q 690 863 706 815 q 638 931 675 911 q 528 951 601 951 l 413 951 q 341 944 365 951 q 308 912 317 936 q 300 836 300 888 l 300 147 q 308 72 300 97 q 341 40 317 47 q 413 32 365 32 l 514 32 q 647 56 601 32 q 712 133 692 79 q 742 278 732 186 l 774 278 q 769 178 769 240 q 772 102 769 151 q 779 0 774 53 q 619 3 708 3 q 461 4 531 4 q 351 4 419 4 q 204 3 282 4 q 58 0 126 3 l 58 28 q 130 39 106 31 q 163 72 154 47 q 171 147 171 97 l 171 836 q 163 912 171 888 q 130 945 154 936 q 58 956 106 954 l 58 983 q 204 981 126 982 q 351 979 282 979 q 461 979 419 979 q 606 980 525 979 q 751 983 688 981 m 513 508 q 513 494 513 508 q 513 481 513 481 l 258 481 q 258 494 258 481 q 258 508 258 508 l 513 508 m 553 692 q 548 571 547 613 q 549 494 549 529 q 550 418 549 460 q 557 297 551 376 l 525 297 q 512 384 519 342 q 478 453 504 426 q 392 481 453 481 l 392 508 q 477 540 453 508 q 508 615 501 572 q 521 692 515 658 l 553 692 m 685 1263 l 701 1247 q 642 1174 679 1211 q 550 1111 604 1136 q 425 1086 496 1086 q 300 1111 354 1086 q 208 1174 246 1136 q 149 1247 171 1211 l 167 1261 q 262 1201 199 1231 q 425 1172 325 1172 q 589 1202 525 1172 q 685 1263 653 1232 z "},"Ě":{"ha":846,"x_min":58,"x_max":779,"o":"m 751 983 q 744 889 746 935 q 742 819 742 843 q 743 772 742 794 q 746 733 744 749 l 714 733 q 690 863 706 815 q 638 931 675 911 q 528 951 601 951 l 413 951 q 341 944 365 951 q 308 912 317 936 q 300 836 300 888 l 300 147 q 308 72 300 97 q 341 40 317 47 q 413 32 365 32 l 514 32 q 647 56 601 32 q 712 133 692 79 q 742 278 732 186 l 774 278 q 769 178 769 240 q 772 102 769 151 q 779 0 774 53 q 619 3 708 3 q 461 4 531 4 q 351 4 419 4 q 204 3 282 4 q 58 0 126 3 l 58 28 q 130 39 106 31 q 163 72 154 47 q 171 147 171 97 l 171 836 q 163 912 171 888 q 130 945 154 936 q 58 956 106 954 l 58 983 q 204 981 126 982 q 351 979 282 979 q 461 979 419 979 q 606 980 525 979 q 751 983 688 981 m 513 508 q 513 494 513 508 q 513 481 513 481 l 258 481 q 258 494 258 481 q 258 508 258 508 l 513 508 m 553 692 q 548 571 547 613 q 549 494 549 529 q 550 418 549 460 q 557 297 551 376 l 525 297 q 512 384 519 342 q 478 453 504 426 q 392 481 453 481 l 392 508 q 477 540 453 508 q 508 615 501 572 q 521 692 515 658 l 553 692 m 686 1286 l 693 1267 q 534 1186 603 1236 q 433 1083 465 1136 l 408 1083 q 308 1186 376 1136 q 149 1267 239 1236 l 156 1286 q 320 1242 239 1268 q 449 1189 401 1215 q 554 1242 489 1215 q 686 1286 619 1268 z "},"Ê":{"ha":846,"x_min":58,"x_max":779,"o":"m 751 983 q 744 889 746 935 q 742 819 742 843 q 743 772 742 794 q 746 733 744 749 l 714 733 q 690 863 706 815 q 638 931 675 911 q 528 951 601 951 l 413 951 q 341 944 365 951 q 308 912 317 936 q 300 836 300 888 l 300 147 q 308 72 300 97 q 341 40 317 47 q 413 32 365 32 l 514 32 q 647 56 601 32 q 712 133 692 79 q 742 278 732 186 l 774 278 q 769 178 769 240 q 772 102 769 151 q 779 0 774 53 q 619 3 708 3 q 461 4 531 4 q 351 4 419 4 q 204 3 282 4 q 58 0 126 3 l 58 28 q 130 39 106 31 q 163 72 154 47 q 171 147 171 97 l 171 836 q 163 912 171 888 q 130 945 154 936 q 58 956 106 954 l 58 983 q 204 981 126 982 q 351 979 282 979 q 461 979 419 979 q 606 980 525 979 q 751 983 688 981 m 513 508 q 513 494 513 508 q 513 481 513 481 l 258 481 q 258 494 258 481 q 258 508 258 508 l 513 508 m 553 692 q 548 571 547 613 q 549 494 549 529 q 550 418 549 460 q 557 297 551 376 l 525 297 q 512 384 519 342 q 478 453 504 426 q 392 481 453 481 l 392 508 q 477 540 453 508 q 508 615 501 572 q 521 692 515 658 l 553 692 m 438 1272 q 538 1170 469 1219 q 697 1089 607 1121 l 690 1069 q 526 1114 607 1088 q 397 1167 446 1140 q 292 1114 358 1140 q 160 1069 226 1088 l 153 1089 q 312 1170 243 1121 q 413 1272 381 1219 l 438 1272 z "},"Ế":{"ha":846,"x_min":58,"x_max":779,"o":"m 751 983 q 744 889 746 935 q 742 819 742 843 q 743 772 742 794 q 746 733 744 749 l 714 733 q 690 863 706 815 q 638 931 675 911 q 528 951 601 951 l 413 951 q 341 944 365 951 q 308 912 317 936 q 300 836 300 888 l 300 147 q 308 72 300 97 q 341 40 317 47 q 413 32 365 32 l 514 32 q 647 56 601 32 q 712 133 692 79 q 742 278 732 186 l 774 278 q 769 178 769 240 q 772 102 769 151 q 779 0 774 53 q 619 3 708 3 q 461 4 531 4 q 351 4 419 4 q 204 3 282 4 q 58 0 126 3 l 58 28 q 130 39 106 31 q 163 72 154 47 q 171 147 171 97 l 171 836 q 163 912 171 888 q 130 945 154 936 q 58 956 106 954 l 58 983 q 204 981 126 982 q 351 979 282 979 q 461 979 419 979 q 606 980 525 979 q 751 983 688 981 m 513 508 q 513 494 513 508 q 513 481 513 481 l 258 481 q 258 494 258 481 q 258 508 258 508 l 513 508 m 553 692 q 548 571 547 613 q 549 494 549 529 q 550 418 549 460 q 557 297 551 376 l 525 297 q 512 384 519 342 q 478 453 504 426 q 392 481 453 481 l 392 508 q 477 540 453 508 q 508 615 501 572 q 521 692 515 658 l 553 692 m 438 1272 q 538 1170 469 1219 q 697 1089 607 1121 l 690 1069 q 526 1114 607 1088 q 397 1167 446 1140 q 292 1114 358 1140 q 160 1069 226 1088 l 153 1089 q 312 1170 243 1121 q 413 1272 381 1219 l 438 1272 m 574 1592 q 624 1605 601 1610 q 658 1582 647 1600 q 664 1542 669 1564 q 629 1501 658 1521 q 562 1469 600 1483 q 473 1434 524 1454 q 350 1378 422 1414 l 340 1396 q 445 1481 404 1444 q 515 1546 486 1518 q 574 1592 544 1574 z "},"Ệ":{"ha":846,"x_min":58,"x_max":779,"o":"m 751 983 q 744 889 746 935 q 742 819 742 843 q 743 772 742 794 q 746 733 744 749 l 714 733 q 690 863 706 815 q 638 931 675 911 q 528 951 601 951 l 413 951 q 341 944 365 951 q 308 912 317 936 q 300 836 300 888 l 300 147 q 308 72 300 97 q 341 40 317 47 q 413 32 365 32 l 514 32 q 647 56 601 32 q 712 133 692 79 q 742 278 732 186 l 774 278 q 769 178 769 240 q 772 102 769 151 q 779 0 774 53 q 619 3 708 3 q 461 4 531 4 q 351 4 419 4 q 204 3 282 4 q 58 0 126 3 l 58 28 q 130 39 106 31 q 163 72 154 47 q 171 147 171 97 l 171 836 q 163 912 171 888 q 130 945 154 936 q 58 956 106 954 l 58 983 q 204 981 126 982 q 351 979 282 979 q 461 979 419 979 q 606 980 525 979 q 751 983 688 981 m 513 508 q 513 494 513 508 q 513 481 513 481 l 258 481 q 258 494 258 481 q 258 508 258 508 l 513 508 m 553 692 q 548 571 547 613 q 549 494 549 529 q 550 418 549 460 q 557 297 551 376 l 525 297 q 512 384 519 342 q 478 453 504 426 q 392 481 453 481 l 392 508 q 477 540 453 508 q 508 615 501 572 q 521 692 515 658 l 553 692 m 438 1383 q 527 1249 465 1314 q 669 1144 589 1185 l 658 1125 q 513 1189 583 1151 q 397 1264 442 1226 q 306 1189 363 1226 q 192 1125 250 1151 l 181 1144 q 323 1249 261 1185 q 413 1383 385 1314 l 438 1383 m 451 -251 q 394 -230 418 -251 q 371 -174 371 -208 q 392 -119 371 -142 q 451 -96 414 -96 q 510 -119 489 -96 q 532 -175 532 -143 q 508 -231 532 -210 q 451 -251 483 -251 z "},"Ề":{"ha":846,"x_min":58,"x_max":779,"o":"m 751 983 q 744 889 746 935 q 742 819 742 843 q 743 772 742 794 q 746 733 744 749 l 714 733 q 690 863 706 815 q 638 931 675 911 q 528 951 601 951 l 413 951 q 341 944 365 951 q 308 912 317 936 q 300 836 300 888 l 300 147 q 308 72 300 97 q 341 40 317 47 q 413 32 365 32 l 514 32 q 647 56 601 32 q 712 133 692 79 q 742 278 732 186 l 774 278 q 769 178 769 240 q 772 102 769 151 q 779 0 774 53 q 619 3 708 3 q 461 4 531 4 q 351 4 419 4 q 204 3 282 4 q 58 0 126 3 l 58 28 q 130 39 106 31 q 163 72 154 47 q 171 147 171 97 l 171 836 q 163 912 171 888 q 130 945 154 936 q 58 956 106 954 l 58 983 q 204 981 126 982 q 351 979 282 979 q 461 979 419 979 q 606 980 525 979 q 751 983 688 981 m 513 508 q 513 494 513 508 q 513 481 513 481 l 258 481 q 258 494 258 481 q 258 508 258 508 l 513 508 m 553 692 q 548 571 547 613 q 549 494 549 529 q 550 418 549 460 q 557 297 551 376 l 525 297 q 512 384 519 342 q 478 453 504 426 q 392 481 453 481 l 392 508 q 477 540 453 508 q 508 615 501 572 q 521 692 515 658 l 553 692 m 438 1272 q 538 1170 469 1219 q 697 1089 607 1121 l 690 1069 q 526 1114 607 1088 q 397 1167 446 1140 q 292 1114 358 1140 q 160 1069 226 1088 l 153 1089 q 312 1170 243 1121 q 413 1272 381 1219 l 438 1272 m 285 1592 q 343 1546 314 1574 q 413 1481 372 1518 q 518 1396 454 1444 l 508 1378 q 385 1434 438 1414 q 297 1469 333 1454 q 229 1501 260 1483 q 194 1542 200 1521 q 200 1582 189 1564 q 234 1605 211 1600 q 285 1592 257 1610 z "},"Ể":{"ha":846,"x_min":58,"x_max":818,"o":"m 751 983 q 744 889 746 935 q 742 819 742 843 q 743 772 742 794 q 746 733 744 749 l 714 733 q 690 863 706 815 q 638 931 675 911 q 528 951 601 951 l 413 951 q 341 944 365 951 q 308 912 317 936 q 300 836 300 888 l 300 147 q 308 72 300 97 q 341 40 317 47 q 413 32 365 32 l 514 32 q 647 56 601 32 q 712 133 692 79 q 742 278 732 186 l 774 278 q 769 178 769 240 q 772 102 769 151 q 779 0 774 53 q 619 3 708 3 q 461 4 531 4 q 351 4 419 4 q 204 3 282 4 q 58 0 126 3 l 58 28 q 130 39 106 31 q 163 72 154 47 q 171 147 171 97 l 171 836 q 163 912 171 888 q 130 945 154 936 q 58 956 106 954 l 58 983 q 204 981 126 982 q 351 979 282 979 q 461 979 419 979 q 606 980 525 979 q 751 983 688 981 m 513 508 q 513 494 513 508 q 513 481 513 481 l 258 481 q 258 494 258 481 q 258 508 258 508 l 513 508 m 553 692 q 548 571 547 613 q 549 494 549 529 q 550 418 549 460 q 557 297 551 376 l 525 297 q 512 384 519 342 q 478 453 504 426 q 392 481 453 481 l 392 508 q 477 540 453 508 q 508 615 501 572 q 521 692 515 658 l 553 692 m 438 1272 q 538 1170 469 1219 q 697 1089 607 1121 l 690 1069 q 526 1114 607 1088 q 397 1167 446 1140 q 292 1114 358 1140 q 160 1069 226 1088 l 153 1089 q 312 1170 243 1121 q 413 1272 381 1219 l 438 1272 m 631 1269 l 631 1346 q 701 1392 679 1365 q 722 1450 722 1418 q 694 1510 722 1490 q 625 1531 665 1531 q 589 1526 608 1531 q 558 1508 569 1522 q 603 1451 603 1499 q 585 1406 603 1422 q 540 1390 567 1390 q 497 1406 514 1390 q 481 1449 481 1422 q 497 1496 481 1475 q 535 1531 513 1517 q 581 1550 554 1542 q 651 1558 608 1558 q 727 1549 689 1558 q 792 1517 765 1539 q 818 1458 818 1496 q 775 1381 818 1414 q 658 1333 732 1349 l 658 1269 l 631 1269 z "},"Ễ":{"ha":846,"x_min":58,"x_max":779,"o":"m 751 983 q 744 889 746 935 q 742 819 742 843 q 743 772 742 794 q 746 733 744 749 l 714 733 q 690 863 706 815 q 638 931 675 911 q 528 951 601 951 l 413 951 q 341 944 365 951 q 308 912 317 936 q 300 836 300 888 l 300 147 q 308 72 300 97 q 341 40 317 47 q 413 32 365 32 l 514 32 q 647 56 601 32 q 712 133 692 79 q 742 278 732 186 l 774 278 q 769 178 769 240 q 772 102 769 151 q 779 0 774 53 q 619 3 708 3 q 461 4 531 4 q 351 4 419 4 q 204 3 282 4 q 58 0 126 3 l 58 28 q 130 39 106 31 q 163 72 154 47 q 171 147 171 97 l 171 836 q 163 912 171 888 q 130 945 154 936 q 58 956 106 954 l 58 983 q 204 981 126 982 q 351 979 282 979 q 461 979 419 979 q 606 980 525 979 q 751 983 688 981 m 513 508 q 513 494 513 508 q 513 481 513 481 l 258 481 q 258 494 258 481 q 258 508 258 508 l 513 508 m 553 692 q 548 571 547 613 q 549 494 549 529 q 550 418 549 460 q 557 297 551 376 l 525 297 q 512 384 519 342 q 478 453 504 426 q 392 481 453 481 l 392 508 q 477 540 453 508 q 508 615 501 572 q 521 692 515 658 l 553 692 m 438 1272 q 538 1170 469 1219 q 697 1089 607 1121 l 690 1069 q 526 1114 607 1088 q 397 1167 446 1140 q 292 1114 358 1140 q 160 1069 226 1088 l 153 1089 q 312 1170 243 1121 q 413 1272 381 1219 l 438 1272 m 313 1558 q 385 1542 351 1558 q 450 1505 418 1526 q 514 1467 482 1483 q 582 1451 546 1451 q 633 1468 610 1451 q 668 1529 656 1485 l 689 1525 q 638 1417 683 1457 q 535 1378 593 1378 q 463 1394 496 1378 q 397 1431 429 1410 q 333 1469 365 1453 q 265 1485 301 1485 q 214 1468 236 1485 q 179 1407 192 1451 l 158 1411 q 210 1519 165 1481 q 313 1558 254 1558 z "},"Ë":{"ha":846,"x_min":58,"x_max":779,"o":"m 751 983 q 744 889 746 935 q 742 819 742 843 q 743 772 742 794 q 746 733 744 749 l 714 733 q 690 863 706 815 q 638 931 675 911 q 528 951 601 951 l 413 951 q 341 944 365 951 q 308 912 317 936 q 300 836 300 888 l 300 147 q 308 72 300 97 q 341 40 317 47 q 413 32 365 32 l 514 32 q 647 56 601 32 q 712 133 692 79 q 742 278 732 186 l 774 278 q 769 178 769 240 q 772 102 769 151 q 779 0 774 53 q 619 3 708 3 q 461 4 531 4 q 351 4 419 4 q 204 3 282 4 q 58 0 126 3 l 58 28 q 130 39 106 31 q 163 72 154 47 q 171 147 171 97 l 171 836 q 163 912 171 888 q 130 945 154 936 q 58 956 106 954 l 58 983 q 204 981 126 982 q 351 979 282 979 q 461 979 419 979 q 606 980 525 979 q 751 983 688 981 m 513 508 q 513 494 513 508 q 513 481 513 481 l 258 481 q 258 494 258 481 q 258 508 258 508 l 513 508 m 553 692 q 548 571 547 613 q 549 494 549 529 q 550 418 549 460 q 557 297 551 376 l 525 297 q 512 384 519 342 q 478 453 504 426 q 392 481 453 481 l 392 508 q 477 540 453 508 q 508 615 501 572 q 521 692 515 658 l 553 692 m 572 1233 q 628 1209 604 1233 q 653 1153 653 1185 q 628 1096 653 1119 q 572 1072 604 1072 q 515 1096 539 1072 q 492 1153 492 1119 q 515 1209 492 1185 q 572 1233 539 1233 m 278 1233 q 334 1209 310 1233 q 358 1153 358 1185 q 334 1096 358 1119 q 278 1072 310 1072 q 221 1096 244 1072 q 197 1153 197 1119 q 221 1209 197 1185 q 278 1233 244 1233 z "},"Ė":{"ha":846,"x_min":58,"x_max":779,"o":"m 751 983 q 744 889 746 935 q 742 819 742 843 q 743 772 742 794 q 746 733 744 749 l 714 733 q 690 863 706 815 q 638 931 675 911 q 528 951 601 951 l 413 951 q 341 944 365 951 q 308 912 317 936 q 300 836 300 888 l 300 147 q 308 72 300 97 q 341 40 317 47 q 413 32 365 32 l 514 32 q 647 56 601 32 q 712 133 692 79 q 742 278 732 186 l 774 278 q 769 178 769 240 q 772 102 769 151 q 779 0 774 53 q 619 3 708 3 q 461 4 531 4 q 351 4 419 4 q 204 3 282 4 q 58 0 126 3 l 58 28 q 130 39 106 31 q 163 72 154 47 q 171 147 171 97 l 171 836 q 163 912 171 888 q 130 945 154 936 q 58 956 106 954 l 58 983 q 204 981 126 982 q 351 979 282 979 q 461 979 419 979 q 606 980 525 979 q 751 983 688 981 m 513 508 q 513 494 513 508 q 513 481 513 481 l 258 481 q 258 494 258 481 q 258 508 258 508 l 513 508 m 553 692 q 548 571 547 613 q 549 494 549 529 q 550 418 549 460 q 557 297 551 376 l 525 297 q 512 384 519 342 q 478 453 504 426 q 392 481 453 481 l 392 508 q 477 540 453 508 q 508 615 501 572 q 521 692 515 658 l 553 692 m 425 1250 q 488 1224 461 1250 q 514 1161 514 1197 q 488 1099 514 1125 q 425 1072 461 1072 q 363 1099 389 1072 q 336 1161 336 1125 q 363 1224 336 1197 q 425 1250 389 1250 z "},"Ẹ":{"ha":846,"x_min":58,"x_max":779,"o":"m 751 983 q 744 889 746 935 q 742 819 742 843 q 743 772 742 794 q 746 733 744 749 l 714 733 q 690 863 706 815 q 638 931 675 911 q 528 951 601 951 l 413 951 q 341 944 365 951 q 308 912 317 936 q 300 836 300 888 l 300 147 q 308 72 300 97 q 341 40 317 47 q 413 32 365 32 l 514 32 q 647 56 601 32 q 712 133 692 79 q 742 278 732 186 l 774 278 q 769 178 769 240 q 772 102 769 151 q 779 0 774 53 q 619 3 708 3 q 461 4 531 4 q 351 4 419 4 q 204 3 282 4 q 58 0 126 3 l 58 28 q 130 39 106 31 q 163 72 154 47 q 171 147 171 97 l 171 836 q 163 912 171 888 q 130 945 154 936 q 58 956 106 954 l 58 983 q 204 981 126 982 q 351 979 282 979 q 461 979 419 979 q 606 980 525 979 q 751 983 688 981 m 513 508 q 513 494 513 508 q 513 481 513 481 l 258 481 q 258 494 258 481 q 258 508 258 508 l 513 508 m 553 692 q 548 571 547 613 q 549 494 549 529 q 550 418 549 460 q 557 297 551 376 l 525 297 q 512 384 519 342 q 478 453 504 426 q 392 481 453 481 l 392 508 q 477 540 453 508 q 508 615 501 572 q 521 692 515 658 l 553 692 m 451 -251 q 394 -230 418 -251 q 371 -174 371 -208 q 392 -119 371 -142 q 451 -96 414 -96 q 510 -119 489 -96 q 532 -175 532 -143 q 508 -231 532 -210 q 451 -251 483 -251 z "},"È":{"ha":846,"x_min":58,"x_max":779,"o":"m 751 983 q 744 889 746 935 q 742 819 742 843 q 743 772 742 794 q 746 733 744 749 l 714 733 q 690 863 706 815 q 638 931 675 911 q 528 951 601 951 l 413 951 q 341 944 365 951 q 308 912 317 936 q 300 836 300 888 l 300 147 q 308 72 300 97 q 341 40 317 47 q 413 32 365 32 l 514 32 q 647 56 601 32 q 712 133 692 79 q 742 278 732 186 l 774 278 q 769 178 769 240 q 772 102 769 151 q 779 0 774 53 q 619 3 708 3 q 461 4 531 4 q 351 4 419 4 q 204 3 282 4 q 58 0 126 3 l 58 28 q 130 39 106 31 q 163 72 154 47 q 171 147 171 97 l 171 836 q 163 912 171 888 q 130 945 154 936 q 58 956 106 954 l 58 983 q 204 981 126 982 q 351 979 282 979 q 461 979 419 979 q 606 980 525 979 q 751 983 688 981 m 513 508 q 513 494 513 508 q 513 481 513 481 l 258 481 q 258 494 258 481 q 258 508 258 508 l 513 508 m 553 692 q 548 571 547 613 q 549 494 549 529 q 550 418 549 460 q 557 297 551 376 l 525 297 q 512 384 519 342 q 478 453 504 426 q 392 481 453 481 l 392 508 q 477 540 453 508 q 508 615 501 572 q 521 692 515 658 l 553 692 m 285 1286 q 343 1240 314 1268 q 413 1176 372 1213 q 518 1090 454 1139 l 508 1072 q 385 1128 438 1108 q 297 1163 333 1149 q 229 1196 260 1178 q 194 1237 200 1215 q 200 1276 189 1258 q 234 1299 211 1294 q 285 1286 257 1304 z "},"Ẻ":{"ha":846,"x_min":58,"x_max":779,"o":"m 751 983 q 744 889 746 935 q 742 819 742 843 q 743 772 742 794 q 746 733 744 749 l 714 733 q 690 863 706 815 q 638 931 675 911 q 528 951 601 951 l 413 951 q 341 944 365 951 q 308 912 317 936 q 300 836 300 888 l 300 147 q 308 72 300 97 q 341 40 317 47 q 413 32 365 32 l 514 32 q 647 56 601 32 q 712 133 692 79 q 742 278 732 186 l 774 278 q 769 178 769 240 q 772 102 769 151 q 779 0 774 53 q 619 3 708 3 q 461 4 531 4 q 351 4 419 4 q 204 3 282 4 q 58 0 126 3 l 58 28 q 130 39 106 31 q 163 72 154 47 q 171 147 171 97 l 171 836 q 163 912 171 888 q 130 945 154 936 q 58 956 106 954 l 58 983 q 204 981 126 982 q 351 979 282 979 q 461 979 419 979 q 606 980 525 979 q 751 983 688 981 m 513 508 q 513 494 513 508 q 513 481 513 481 l 258 481 q 258 494 258 481 q 258 508 258 508 l 513 508 m 553 692 q 548 571 547 613 q 549 494 549 529 q 550 418 549 460 q 557 297 551 376 l 525 297 q 512 384 519 342 q 478 453 504 426 q 392 481 453 481 l 392 508 q 477 540 453 508 q 508 615 501 572 q 521 692 515 658 l 553 692 m 411 1064 l 411 1140 q 481 1186 460 1160 q 503 1244 503 1213 q 474 1305 503 1285 q 406 1325 446 1325 q 369 1321 389 1325 q 339 1303 350 1317 q 383 1246 383 1293 q 365 1201 383 1217 q 321 1185 347 1185 q 278 1201 294 1185 q 261 1243 261 1217 q 277 1290 261 1269 q 315 1325 293 1311 q 362 1344 335 1336 q 432 1353 389 1353 q 508 1343 469 1353 q 572 1312 546 1333 q 599 1253 599 1290 q 556 1176 599 1208 q 439 1128 513 1143 l 439 1064 l 411 1064 z "},"Ē":{"ha":846,"x_min":58,"x_max":779,"o":"m 751 983 q 744 889 746 935 q 742 819 742 843 q 743 772 742 794 q 746 733 744 749 l 714 733 q 690 863 706 815 q 638 931 675 911 q 528 951 601 951 l 413 951 q 341 944 365 951 q 308 912 317 936 q 300 836 300 888 l 300 147 q 308 72 300 97 q 341 40 317 47 q 413 32 365 32 l 514 32 q 647 56 601 32 q 712 133 692 79 q 742 278 732 186 l 774 278 q 769 178 769 240 q 772 102 769 151 q 779 0 774 53 q 619 3 708 3 q 461 4 531 4 q 351 4 419 4 q 204 3 282 4 q 58 0 126 3 l 58 28 q 130 39 106 31 q 163 72 154 47 q 171 147 171 97 l 171 836 q 163 912 171 888 q 130 945 154 936 q 58 956 106 954 l 58 983 q 204 981 126 982 q 351 979 282 979 q 461 979 419 979 q 606 980 525 979 q 751 983 688 981 m 513 508 q 513 494 513 508 q 513 481 513 481 l 258 481 q 258 494 258 481 q 258 508 258 508 l 513 508 m 553 692 q 548 571 547 613 q 549 494 549 529 q 550 418 549 460 q 557 297 551 376 l 525 297 q 512 384 519 342 q 478 453 504 426 q 392 481 453 481 l 392 508 q 477 540 453 508 q 508 615 501 572 q 521 692 515 658 l 553 692 m 669 1172 l 669 1138 l 181 1138 l 181 1172 l 669 1172 z "},"Ę":{"ha":846,"x_min":58,"x_max":801,"o":"m 751 983 q 744 889 746 935 q 742 819 742 843 q 743 772 742 794 q 746 733 744 749 l 714 733 q 690 863 706 815 q 638 931 675 911 q 528 951 601 951 l 413 951 q 341 944 365 951 q 308 912 317 936 q 300 836 300 888 l 300 147 q 308 72 300 97 q 341 40 317 47 q 413 32 365 32 l 514 32 q 647 56 601 32 q 712 133 692 79 q 742 278 732 186 l 774 278 q 769 178 769 240 q 772 102 769 151 q 779 0 774 53 q 619 3 708 3 q 461 4 531 4 q 351 4 419 4 q 204 3 282 4 q 58 0 126 3 l 58 28 q 130 39 106 31 q 163 72 154 47 q 171 147 171 97 l 171 836 q 163 912 171 888 q 130 945 154 936 q 58 956 106 954 l 58 983 q 204 981 126 982 q 351 979 282 979 q 461 979 419 979 q 606 980 525 979 q 751 983 688 981 m 513 508 q 513 494 513 508 q 513 481 513 481 l 258 481 q 258 494 258 481 q 258 508 258 508 l 513 508 m 553 692 q 548 571 547 613 q 549 494 549 529 q 550 418 549 460 q 557 297 551 376 l 525 297 q 512 384 519 342 q 478 453 504 426 q 392 481 453 481 l 392 508 q 477 540 453 508 q 508 615 501 572 q 521 692 515 658 l 553 692 m 779 4 q 667 -58 697 -18 q 636 -133 636 -97 q 652 -177 636 -160 q 696 -194 668 -194 q 744 -181 722 -194 q 781 -149 767 -167 l 801 -167 q 730 -238 769 -215 q 644 -261 690 -261 q 565 -236 594 -261 q 535 -171 535 -211 q 585 -72 535 -117 q 726 4 635 -26 l 779 4 z "},"Ẽ":{"ha":846,"x_min":58,"x_max":779,"o":"m 751 983 q 744 889 746 935 q 742 819 742 843 q 743 772 742 794 q 746 733 744 749 l 714 733 q 690 863 706 815 q 638 931 675 911 q 528 951 601 951 l 413 951 q 341 944 365 951 q 308 912 317 936 q 300 836 300 888 l 300 147 q 308 72 300 97 q 341 40 317 47 q 413 32 365 32 l 514 32 q 647 56 601 32 q 712 133 692 79 q 742 278 732 186 l 774 278 q 769 178 769 240 q 772 102 769 151 q 779 0 774 53 q 619 3 708 3 q 461 4 531 4 q 351 4 419 4 q 204 3 282 4 q 58 0 126 3 l 58 28 q 130 39 106 31 q 163 72 154 47 q 171 147 171 97 l 171 836 q 163 912 171 888 q 130 945 154 936 q 58 956 106 954 l 58 983 q 204 981 126 982 q 351 979 282 979 q 461 979 419 979 q 606 980 525 979 q 751 983 688 981 m 513 508 q 513 494 513 508 q 513 481 513 481 l 258 481 q 258 494 258 481 q 258 508 258 508 l 513 508 m 553 692 q 548 571 547 613 q 549 494 549 529 q 550 418 549 460 q 557 297 551 376 l 525 297 q 512 384 519 342 q 478 453 504 426 q 392 481 453 481 l 392 508 q 477 540 453 508 q 508 615 501 572 q 521 692 515 658 l 553 692 m 313 1253 q 385 1237 351 1253 q 450 1199 418 1221 q 514 1162 482 1178 q 582 1146 546 1146 q 633 1163 610 1146 q 668 1224 656 1179 l 689 1219 q 638 1112 683 1151 q 535 1072 593 1072 q 463 1088 496 1072 q 397 1126 429 1104 q 333 1163 365 1147 q 265 1179 301 1179 q 214 1163 236 1179 q 179 1101 192 1146 l 158 1106 q 210 1214 165 1175 q 313 1253 254 1253 z "},"Ʒ":{"ha":825,"x_min":75,"x_max":765,"o":"m 764 983 l 764 956 l 492 518 l 499 547 q 627 488 567 525 q 726 394 688 450 q 765 260 765 339 q 718 112 765 175 q 590 15 671 49 q 408 -19 510 -19 q 268 -1 326 -19 q 185 32 210 18 q 160 46 171 40 q 139 51 149 51 q 117 35 124 51 q 107 -10 111 19 l 75 -10 q 78 59 78 19 q 80 163 79 99 q 81 324 81 226 l 113 324 q 150 166 118 238 q 243 51 182 94 q 397 8 304 8 q 531 42 479 8 q 608 133 583 76 q 633 258 633 190 q 565 449 633 382 q 397 542 497 517 l 397 569 l 638 951 l 346 951 q 214 926 260 951 q 148 845 168 901 q 118 692 128 789 l 86 692 q 90 743 89 714 q 90 797 90 772 q 88 881 90 832 q 81 983 86 931 q 254 980 158 981 q 426 979 350 979 q 597 980 506 979 q 764 983 688 981 z "},"Ǯ":{"ha":825,"x_min":75,"x_max":765,"o":"m 764 983 l 764 956 l 492 518 l 499 547 q 627 488 567 525 q 726 394 688 450 q 765 260 765 339 q 718 112 765 175 q 590 15 671 49 q 408 -19 510 -19 q 268 -1 326 -19 q 185 32 210 18 q 160 46 171 40 q 139 51 149 51 q 117 35 124 51 q 107 -10 111 19 l 75 -10 q 78 59 78 19 q 80 163 79 99 q 81 324 81 226 l 113 324 q 150 166 118 238 q 243 51 182 94 q 397 8 304 8 q 531 42 479 8 q 608 133 583 76 q 633 258 633 190 q 565 449 633 382 q 397 542 497 517 l 397 569 l 638 951 l 346 951 q 214 926 260 951 q 148 845 168 901 q 118 692 128 789 l 86 692 q 90 743 89 714 q 90 797 90 772 q 88 881 90 832 q 81 983 86 931 q 254 980 158 981 q 426 979 350 979 q 597 980 506 979 q 764 983 688 981 m 671 1286 l 678 1267 q 519 1186 588 1236 q 418 1083 450 1136 l 393 1083 q 292 1186 361 1136 q 133 1267 224 1236 l 140 1286 q 305 1242 224 1268 q 433 1189 386 1215 q 539 1242 474 1215 q 671 1286 604 1268 z "},"F":{"ha":790,"x_min":58,"x_max":751,"o":"m 751 983 q 744 881 746 931 q 742 806 742 832 q 743 743 742 772 q 746 692 744 714 l 714 692 q 688 845 704 789 q 629 926 671 901 q 500 951 588 951 l 413 951 q 341 944 365 951 q 308 912 317 936 q 300 836 300 888 l 300 147 q 310 72 300 97 q 351 39 321 47 q 440 28 382 31 l 440 0 q 349 3 404 3 q 236 4 293 4 q 135 3 182 4 q 58 0 88 3 l 58 28 q 130 39 106 31 q 163 72 154 47 q 171 147 171 97 l 171 836 q 163 912 171 888 q 130 945 154 936 q 58 956 106 954 l 58 983 q 204 981 126 982 q 351 979 282 979 q 461 979 419 979 q 606 980 525 979 q 751 983 688 981 m 536 494 q 536 481 536 494 q 536 467 536 467 l 258 467 q 258 481 258 467 q 258 494 258 494 l 536 494 m 563 678 q 558 557 557 599 q 558 481 558 515 q 560 404 558 446 q 567 283 561 363 l 535 283 q 522 370 529 328 q 488 440 514 413 q 401 467 463 467 l 401 494 q 487 526 463 494 q 518 601 511 558 q 531 678 525 644 l 563 678 z "},"G":{"ha":976,"x_min":75,"x_max":929,"o":"m 522 1003 q 668 976 613 1003 q 772 913 724 949 q 800 899 790 899 q 835 983 826 899 l 867 983 q 863 858 864 932 q 861 664 861 785 l 829 664 q 806 776 819 722 q 760 869 792 831 q 654 949 719 921 q 519 978 589 978 q 394 944 450 978 q 297 846 338 910 q 235 692 257 782 q 214 490 214 603 q 294 124 214 240 q 544 8 375 8 q 631 23 594 8 q 689 51 668 38 q 722 85 715 69 q 729 128 729 101 l 729 261 q 718 346 729 318 q 677 383 707 374 q 589 394 647 393 l 589 422 q 647 420 614 421 q 717 419 681 419 q 785 418 754 418 q 867 419 831 418 q 929 422 904 421 l 929 394 q 871 372 883 392 q 858 275 858 353 l 858 0 l 831 0 q 820 51 829 24 q 793 79 811 79 q 776 75 785 79 q 747 56 768 71 q 650 1 701 21 q 531 -19 599 -19 q 195 112 315 -19 q 75 475 75 243 q 133 756 75 638 q 292 938 192 874 q 522 1003 393 1003 z "},"Ǵ":{"ha":976,"x_min":75,"x_max":929,"o":"m 522 1003 q 668 976 613 1003 q 772 913 724 949 q 800 899 790 899 q 835 983 826 899 l 867 983 q 863 858 864 932 q 861 664 861 785 l 829 664 q 806 776 819 722 q 760 869 792 831 q 654 949 719 921 q 519 978 589 978 q 394 944 450 978 q 297 846 338 910 q 235 692 257 782 q 214 490 214 603 q 294 124 214 240 q 544 8 375 8 q 631 23 594 8 q 689 51 668 38 q 722 85 715 69 q 729 128 729 101 l 729 261 q 718 346 729 318 q 677 383 707 374 q 589 394 647 393 l 589 422 q 647 420 614 421 q 717 419 681 419 q 785 418 754 418 q 867 419 831 418 q 929 422 904 421 l 929 394 q 871 372 883 392 q 858 275 858 353 l 858 0 l 831 0 q 820 51 829 24 q 793 79 811 79 q 776 75 785 79 q 747 56 768 71 q 650 1 701 21 q 531 -19 599 -19 q 195 112 315 -19 q 75 475 75 243 q 133 756 75 638 q 292 938 192 874 q 522 1003 393 1003 m 650 1286 q 701 1299 678 1304 q 735 1276 724 1294 q 740 1237 746 1258 q 706 1196 735 1215 q 638 1163 676 1178 q 549 1128 600 1149 q 426 1072 499 1108 l 417 1090 q 522 1176 481 1139 q 592 1240 563 1213 q 650 1286 621 1268 z "},"Ğ":{"ha":976,"x_min":75,"x_max":929,"o":"m 522 1003 q 668 976 613 1003 q 772 913 724 949 q 800 899 790 899 q 835 983 826 899 l 867 983 q 863 858 864 932 q 861 664 861 785 l 829 664 q 806 776 819 722 q 760 869 792 831 q 654 949 719 921 q 519 978 589 978 q 394 944 450 978 q 297 846 338 910 q 235 692 257 782 q 214 490 214 603 q 294 124 214 240 q 544 8 375 8 q 631 23 594 8 q 689 51 668 38 q 722 85 715 69 q 729 128 729 101 l 729 261 q 718 346 729 318 q 677 383 707 374 q 589 394 647 393 l 589 422 q 647 420 614 421 q 717 419 681 419 q 785 418 754 418 q 867 419 831 418 q 929 422 904 421 l 929 394 q 871 372 883 392 q 858 275 858 353 l 858 0 l 831 0 q 820 51 829 24 q 793 79 811 79 q 776 75 785 79 q 747 56 768 71 q 650 1 701 21 q 531 -19 599 -19 q 195 112 315 -19 q 75 475 75 243 q 133 756 75 638 q 292 938 192 874 q 522 1003 393 1003 m 761 1263 l 778 1247 q 718 1174 756 1211 q 626 1111 681 1136 q 501 1086 572 1086 q 376 1111 431 1086 q 285 1174 322 1136 q 225 1247 247 1211 l 243 1261 q 338 1201 275 1231 q 501 1172 401 1172 q 665 1202 601 1172 q 761 1263 729 1232 z "},"Ǧ":{"ha":976,"x_min":75,"x_max":929,"o":"m 522 1003 q 668 976 613 1003 q 772 913 724 949 q 800 899 790 899 q 835 983 826 899 l 867 983 q 863 858 864 932 q 861 664 861 785 l 829 664 q 806 776 819 722 q 760 869 792 831 q 654 949 719 921 q 519 978 589 978 q 394 944 450 978 q 297 846 338 910 q 235 692 257 782 q 214 490 214 603 q 294 124 214 240 q 544 8 375 8 q 631 23 594 8 q 689 51 668 38 q 722 85 715 69 q 729 128 729 101 l 729 261 q 718 346 729 318 q 677 383 707 374 q 589 394 647 393 l 589 422 q 647 420 614 421 q 717 419 681 419 q 785 418 754 418 q 867 419 831 418 q 929 422 904 421 l 929 394 q 871 372 883 392 q 858 275 858 353 l 858 0 l 831 0 q 820 51 829 24 q 793 79 811 79 q 776 75 785 79 q 747 56 768 71 q 650 1 701 21 q 531 -19 599 -19 q 195 112 315 -19 q 75 475 75 243 q 133 756 75 638 q 292 938 192 874 q 522 1003 393 1003 m 763 1286 l 769 1267 q 610 1186 679 1236 q 510 1083 542 1136 l 485 1083 q 384 1186 453 1136 q 225 1267 315 1236 l 232 1286 q 397 1242 315 1268 q 525 1189 478 1215 q 631 1242 565 1215 q 763 1286 696 1268 z "},"Ĝ":{"ha":976,"x_min":75,"x_max":929,"o":"m 522 1003 q 668 976 613 1003 q 772 913 724 949 q 800 899 790 899 q 835 983 826 899 l 867 983 q 863 858 864 932 q 861 664 861 785 l 829 664 q 806 776 819 722 q 760 869 792 831 q 654 949 719 921 q 519 978 589 978 q 394 944 450 978 q 297 846 338 910 q 235 692 257 782 q 214 490 214 603 q 294 124 214 240 q 544 8 375 8 q 631 23 594 8 q 689 51 668 38 q 722 85 715 69 q 729 128 729 101 l 729 261 q 718 346 729 318 q 677 383 707 374 q 589 394 647 393 l 589 422 q 647 420 614 421 q 717 419 681 419 q 785 418 754 418 q 867 419 831 418 q 929 422 904 421 l 929 394 q 871 372 883 392 q 858 275 858 353 l 858 0 l 831 0 q 820 51 829 24 q 793 79 811 79 q 776 75 785 79 q 747 56 768 71 q 650 1 701 21 q 531 -19 599 -19 q 195 112 315 -19 q 75 475 75 243 q 133 756 75 638 q 292 938 192 874 q 522 1003 393 1003 m 514 1272 q 615 1170 546 1219 q 774 1089 683 1121 l 767 1069 q 603 1114 683 1088 q 474 1167 522 1140 q 369 1114 435 1140 q 236 1069 303 1088 l 229 1089 q 388 1170 319 1121 q 489 1272 457 1219 l 514 1272 z "},"Ģ":{"ha":976,"x_min":75,"x_max":929,"o":"m 522 1003 q 668 976 613 1003 q 772 913 724 949 q 800 899 790 899 q 835 983 826 899 l 867 983 q 863 858 864 932 q 861 664 861 785 l 829 664 q 806 776 819 722 q 760 869 792 831 q 654 949 719 921 q 519 978 589 978 q 394 944 450 978 q 297 846 338 910 q 235 692 257 782 q 214 490 214 603 q 294 124 214 240 q 544 8 375 8 q 631 23 594 8 q 689 51 668 38 q 722 85 715 69 q 729 128 729 101 l 729 261 q 718 346 729 318 q 677 383 707 374 q 589 394 647 393 l 589 422 q 647 420 614 421 q 717 419 681 419 q 785 418 754 418 q 867 419 831 418 q 929 422 904 421 l 929 394 q 871 372 883 392 q 858 275 858 353 l 858 0 l 831 0 q 820 51 829 24 q 793 79 811 79 q 776 75 785 79 q 747 56 768 71 q 650 1 701 21 q 531 -19 599 -19 q 195 112 315 -19 q 75 475 75 243 q 133 756 75 638 q 292 938 192 874 q 522 1003 393 1003 z "},"Ġ":{"ha":976,"x_min":75,"x_max":929,"o":"m 522 1003 q 668 976 613 1003 q 772 913 724 949 q 800 899 790 899 q 835 983 826 899 l 867 983 q 863 858 864 932 q 861 664 861 785 l 829 664 q 806 776 819 722 q 760 869 792 831 q 654 949 719 921 q 519 978 589 978 q 394 944 450 978 q 297 846 338 910 q 235 692 257 782 q 214 490 214 603 q 294 124 214 240 q 544 8 375 8 q 631 23 594 8 q 689 51 668 38 q 722 85 715 69 q 729 128 729 101 l 729 261 q 718 346 729 318 q 677 383 707 374 q 589 394 647 393 l 589 422 q 647 420 614 421 q 717 419 681 419 q 785 418 754 418 q 867 419 831 418 q 929 422 904 421 l 929 394 q 871 372 883 392 q 858 275 858 353 l 858 0 l 831 0 q 820 51 829 24 q 793 79 811 79 q 776 75 785 79 q 747 56 768 71 q 650 1 701 21 q 531 -19 599 -19 q 195 112 315 -19 q 75 475 75 243 q 133 756 75 638 q 292 938 192 874 q 522 1003 393 1003 m 501 1250 q 564 1224 538 1250 q 590 1161 590 1197 q 564 1099 590 1125 q 501 1072 538 1072 q 439 1099 465 1072 q 413 1161 413 1125 q 439 1224 413 1197 q 501 1250 465 1250 z "},"Ǥ":{"ha":976,"x_min":75,"x_max":976,"o":"m 522 1003 q 668 976 613 1003 q 772 913 724 949 q 800 899 790 899 q 835 983 826 899 l 867 983 q 863 858 864 932 q 861 664 861 785 l 829 664 q 806 776 819 722 q 760 869 792 831 q 654 949 719 921 q 519 978 589 978 q 394 944 450 978 q 297 846 338 910 q 235 692 257 782 q 214 490 214 603 q 294 124 214 240 q 544 8 375 8 q 631 23 594 8 q 689 51 668 38 q 722 85 715 69 q 729 128 729 101 l 729 289 q 718 374 729 346 q 677 411 707 401 q 589 422 647 421 l 589 450 q 647 448 614 449 q 717 447 681 447 q 785 446 754 446 q 867 447 831 446 q 929 450 904 449 l 929 422 q 871 400 883 419 q 858 303 858 381 l 858 0 l 831 0 q 820 51 829 24 q 793 79 811 79 q 776 75 785 79 q 747 56 768 71 q 650 1 701 21 q 531 -19 599 -19 q 195 112 315 -19 q 75 475 75 243 q 133 756 75 638 q 292 938 192 874 q 522 1003 393 1003 m 567 233 l 567 261 l 976 261 l 976 233 l 567 233 z "},"H":{"ha":1051,"x_min":58,"x_max":993,"o":"m 639 0 l 639 28 q 710 39 686 31 q 743 72 735 47 q 751 147 751 97 l 751 836 q 743 912 751 888 q 710 945 735 936 q 639 956 686 954 l 639 983 q 719 981 671 982 q 815 979 768 979 q 917 981 869 979 q 993 983 964 982 l 993 956 q 922 945 946 954 q 889 912 897 936 q 881 836 881 888 l 881 147 q 889 72 881 97 q 922 39 897 47 q 993 28 946 31 l 993 0 q 917 3 964 3 q 815 4 869 4 q 719 3 768 4 q 639 0 671 3 m 58 0 l 58 28 q 130 39 106 31 q 163 72 154 47 q 171 147 171 97 l 171 836 q 163 912 171 888 q 130 945 154 936 q 58 956 106 954 l 58 983 q 135 981 88 982 q 236 979 182 979 q 333 981 285 979 q 413 983 381 982 l 413 956 q 341 945 365 954 q 308 912 317 936 q 300 836 300 888 l 300 147 q 308 72 300 97 q 341 39 317 47 q 413 28 365 31 l 413 0 q 333 3 381 3 q 236 4 285 4 q 135 3 182 4 q 58 0 88 3 m 251 481 l 251 508 l 800 508 l 800 481 l 251 481 z "},"Ħ":{"ha":1051,"x_min":58,"x_max":993,"o":"m 639 0 l 639 28 q 710 39 686 31 q 743 72 735 47 q 751 147 751 97 l 751 836 q 743 912 751 888 q 710 945 735 936 q 639 956 686 954 l 639 983 q 719 981 671 982 q 815 979 768 979 q 917 981 869 979 q 993 983 964 982 l 993 956 q 922 945 946 954 q 889 912 897 936 q 881 836 881 888 l 881 147 q 889 72 881 97 q 922 39 897 47 q 993 28 946 31 l 993 0 q 917 3 964 3 q 815 4 869 4 q 719 3 768 4 q 639 0 671 3 m 58 0 l 58 28 q 130 39 106 31 q 163 72 154 47 q 171 147 171 97 l 171 836 q 163 912 171 888 q 130 945 154 936 q 58 956 106 954 l 58 983 q 135 981 88 982 q 236 979 182 979 q 333 981 285 979 q 413 983 381 982 l 413 956 q 341 945 365 954 q 308 912 317 936 q 300 836 300 888 l 300 147 q 308 72 300 97 q 341 39 317 47 q 413 28 365 31 l 413 0 q 333 3 381 3 q 236 4 285 4 q 135 3 182 4 q 58 0 88 3 m 251 481 l 251 508 l 800 508 l 800 481 l 251 481 m 993 740 l 993 713 l 58 713 l 58 740 l 993 740 z "},"Ȟ":{"ha":1051,"x_min":58,"x_max":993,"o":"m 639 0 l 639 28 q 710 39 686 31 q 743 72 735 47 q 751 147 751 97 l 751 836 q 743 912 751 888 q 710 945 735 936 q 639 956 686 954 l 639 983 q 719 981 671 982 q 815 979 768 979 q 917 981 869 979 q 993 983 964 982 l 993 956 q 922 945 946 954 q 889 912 897 936 q 881 836 881 888 l 881 147 q 889 72 881 97 q 922 39 897 47 q 993 28 946 31 l 993 0 q 917 3 964 3 q 815 4 869 4 q 719 3 768 4 q 639 0 671 3 m 58 0 l 58 28 q 130 39 106 31 q 163 72 154 47 q 171 147 171 97 l 171 836 q 163 912 171 888 q 130 945 154 936 q 58 956 106 954 l 58 983 q 135 981 88 982 q 236 979 182 979 q 333 981 285 979 q 413 983 381 982 l 413 956 q 341 945 365 954 q 308 912 317 936 q 300 836 300 888 l 300 147 q 308 72 300 97 q 341 39 317 47 q 413 28 365 31 l 413 0 q 333 3 381 3 q 236 4 285 4 q 135 3 182 4 q 58 0 88 3 m 251 481 l 251 508 l 800 508 l 800 481 l 251 481 m 790 1286 l 797 1267 q 638 1186 707 1236 q 538 1083 569 1136 l 513 1083 q 412 1186 481 1136 q 253 1267 343 1236 l 260 1286 q 424 1242 343 1268 q 553 1189 506 1215 q 658 1242 593 1215 q 790 1286 724 1268 z "},"Ĥ":{"ha":1051,"x_min":58,"x_max":993,"o":"m 639 0 l 639 28 q 710 39 686 31 q 743 72 735 47 q 751 147 751 97 l 751 836 q 743 912 751 888 q 710 945 735 936 q 639 956 686 954 l 639 983 q 719 981 671 982 q 815 979 768 979 q 917 981 869 979 q 993 983 964 982 l 993 956 q 922 945 946 954 q 889 912 897 936 q 881 836 881 888 l 881 147 q 889 72 881 97 q 922 39 897 47 q 993 28 946 31 l 993 0 q 917 3 964 3 q 815 4 869 4 q 719 3 768 4 q 639 0 671 3 m 58 0 l 58 28 q 130 39 106 31 q 163 72 154 47 q 171 147 171 97 l 171 836 q 163 912 171 888 q 130 945 154 936 q 58 956 106 954 l 58 983 q 135 981 88 982 q 236 979 182 979 q 333 981 285 979 q 413 983 381 982 l 413 956 q 341 945 365 954 q 308 912 317 936 q 300 836 300 888 l 300 147 q 308 72 300 97 q 341 39 317 47 q 413 28 365 31 l 413 0 q 333 3 381 3 q 236 4 285 4 q 135 3 182 4 q 58 0 88 3 m 251 481 l 251 508 l 800 508 l 800 481 l 251 481 m 542 1272 q 642 1170 574 1219 q 801 1089 711 1121 l 794 1069 q 631 1114 711 1088 q 501 1167 550 1140 q 397 1114 463 1140 q 264 1069 331 1088 l 257 1089 q 416 1170 347 1121 q 517 1272 485 1219 l 542 1272 z "},"I":{"ha":471,"x_min":58,"x_max":413,"o":"m 413 983 l 413 956 q 341 945 365 954 q 308 912 317 936 q 300 836 300 888 l 300 147 q 308 72 300 97 q 341 39 317 47 q 413 28 365 31 l 413 0 q 333 3 381 3 q 236 4 285 4 q 135 3 182 4 q 58 0 88 3 l 58 28 q 130 39 106 31 q 163 72 154 47 q 171 147 171 97 l 171 836 q 163 912 171 888 q 130 945 154 936 q 58 956 106 954 l 58 983 q 135 981 88 982 q 236 979 182 979 q 333 981 285 979 q 413 983 381 982 z "},"Ĳ":{"ha":899,"x_min":58,"x_max":850,"o":"m 413 983 l 413 956 q 341 945 365 954 q 308 912 317 936 q 300 836 300 888 l 300 147 q 308 72 300 97 q 341 39 317 47 q 413 28 365 31 l 413 0 q 333 3 381 3 q 236 4 285 4 q 135 3 182 4 q 58 0 88 3 l 58 28 q 130 39 106 31 q 163 72 154 47 q 171 147 171 97 l 171 836 q 163 912 171 888 q 130 945 154 936 q 58 956 106 954 l 58 983 q 135 981 88 982 q 236 979 182 979 q 333 981 285 979 q 413 983 381 982 m 418 -261 l 418 -235 q 523 -204 481 -233 q 587 -108 565 -175 q 608 72 608 -40 l 608 836 q 600 912 608 888 q 567 945 592 936 q 496 956 543 954 l 496 983 q 572 981 525 982 q 671 979 619 979 q 770 981 722 979 q 850 983 818 982 l 850 956 q 778 945 803 954 q 746 912 754 936 q 738 836 738 888 l 738 328 q 736 204 738 271 q 730 75 735 138 q 714 -35 725 13 q 615 -197 690 -132 q 418 -261 539 -261 z "},"Í":{"ha":471,"x_min":58,"x_max":481,"o":"m 413 983 l 413 956 q 341 945 365 954 q 308 912 317 936 q 300 836 300 888 l 300 147 q 308 72 300 97 q 341 39 317 47 q 413 28 365 31 l 413 0 q 333 3 381 3 q 236 4 285 4 q 135 3 182 4 q 58 0 88 3 l 58 28 q 130 39 106 31 q 163 72 154 47 q 171 147 171 97 l 171 836 q 163 912 171 888 q 130 945 154 936 q 58 956 106 954 l 58 983 q 135 981 88 982 q 236 979 182 979 q 333 981 285 979 q 413 983 381 982 m 385 1286 q 435 1299 413 1304 q 469 1276 458 1294 q 475 1237 481 1258 q 440 1196 469 1215 q 373 1163 411 1178 q 284 1128 335 1149 q 161 1072 233 1108 l 151 1090 q 256 1176 215 1139 q 326 1240 297 1213 q 385 1286 356 1268 z "},"Ĭ":{"ha":471,"x_min":-40,"x_max":513,"o":"m 413 983 l 413 956 q 341 945 365 954 q 308 912 317 936 q 300 836 300 888 l 300 147 q 308 72 300 97 q 341 39 317 47 q 413 28 365 31 l 413 0 q 333 3 381 3 q 236 4 285 4 q 135 3 182 4 q 58 0 88 3 l 58 28 q 130 39 106 31 q 163 72 154 47 q 171 147 171 97 l 171 836 q 163 912 171 888 q 130 945 154 936 q 58 956 106 954 l 58 983 q 135 981 88 982 q 236 979 182 979 q 333 981 285 979 q 413 983 381 982 m 496 1263 l 513 1247 q 453 1174 490 1211 q 361 1111 415 1136 q 236 1086 307 1086 q 111 1111 165 1086 q 19 1174 57 1136 q -40 1247 -18 1211 l -22 1261 q 73 1201 10 1231 q 236 1172 136 1172 q 400 1202 336 1172 q 496 1263 464 1232 z "},"Î":{"ha":471,"x_min":-36,"x_max":508,"o":"m 413 983 l 413 956 q 341 945 365 954 q 308 912 317 936 q 300 836 300 888 l 300 147 q 308 72 300 97 q 341 39 317 47 q 413 28 365 31 l 413 0 q 333 3 381 3 q 236 4 285 4 q 135 3 182 4 q 58 0 88 3 l 58 28 q 130 39 106 31 q 163 72 154 47 q 171 147 171 97 l 171 836 q 163 912 171 888 q 130 945 154 936 q 58 956 106 954 l 58 983 q 135 981 88 982 q 236 979 182 979 q 333 981 285 979 q 413 983 381 982 m 249 1272 q 349 1170 281 1219 q 508 1089 418 1121 l 501 1069 q 338 1114 418 1088 q 208 1167 257 1140 q 103 1114 169 1140 q -29 1069 38 1088 l -36 1089 q 123 1170 54 1121 q 224 1272 192 1219 l 249 1272 z "},"Ï":{"ha":471,"x_min":8,"x_max":464,"o":"m 413 983 l 413 956 q 341 945 365 954 q 308 912 317 936 q 300 836 300 888 l 300 147 q 308 72 300 97 q 341 39 317 47 q 413 28 365 31 l 413 0 q 333 3 381 3 q 236 4 285 4 q 135 3 182 4 q 58 0 88 3 l 58 28 q 130 39 106 31 q 163 72 154 47 q 171 147 171 97 l 171 836 q 163 912 171 888 q 130 945 154 936 q 58 956 106 954 l 58 983 q 135 981 88 982 q 236 979 182 979 q 333 981 285 979 q 413 983 381 982 m 383 1233 q 440 1209 415 1233 q 464 1153 464 1185 q 440 1096 464 1119 q 383 1072 415 1072 q 326 1096 350 1072 q 303 1153 303 1119 q 326 1209 303 1185 q 383 1233 350 1233 m 89 1233 q 145 1209 121 1233 q 169 1153 169 1185 q 145 1096 169 1119 q 89 1072 121 1072 q 32 1096 56 1072 q 8 1153 8 1119 q 32 1209 8 1185 q 89 1233 56 1233 z "},"İ":{"ha":471,"x_min":58,"x_max":413,"o":"m 413 983 l 413 956 q 341 945 365 954 q 308 912 317 936 q 300 836 300 888 l 300 147 q 308 72 300 97 q 341 39 317 47 q 413 28 365 31 l 413 0 q 333 3 381 3 q 236 4 285 4 q 135 3 182 4 q 58 0 88 3 l 58 28 q 130 39 106 31 q 163 72 154 47 q 171 147 171 97 l 171 836 q 163 912 171 888 q 130 945 154 936 q 58 956 106 954 l 58 983 q 135 981 88 982 q 236 979 182 979 q 333 981 285 979 q 413 983 381 982 m 236 1332 q 299 1306 272 1332 q 325 1243 325 1279 q 299 1181 325 1207 q 236 1154 272 1154 q 174 1181 200 1154 q 147 1243 147 1207 q 174 1306 147 1279 q 236 1332 200 1332 z "},"Ị":{"ha":471,"x_min":58,"x_max":413,"o":"m 413 983 l 413 956 q 341 945 365 954 q 308 912 317 936 q 300 836 300 888 l 300 147 q 308 72 300 97 q 341 39 317 47 q 413 28 365 31 l 413 0 q 333 3 381 3 q 236 4 285 4 q 135 3 182 4 q 58 0 88 3 l 58 28 q 130 39 106 31 q 163 72 154 47 q 171 147 171 97 l 171 836 q 163 912 171 888 q 130 945 154 936 q 58 956 106 954 l 58 983 q 135 981 88 982 q 236 979 182 979 q 333 981 285 979 q 413 983 381 982 m 236 -251 q 179 -230 203 -251 q 156 -174 156 -208 q 177 -119 156 -142 q 236 -96 199 -96 q 295 -119 274 -96 q 317 -175 317 -143 q 292 -231 317 -210 q 236 -251 268 -251 z "},"Ì":{"ha":471,"x_min":0,"x_max":413,"o":"m 413 983 l 413 956 q 341 945 365 954 q 308 912 317 936 q 300 836 300 888 l 300 147 q 308 72 300 97 q 341 39 317 47 q 413 28 365 31 l 413 0 q 333 3 381 3 q 236 4 285 4 q 135 3 182 4 q 58 0 88 3 l 58 28 q 130 39 106 31 q 163 72 154 47 q 171 147 171 97 l 171 836 q 163 912 171 888 q 130 945 154 936 q 58 956 106 954 l 58 983 q 135 981 88 982 q 236 979 182 979 q 333 981 285 979 q 413 983 381 982 m 96 1286 q 154 1240 125 1268 q 224 1176 183 1213 q 329 1090 265 1139 l 319 1072 q 197 1128 249 1108 q 108 1163 144 1149 q 40 1196 71 1178 q 6 1237 11 1215 q 11 1276 0 1258 q 45 1299 22 1294 q 96 1286 68 1304 z "},"Ỉ":{"ha":471,"x_min":58,"x_max":413,"o":"m 413 983 l 413 956 q 341 945 365 954 q 308 912 317 936 q 300 836 300 888 l 300 147 q 308 72 300 97 q 341 39 317 47 q 413 28 365 31 l 413 0 q 333 3 381 3 q 236 4 285 4 q 135 3 182 4 q 58 0 88 3 l 58 28 q 130 39 106 31 q 163 72 154 47 q 171 147 171 97 l 171 836 q 163 912 171 888 q 130 945 154 936 q 58 956 106 954 l 58 983 q 135 981 88 982 q 236 979 182 979 q 333 981 285 979 q 413 983 381 982 m 222 1064 l 222 1140 q 292 1186 271 1160 q 314 1244 314 1213 q 285 1305 314 1285 q 217 1325 257 1325 q 181 1321 200 1325 q 150 1303 161 1317 q 194 1246 194 1293 q 176 1201 194 1217 q 132 1185 158 1185 q 89 1201 106 1185 q 72 1243 72 1217 q 88 1290 72 1269 q 126 1325 104 1311 q 173 1344 146 1336 q 243 1353 200 1353 q 319 1343 281 1353 q 383 1312 357 1333 q 410 1253 410 1290 q 367 1176 410 1208 q 250 1128 324 1143 l 250 1064 l 222 1064 z "},"Ī":{"ha":471,"x_min":-8,"x_max":481,"o":"m 413 983 l 413 956 q 341 945 365 954 q 308 912 317 936 q 300 836 300 888 l 300 147 q 308 72 300 97 q 341 39 317 47 q 413 28 365 31 l 413 0 q 333 3 381 3 q 236 4 285 4 q 135 3 182 4 q 58 0 88 3 l 58 28 q 130 39 106 31 q 163 72 154 47 q 171 147 171 97 l 171 836 q 163 912 171 888 q 130 945 154 936 q 58 956 106 954 l 58 983 q 135 981 88 982 q 236 979 182 979 q 333 981 285 979 q 413 983 381 982 m 481 1172 l 481 1138 l -8 1138 l -8 1172 l 481 1172 z "},"Į":{"ha":471,"x_min":58,"x_max":435,"o":"m 413 983 l 413 956 q 341 945 365 954 q 308 912 317 936 q 300 836 300 888 l 300 147 q 308 72 300 97 q 341 39 317 47 q 413 28 365 31 l 413 0 q 333 3 381 3 q 236 4 285 4 q 135 3 182 4 q 58 0 88 3 l 58 28 q 130 39 106 31 q 163 72 154 47 q 171 147 171 97 l 171 836 q 163 912 171 888 q 130 945 154 936 q 58 956 106 954 l 58 983 q 135 981 88 982 q 236 979 182 979 q 333 981 285 979 q 413 983 381 982 m 413 4 q 300 -58 331 -18 q 269 -133 269 -97 q 285 -177 269 -160 q 329 -194 301 -194 q 378 -181 356 -194 q 414 -149 400 -167 l 435 -167 q 363 -238 403 -215 q 278 -261 324 -261 q 198 -236 228 -261 q 168 -171 168 -211 q 218 -72 168 -117 q 360 4 268 -26 l 413 4 z "},"Ĩ":{"ha":471,"x_min":-31,"x_max":500,"o":"m 413 983 l 413 956 q 341 945 365 954 q 308 912 317 936 q 300 836 300 888 l 300 147 q 308 72 300 97 q 341 39 317 47 q 413 28 365 31 l 413 0 q 333 3 381 3 q 236 4 285 4 q 135 3 182 4 q 58 0 88 3 l 58 28 q 130 39 106 31 q 163 72 154 47 q 171 147 171 97 l 171 836 q 163 912 171 888 q 130 945 154 936 q 58 956 106 954 l 58 983 q 135 981 88 982 q 236 979 182 979 q 333 981 285 979 q 413 983 381 982 m 124 1253 q 196 1237 163 1253 q 261 1199 229 1221 q 325 1162 293 1178 q 393 1146 357 1146 q 444 1163 421 1146 q 479 1224 467 1179 l 500 1219 q 449 1112 494 1151 q 346 1072 404 1072 q 274 1088 307 1072 q 208 1126 240 1104 q 144 1163 176 1147 q 76 1179 113 1179 q 25 1163 47 1179 q -10 1101 3 1146 l -31 1106 q 21 1214 -24 1175 q 124 1253 65 1253 z "},"J":{"ha":453,"x_min":-28,"x_max":404,"o":"m -28 -261 l -28 -235 q 77 -204 35 -233 q 141 -108 119 -175 q 163 72 163 -40 l 163 836 q 154 912 163 888 q 122 945 146 936 q 50 956 97 954 l 50 983 q 126 981 79 982 q 225 979 174 979 q 324 981 276 979 q 404 983 372 982 l 404 956 q 333 945 357 954 q 300 912 308 936 q 292 836 292 888 l 292 328 q 290 204 292 271 q 284 75 289 138 q 268 -35 279 13 q 169 -197 244 -132 q -28 -261 93 -261 z "},"Ĵ":{"ha":453,"x_min":-44,"x_max":500,"o":"m -28 -261 l -28 -235 q 77 -204 35 -233 q 141 -108 119 -175 q 163 72 163 -40 l 163 836 q 154 912 163 888 q 122 945 146 936 q 50 956 97 954 l 50 983 q 126 981 79 982 q 225 979 174 979 q 324 981 276 979 q 404 983 372 982 l 404 956 q 333 945 357 954 q 300 912 308 936 q 292 836 292 888 l 292 328 q 290 204 292 271 q 284 75 289 138 q 268 -35 279 13 q 169 -197 244 -132 q -28 -261 93 -261 m 240 1272 q 341 1170 272 1219 q 500 1089 410 1121 l 493 1069 q 329 1114 410 1088 q 200 1167 249 1140 q 95 1114 161 1140 q -37 1069 29 1088 l -44 1089 q 115 1170 46 1121 q 215 1272 183 1219 l 240 1272 z "},"K":{"ha":910,"x_min":58,"x_max":908,"o":"m 854 983 l 854 956 q 771 928 811 950 q 690 854 731 906 l 422 511 l 453 579 l 786 113 q 838 58 810 78 q 908 28 865 39 l 908 0 q 826 3 875 3 q 742 4 776 4 q 684 3 718 4 q 599 0 650 3 l 599 28 q 658 44 646 31 q 649 90 671 58 l 446 396 q 397 460 418 439 q 352 489 375 482 q 294 497 329 496 l 294 525 q 392 548 353 526 q 458 603 432 569 l 592 772 q 654 871 638 831 q 653 933 671 911 q 576 956 635 954 l 576 983 q 658 981 617 982 q 736 979 700 979 q 854 983 813 979 m 413 983 l 413 956 q 341 945 365 954 q 308 912 317 936 q 300 836 300 888 l 300 147 q 308 72 300 97 q 341 39 317 47 q 413 28 365 31 l 413 0 q 333 3 381 3 q 236 4 285 4 q 135 3 182 4 q 58 0 88 3 l 58 28 q 130 39 106 31 q 163 72 154 47 q 171 147 171 97 l 171 836 q 163 912 171 888 q 130 945 154 936 q 58 956 106 954 l 58 983 q 135 981 88 982 q 236 979 182 979 q 333 981 285 979 q 413 983 381 982 z "},"Ǩ":{"ha":910,"x_min":58,"x_max":908,"o":"m 854 983 l 854 956 q 771 928 811 950 q 690 854 731 906 l 422 511 l 453 579 l 786 113 q 838 58 810 78 q 908 28 865 39 l 908 0 q 826 3 875 3 q 742 4 776 4 q 684 3 718 4 q 599 0 650 3 l 599 28 q 658 44 646 31 q 649 90 671 58 l 446 396 q 397 460 418 439 q 352 489 375 482 q 294 497 329 496 l 294 525 q 392 548 353 526 q 458 603 432 569 l 592 772 q 654 871 638 831 q 653 933 671 911 q 576 956 635 954 l 576 983 q 658 981 617 982 q 736 979 700 979 q 854 983 813 979 m 413 983 l 413 956 q 341 945 365 954 q 308 912 317 936 q 300 836 300 888 l 300 147 q 308 72 300 97 q 341 39 317 47 q 413 28 365 31 l 413 0 q 333 3 381 3 q 236 4 285 4 q 135 3 182 4 q 58 0 88 3 l 58 28 q 130 39 106 31 q 163 72 154 47 q 171 147 171 97 l 171 836 q 163 912 171 888 q 130 945 154 936 q 58 956 106 954 l 58 983 q 135 981 88 982 q 236 979 182 979 q 333 981 285 979 q 413 983 381 982 m 740 1286 l 747 1267 q 588 1186 657 1236 q 488 1083 519 1136 l 463 1083 q 362 1186 431 1136 q 203 1267 293 1236 l 210 1286 q 374 1242 293 1268 q 503 1189 456 1215 q 608 1242 543 1215 q 740 1286 674 1268 z "},"Ķ":{"ha":910,"x_min":58,"x_max":908,"o":"m 854 983 l 854 956 q 771 928 811 950 q 690 854 731 906 l 422 511 l 453 579 l 786 113 q 838 58 810 78 q 908 28 865 39 l 908 0 q 826 3 875 3 q 742 4 776 4 q 684 3 718 4 q 599 0 650 3 l 599 28 q 658 44 646 31 q 649 90 671 58 l 446 396 q 397 460 418 439 q 352 489 375 482 q 294 497 329 496 l 294 525 q 392 548 353 526 q 458 603 432 569 l 592 772 q 654 871 638 831 q 653 933 671 911 q 576 956 635 954 l 576 983 q 658 981 617 982 q 736 979 700 979 q 854 983 813 979 m 413 983 l 413 956 q 341 945 365 954 q 308 912 317 936 q 300 836 300 888 l 300 147 q 308 72 300 97 q 341 39 317 47 q 413 28 365 31 l 413 0 q 333 3 381 3 q 236 4 285 4 q 135 3 182 4 q 58 0 88 3 l 58 28 q 130 39 106 31 q 163 72 154 47 q 171 147 171 97 l 171 836 q 163 912 171 888 q 130 945 154 936 q 58 956 106 954 l 58 983 q 135 981 88 982 q 236 979 182 979 q 333 981 285 979 q 413 983 381 982 z "},"L":{"ha":817,"x_min":58,"x_max":779,"o":"m 413 983 l 413 956 q 341 945 365 954 q 308 912 317 936 q 300 836 300 888 l 300 147 q 308 72 300 97 q 341 40 317 47 q 413 32 365 32 l 514 32 q 647 57 601 32 q 712 139 692 82 q 742 292 732 196 l 774 292 q 769 178 769 249 q 772 102 769 151 q 779 0 774 53 q 619 3 708 3 q 461 4 531 4 q 351 4 419 4 q 204 3 282 4 q 58 0 126 3 l 58 28 q 130 39 106 31 q 163 72 154 47 q 171 147 171 97 l 171 836 q 163 912 171 888 q 130 945 154 936 q 58 956 106 954 l 58 983 q 135 981 88 982 q 236 979 182 979 q 333 981 285 979 q 413 983 381 982 z "},"Ĺ":{"ha":817,"x_min":58,"x_max":779,"o":"m 413 983 l 413 956 q 341 945 365 954 q 308 912 317 936 q 300 836 300 888 l 300 147 q 308 72 300 97 q 341 40 317 47 q 413 32 365 32 l 514 32 q 647 57 601 32 q 712 139 692 82 q 742 292 732 196 l 774 292 q 769 178 769 249 q 772 102 769 151 q 779 0 774 53 q 619 3 708 3 q 461 4 531 4 q 351 4 419 4 q 204 3 282 4 q 58 0 126 3 l 58 28 q 130 39 106 31 q 163 72 154 47 q 171 147 171 97 l 171 836 q 163 912 171 888 q 130 945 154 936 q 58 956 106 954 l 58 983 q 135 981 88 982 q 236 979 182 979 q 333 981 285 979 q 413 983 381 982 m 385 1286 q 435 1299 413 1304 q 469 1276 458 1294 q 475 1237 481 1258 q 440 1196 469 1215 q 373 1163 411 1178 q 284 1128 335 1149 q 161 1072 233 1108 l 151 1090 q 256 1176 215 1139 q 326 1240 297 1213 q 385 1286 356 1268 z "},"Ľ":{"ha":817,"x_min":58,"x_max":779,"o":"m 413 983 l 413 956 q 341 945 365 954 q 308 912 317 936 q 300 836 300 888 l 300 147 q 308 72 300 97 q 341 40 317 47 q 413 32 365 32 l 514 32 q 647 57 601 32 q 712 139 692 82 q 742 292 732 196 l 774 292 q 769 178 769 249 q 772 102 769 151 q 779 0 774 53 q 619 3 708 3 q 461 4 531 4 q 351 4 419 4 q 204 3 282 4 q 58 0 126 3 l 58 28 q 130 39 106 31 q 163 72 154 47 q 171 147 171 97 l 171 836 q 163 912 171 888 q 130 945 154 936 q 58 956 106 954 l 58 983 q 135 981 88 982 q 236 979 182 979 q 333 981 285 979 q 413 983 381 982 m 654 992 q 659 969 657 985 q 661 942 661 954 q 628 831 661 897 q 540 664 596 764 l 521 669 q 543 827 538 776 q 549 899 549 878 q 541 940 549 926 q 507 954 533 954 l 507 983 q 592 981 560 978 q 654 992 625 985 z "},"Ļ":{"ha":817,"x_min":58,"x_max":779,"o":"m 413 983 l 413 956 q 341 945 365 954 q 308 912 317 936 q 300 836 300 888 l 300 147 q 308 72 300 97 q 341 40 317 47 q 413 32 365 32 l 514 32 q 647 57 601 32 q 712 139 692 82 q 742 292 732 196 l 774 292 q 769 178 769 249 q 772 102 769 151 q 779 0 774 53 q 619 3 708 3 q 461 4 531 4 q 351 4 419 4 q 204 3 282 4 q 58 0 126 3 l 58 28 q 130 39 106 31 q 163 72 154 47 q 171 147 171 97 l 171 836 q 163 912 171 888 q 130 945 154 936 q 58 956 106 954 l 58 983 q 135 981 88 982 q 236 979 182 979 q 333 981 285 979 q 413 983 381 982 z "},"Ŀ":{"ha":817,"x_min":58,"x_max":779,"o":"m 413 983 l 413 956 q 341 945 365 954 q 308 912 317 936 q 300 836 300 888 l 300 147 q 308 72 300 97 q 341 40 317 47 q 413 32 365 32 l 514 32 q 647 57 601 32 q 712 139 692 82 q 742 292 732 196 l 774 292 q 769 178 769 249 q 772 102 769 151 q 779 0 774 53 q 619 3 708 3 q 461 4 531 4 q 351 4 419 4 q 204 3 282 4 q 58 0 126 3 l 58 28 q 130 39 106 31 q 163 72 154 47 q 171 147 171 97 l 171 836 q 163 912 171 888 q 130 945 154 936 q 58 956 106 954 l 58 983 q 135 981 88 982 q 236 979 182 979 q 333 981 285 979 q 413 983 381 982 m 653 692 q 715 665 689 692 q 742 603 742 639 q 715 540 742 567 q 653 514 689 514 q 590 540 617 514 q 564 603 564 567 q 590 665 564 639 q 653 692 617 692 z "},"Ł":{"ha":817,"x_min":31,"x_max":779,"o":"m 413 983 l 413 956 q 341 945 365 954 q 308 912 317 936 q 300 836 300 888 l 300 147 q 308 72 300 97 q 341 40 317 47 q 413 32 365 32 l 514 32 q 647 57 601 32 q 712 139 692 82 q 742 292 732 196 l 774 292 q 769 178 769 249 q 772 102 769 151 q 779 0 774 53 q 619 3 708 3 q 461 4 531 4 q 351 4 419 4 q 204 3 282 4 q 58 0 126 3 l 58 28 q 130 39 106 31 q 163 72 154 47 q 171 147 171 97 l 171 836 q 163 912 171 888 q 130 945 154 936 q 58 956 106 954 l 58 983 q 135 981 88 982 q 236 979 182 979 q 333 981 285 979 q 413 983 381 982 m 629 657 l 629 625 l 235 396 l 235 428 l 629 657 m 235 442 l 235 410 l 31 292 l 31 324 l 235 442 z "},"M":{"ha":1210,"x_min":58,"x_max":1151,"o":"m 1151 983 l 1151 956 q 1080 945 1104 954 q 1047 912 1056 936 q 1039 836 1039 888 l 1039 147 q 1047 72 1039 97 q 1080 39 1056 47 q 1151 28 1104 31 l 1151 0 q 1072 3 1119 3 q 975 4 1024 4 q 874 3 921 4 q 797 0 826 3 l 797 28 q 869 39 844 31 q 901 72 893 47 q 910 147 910 97 l 910 911 l 915 907 l 575 -7 l 553 -7 l 203 894 l 203 161 q 212 83 203 111 q 248 42 221 54 q 329 28 275 31 l 329 0 q 264 3 304 3 q 188 4 224 4 q 117 3 153 4 q 58 0 82 3 l 58 28 q 130 42 106 31 q 163 83 154 54 q 171 161 171 111 l 171 836 q 163 912 171 888 q 130 945 154 936 q 58 956 106 954 l 58 983 q 117 981 82 982 q 188 979 153 979 q 251 981 218 979 q 306 983 283 982 l 621 153 l 597 142 l 910 979 q 942 979 926 979 q 975 979 958 979 q 1072 981 1024 979 q 1151 983 1119 982 z "},"N":{"ha":981,"x_min":58,"x_max":931,"o":"m 931 983 l 931 956 q 859 942 883 954 q 826 901 835 929 q 818 822 818 874 l 818 -7 q 802 -7 810 -7 q 786 -7 794 -7 l 203 894 l 203 161 q 212 83 203 111 q 248 42 221 54 q 329 28 275 31 l 329 0 q 264 3 304 3 q 188 4 224 4 q 117 3 153 4 q 58 0 82 3 l 58 28 q 130 42 106 31 q 163 83 154 54 q 171 161 171 111 l 171 836 q 163 912 171 888 q 130 945 154 936 q 58 956 106 954 l 58 983 q 117 981 82 982 q 188 979 153 979 q 246 981 218 979 q 296 983 274 982 l 786 228 l 786 822 q 777 901 786 874 q 741 942 768 929 q 660 956 714 954 l 660 983 q 726 981 685 982 q 801 979 767 979 q 873 981 838 979 q 931 983 908 982 z "},"Ń":{"ha":981,"x_min":58,"x_max":931,"o":"m 931 983 l 931 956 q 859 942 883 954 q 826 901 835 929 q 818 822 818 874 l 818 -7 q 802 -7 810 -7 q 786 -7 794 -7 l 203 894 l 203 161 q 212 83 203 111 q 248 42 221 54 q 329 28 275 31 l 329 0 q 264 3 304 3 q 188 4 224 4 q 117 3 153 4 q 58 0 82 3 l 58 28 q 130 42 106 31 q 163 83 154 54 q 171 161 171 111 l 171 836 q 163 912 171 888 q 130 945 154 936 q 58 956 106 954 l 58 983 q 117 981 82 982 q 188 979 153 979 q 246 981 218 979 q 296 983 274 982 l 786 228 l 786 822 q 777 901 786 874 q 741 942 768 929 q 660 956 714 954 l 660 983 q 726 981 685 982 q 801 979 767 979 q 873 981 838 979 q 931 983 908 982 m 668 1286 q 719 1299 696 1304 q 753 1276 742 1294 q 758 1237 764 1258 q 724 1196 753 1215 q 656 1163 694 1178 q 567 1128 618 1149 q 444 1072 517 1108 l 435 1090 q 540 1176 499 1139 q 610 1240 581 1213 q 668 1286 639 1268 z "},"Ň":{"ha":981,"x_min":58,"x_max":931,"o":"m 931 983 l 931 956 q 859 942 883 954 q 826 901 835 929 q 818 822 818 874 l 818 -7 q 802 -7 810 -7 q 786 -7 794 -7 l 203 894 l 203 161 q 212 83 203 111 q 248 42 221 54 q 329 28 275 31 l 329 0 q 264 3 304 3 q 188 4 224 4 q 117 3 153 4 q 58 0 82 3 l 58 28 q 130 42 106 31 q 163 83 154 54 q 171 161 171 111 l 171 836 q 163 912 171 888 q 130 945 154 936 q 58 956 106 954 l 58 983 q 117 981 82 982 q 188 979 153 979 q 246 981 218 979 q 296 983 274 982 l 786 228 l 786 822 q 777 901 786 874 q 741 942 768 929 q 660 956 714 954 l 660 983 q 726 981 685 982 q 801 979 767 979 q 873 981 838 979 q 931 983 908 982 m 781 1286 l 788 1267 q 628 1186 697 1236 q 528 1083 560 1136 l 503 1083 q 402 1186 471 1136 q 243 1267 333 1236 l 250 1286 q 415 1242 333 1268 q 543 1189 496 1215 q 649 1242 583 1215 q 781 1286 714 1268 z "},"Ņ":{"ha":981,"x_min":58,"x_max":931,"o":"m 931 983 l 931 956 q 859 942 883 954 q 826 901 835 929 q 818 822 818 874 l 818 -7 q 802 -7 810 -7 q 786 -7 794 -7 l 203 894 l 203 161 q 212 83 203 111 q 248 42 221 54 q 329 28 275 31 l 329 0 q 264 3 304 3 q 188 4 224 4 q 117 3 153 4 q 58 0 82 3 l 58 28 q 130 42 106 31 q 163 83 154 54 q 171 161 171 111 l 171 836 q 163 912 171 888 q 130 945 154 936 q 58 956 106 954 l 58 983 q 117 981 82 982 q 188 979 153 979 q 246 981 218 979 q 296 983 274 982 l 786 228 l 786 822 q 777 901 786 874 q 741 942 768 929 q 660 956 714 954 l 660 983 q 726 981 685 982 q 801 979 767 979 q 873 981 838 979 q 931 983 908 982 z "},"Ŋ":{"ha":979,"x_min":58,"x_max":931,"o":"m 931 983 l 931 956 q 859 945 883 954 q 826 912 835 936 q 818 836 818 888 l 818 383 l 797 -7 q 792 -7 794 -7 q 786 -7 789 -7 l 203 894 l 203 147 q 211 72 203 97 q 244 39 219 47 q 315 28 268 31 l 315 0 q 257 3 290 3 q 188 4 224 4 q 117 3 153 4 q 58 0 82 3 l 58 28 q 130 39 106 31 q 163 72 154 47 q 171 147 171 97 l 171 836 q 163 912 171 888 q 130 945 154 936 q 58 956 106 954 l 58 983 q 117 981 82 982 q 188 979 153 979 q 256 981 222 979 q 315 983 289 982 l 786 256 l 786 836 q 778 912 786 888 q 745 945 769 936 q 674 956 721 954 l 674 983 q 733 981 699 982 q 801 979 767 979 q 873 981 838 979 q 931 983 908 982 m 818 618 l 818 126 q 792 -117 818 -33 q 721 -231 765 -200 q 621 -261 676 -261 q 534 -242 572 -261 q 496 -175 496 -222 q 515 -124 496 -143 q 561 -106 535 -106 q 610 -124 589 -106 q 631 -171 631 -143 q 620 -207 631 -189 q 594 -235 610 -225 q 610 -237 601 -236 q 626 -237 618 -237 q 749 -154 713 -237 q 786 72 786 -71 l 786 618 q 802 618 786 618 q 818 618 818 618 z "},"Ñ":{"ha":981,"x_min":58,"x_max":931,"o":"m 931 983 l 931 956 q 859 942 883 954 q 826 901 835 929 q 818 822 818 874 l 818 -7 q 802 -7 810 -7 q 786 -7 794 -7 l 203 894 l 203 161 q 212 83 203 111 q 248 42 221 54 q 329 28 275 31 l 329 0 q 264 3 304 3 q 188 4 224 4 q 117 3 153 4 q 58 0 82 3 l 58 28 q 130 42 106 31 q 163 83 154 54 q 171 161 171 111 l 171 836 q 163 912 171 888 q 130 945 154 936 q 58 956 106 954 l 58 983 q 117 981 82 982 q 188 979 153 979 q 246 981 218 979 q 296 983 274 982 l 786 228 l 786 822 q 777 901 786 874 q 741 942 768 929 q 660 956 714 954 l 660 983 q 726 981 685 982 q 801 979 767 979 q 873 981 838 979 q 931 983 908 982 m 407 1253 q 479 1237 446 1253 q 544 1199 513 1221 q 608 1162 576 1178 q 676 1146 640 1146 q 727 1163 704 1146 q 763 1224 750 1179 l 783 1219 q 733 1112 778 1151 q 629 1072 688 1072 q 557 1088 590 1072 q 492 1126 524 1104 q 428 1163 460 1147 q 360 1179 396 1179 q 308 1163 331 1179 q 274 1101 286 1146 l 253 1106 q 304 1214 260 1175 q 407 1253 349 1253 z "},"O":{"ha":1029,"x_min":74,"x_max":956,"o":"m 515 1003 q 747 943 647 1003 q 901 772 846 883 q 956 500 956 660 q 899 228 956 344 q 743 46 843 111 q 514 -19 643 -19 q 283 40 382 -19 q 128 213 183 100 q 74 483 74 325 q 131 756 74 639 q 287 938 188 872 q 515 1003 386 1003 m 510 978 q 353 915 419 978 q 249 743 286 853 q 213 489 213 633 q 253 233 213 342 q 365 65 294 124 q 519 6 435 6 q 676 68 610 6 q 780 241 743 131 q 817 494 817 351 q 776 751 817 643 q 665 919 735 860 q 510 978 596 978 z "},"Ó":{"ha":1029,"x_min":74,"x_max":956,"o":"m 515 1003 q 747 943 647 1003 q 901 772 846 883 q 956 500 956 660 q 899 228 956 344 q 743 46 843 111 q 514 -19 643 -19 q 283 40 382 -19 q 128 213 183 100 q 74 483 74 325 q 131 756 74 639 q 287 938 188 872 q 515 1003 386 1003 m 510 978 q 353 915 419 978 q 249 743 286 853 q 213 489 213 633 q 253 233 213 342 q 365 65 294 124 q 519 6 435 6 q 676 68 610 6 q 780 241 743 131 q 817 494 817 351 q 776 751 817 643 q 665 919 735 860 q 510 978 596 978 m 661 1286 q 712 1299 689 1304 q 746 1276 735 1294 q 751 1237 757 1258 q 717 1196 746 1215 q 649 1163 688 1178 q 560 1128 611 1149 q 438 1072 510 1108 l 428 1090 q 533 1176 492 1139 q 603 1240 574 1213 q 661 1286 632 1268 z "},"Ŏ":{"ha":1029,"x_min":74,"x_max":956,"o":"m 515 1003 q 747 943 647 1003 q 901 772 846 883 q 956 500 956 660 q 899 228 956 344 q 743 46 843 111 q 514 -19 643 -19 q 283 40 382 -19 q 128 213 183 100 q 74 483 74 325 q 131 756 74 639 q 287 938 188 872 q 515 1003 386 1003 m 510 978 q 353 915 419 978 q 249 743 286 853 q 213 489 213 633 q 253 233 213 342 q 365 65 294 124 q 519 6 435 6 q 676 68 610 6 q 780 241 743 131 q 817 494 817 351 q 776 751 817 643 q 665 919 735 860 q 510 978 596 978 m 772 1263 l 789 1247 q 729 1174 767 1211 q 638 1111 692 1136 q 513 1086 583 1086 q 388 1111 442 1086 q 296 1174 333 1136 q 236 1247 258 1211 l 254 1261 q 349 1201 286 1231 q 513 1172 413 1172 q 676 1202 613 1172 q 772 1263 740 1232 z "},"Ô":{"ha":1029,"x_min":74,"x_max":956,"o":"m 515 1003 q 747 943 647 1003 q 901 772 846 883 q 956 500 956 660 q 899 228 956 344 q 743 46 843 111 q 514 -19 643 -19 q 283 40 382 -19 q 128 213 183 100 q 74 483 74 325 q 131 756 74 639 q 287 938 188 872 q 515 1003 386 1003 m 510 978 q 353 915 419 978 q 249 743 286 853 q 213 489 213 633 q 253 233 213 342 q 365 65 294 124 q 519 6 435 6 q 676 68 610 6 q 780 241 743 131 q 817 494 817 351 q 776 751 817 643 q 665 919 735 860 q 510 978 596 978 m 525 1272 q 626 1170 557 1219 q 785 1089 694 1121 l 778 1069 q 614 1114 694 1088 q 485 1167 533 1140 q 380 1114 446 1140 q 247 1069 314 1088 l 240 1089 q 399 1170 331 1121 q 500 1272 468 1219 l 525 1272 z "},"Ố":{"ha":1029,"x_min":74,"x_max":956,"o":"m 515 1003 q 747 943 647 1003 q 901 772 846 883 q 956 500 956 660 q 899 228 956 344 q 743 46 843 111 q 514 -19 643 -19 q 283 40 382 -19 q 128 213 183 100 q 74 483 74 325 q 131 756 74 639 q 287 938 188 872 q 515 1003 386 1003 m 510 978 q 353 915 419 978 q 249 743 286 853 q 213 489 213 633 q 253 233 213 342 q 365 65 294 124 q 519 6 435 6 q 676 68 610 6 q 780 241 743 131 q 817 494 817 351 q 776 751 817 643 q 665 919 735 860 q 510 978 596 978 m 525 1272 q 626 1170 557 1219 q 785 1089 694 1121 l 778 1069 q 614 1114 694 1088 q 485 1167 533 1140 q 380 1114 446 1140 q 247 1069 314 1088 l 240 1089 q 399 1170 331 1121 q 500 1272 468 1219 l 525 1272 m 661 1592 q 712 1605 689 1610 q 746 1582 735 1600 q 751 1542 757 1564 q 717 1501 746 1521 q 649 1469 688 1483 q 560 1434 611 1454 q 438 1378 510 1414 l 428 1396 q 533 1481 492 1444 q 603 1546 574 1518 q 661 1592 632 1574 z "},"Ộ":{"ha":1029,"x_min":74,"x_max":956,"o":"m 515 1003 q 747 943 647 1003 q 901 772 846 883 q 956 500 956 660 q 899 228 956 344 q 743 46 843 111 q 514 -19 643 -19 q 283 40 382 -19 q 128 213 183 100 q 74 483 74 325 q 131 756 74 639 q 287 938 188 872 q 515 1003 386 1003 m 510 978 q 353 915 419 978 q 249 743 286 853 q 213 489 213 633 q 253 233 213 342 q 365 65 294 124 q 519 6 435 6 q 676 68 610 6 q 780 241 743 131 q 817 494 817 351 q 776 751 817 643 q 665 919 735 860 q 510 978 596 978 m 525 1272 q 626 1170 557 1219 q 785 1089 694 1121 l 778 1069 q 614 1114 694 1088 q 485 1167 533 1140 q 380 1114 446 1140 q 247 1069 314 1088 l 240 1089 q 399 1170 331 1121 q 500 1272 468 1219 l 525 1272 m 517 -251 q 460 -230 483 -251 q 436 -174 436 -208 q 458 -119 436 -142 q 517 -96 479 -96 q 576 -119 554 -96 q 597 -175 597 -143 q 573 -231 597 -210 q 517 -251 549 -251 z "},"Ồ":{"ha":1029,"x_min":74,"x_max":956,"o":"m 515 1003 q 747 943 647 1003 q 901 772 846 883 q 956 500 956 660 q 899 228 956 344 q 743 46 843 111 q 514 -19 643 -19 q 283 40 382 -19 q 128 213 183 100 q 74 483 74 325 q 131 756 74 639 q 287 938 188 872 q 515 1003 386 1003 m 510 978 q 353 915 419 978 q 249 743 286 853 q 213 489 213 633 q 253 233 213 342 q 365 65 294 124 q 519 6 435 6 q 676 68 610 6 q 780 241 743 131 q 817 494 817 351 q 776 751 817 643 q 665 919 735 860 q 510 978 596 978 m 525 1272 q 626 1170 557 1219 q 785 1089 694 1121 l 778 1069 q 614 1114 694 1088 q 485 1167 533 1140 q 380 1114 446 1140 q 247 1069 314 1088 l 240 1089 q 399 1170 331 1121 q 500 1272 468 1219 l 525 1272 m 372 1592 q 431 1546 401 1574 q 501 1481 460 1518 q 606 1396 542 1444 l 596 1378 q 473 1434 525 1414 q 384 1469 421 1454 q 317 1501 347 1483 q 282 1542 288 1521 q 288 1582 276 1564 q 322 1605 299 1600 q 372 1592 344 1610 z "},"Ổ":{"ha":1029,"x_min":74,"x_max":956,"o":"m 515 1003 q 747 943 647 1003 q 901 772 846 883 q 956 500 956 660 q 899 228 956 344 q 743 46 843 111 q 514 -19 643 -19 q 283 40 382 -19 q 128 213 183 100 q 74 483 74 325 q 131 756 74 639 q 287 938 188 872 q 515 1003 386 1003 m 510 978 q 353 915 419 978 q 249 743 286 853 q 213 489 213 633 q 253 233 213 342 q 365 65 294 124 q 519 6 435 6 q 676 68 610 6 q 780 241 743 131 q 817 494 817 351 q 776 751 817 643 q 665 919 735 860 q 510 978 596 978 m 525 1272 q 626 1170 557 1219 q 785 1089 694 1121 l 778 1069 q 614 1114 694 1088 q 485 1167 533 1140 q 380 1114 446 1140 q 247 1069 314 1088 l 240 1089 q 399 1170 331 1121 q 500 1272 468 1219 l 525 1272 m 718 1269 l 718 1346 q 788 1392 767 1365 q 810 1450 810 1418 q 781 1510 810 1490 q 713 1531 753 1531 q 676 1526 696 1531 q 646 1508 657 1522 q 690 1451 690 1499 q 672 1406 690 1422 q 628 1390 654 1390 q 585 1406 601 1390 q 568 1449 568 1422 q 584 1496 568 1475 q 622 1531 600 1517 q 669 1550 642 1542 q 739 1558 696 1558 q 815 1549 776 1558 q 879 1517 853 1539 q 906 1458 906 1496 q 863 1381 906 1414 q 746 1333 819 1349 l 746 1269 l 718 1269 z "},"Ỗ":{"ha":1029,"x_min":74,"x_max":956,"o":"m 515 1003 q 747 943 647 1003 q 901 772 846 883 q 956 500 956 660 q 899 228 956 344 q 743 46 843 111 q 514 -19 643 -19 q 283 40 382 -19 q 128 213 183 100 q 74 483 74 325 q 131 756 74 639 q 287 938 188 872 q 515 1003 386 1003 m 510 978 q 353 915 419 978 q 249 743 286 853 q 213 489 213 633 q 253 233 213 342 q 365 65 294 124 q 519 6 435 6 q 676 68 610 6 q 780 241 743 131 q 817 494 817 351 q 776 751 817 643 q 665 919 735 860 q 510 978 596 978 m 525 1272 q 626 1170 557 1219 q 785 1089 694 1121 l 778 1069 q 614 1114 694 1088 q 485 1167 533 1140 q 380 1114 446 1140 q 247 1069 314 1088 l 240 1089 q 399 1170 331 1121 q 500 1272 468 1219 l 525 1272 m 400 1558 q 472 1542 439 1558 q 538 1505 506 1526 q 601 1467 569 1483 q 669 1451 633 1451 q 720 1468 697 1451 q 756 1529 743 1485 l 776 1525 q 726 1417 771 1457 q 622 1378 681 1378 q 550 1394 583 1378 q 485 1431 517 1410 q 421 1469 453 1453 q 353 1485 389 1485 q 301 1468 324 1485 q 267 1407 279 1451 l 246 1411 q 297 1519 253 1481 q 400 1558 342 1558 z "},"Ö":{"ha":1029,"x_min":74,"x_max":956,"o":"m 515 1003 q 747 943 647 1003 q 901 772 846 883 q 956 500 956 660 q 899 228 956 344 q 743 46 843 111 q 514 -19 643 -19 q 283 40 382 -19 q 128 213 183 100 q 74 483 74 325 q 131 756 74 639 q 287 938 188 872 q 515 1003 386 1003 m 510 978 q 353 915 419 978 q 249 743 286 853 q 213 489 213 633 q 253 233 213 342 q 365 65 294 124 q 519 6 435 6 q 676 68 610 6 q 780 241 743 131 q 817 494 817 351 q 776 751 817 643 q 665 919 735 860 q 510 978 596 978 m 660 1233 q 716 1209 692 1233 q 740 1153 740 1185 q 716 1096 740 1119 q 660 1072 692 1072 q 603 1096 626 1072 q 579 1153 579 1119 q 603 1209 579 1185 q 660 1233 626 1233 m 365 1233 q 422 1209 397 1233 q 446 1153 446 1185 q 422 1096 446 1119 q 365 1072 397 1072 q 308 1096 332 1072 q 285 1153 285 1119 q 308 1209 285 1185 q 365 1233 332 1233 z "},"Ọ":{"ha":1029,"x_min":74,"x_max":956,"o":"m 515 1003 q 747 943 647 1003 q 901 772 846 883 q 956 500 956 660 q 899 228 956 344 q 743 46 843 111 q 514 -19 643 -19 q 283 40 382 -19 q 128 213 183 100 q 74 483 74 325 q 131 756 74 639 q 287 938 188 872 q 515 1003 386 1003 m 510 978 q 353 915 419 978 q 249 743 286 853 q 213 489 213 633 q 253 233 213 342 q 365 65 294 124 q 519 6 435 6 q 676 68 610 6 q 780 241 743 131 q 817 494 817 351 q 776 751 817 643 q 665 919 735 860 q 510 978 596 978 m 517 -251 q 460 -230 483 -251 q 436 -174 436 -208 q 458 -119 436 -142 q 517 -96 479 -96 q 576 -119 554 -96 q 597 -175 597 -143 q 573 -231 597 -210 q 517 -251 549 -251 z "},"Ò":{"ha":1029,"x_min":74,"x_max":956,"o":"m 515 1003 q 747 943 647 1003 q 901 772 846 883 q 956 500 956 660 q 899 228 956 344 q 743 46 843 111 q 514 -19 643 -19 q 283 40 382 -19 q 128 213 183 100 q 74 483 74 325 q 131 756 74 639 q 287 938 188 872 q 515 1003 386 1003 m 510 978 q 353 915 419 978 q 249 743 286 853 q 213 489 213 633 q 253 233 213 342 q 365 65 294 124 q 519 6 435 6 q 676 68 610 6 q 780 241 743 131 q 817 494 817 351 q 776 751 817 643 q 665 919 735 860 q 510 978 596 978 m 372 1286 q 431 1240 401 1268 q 501 1176 460 1213 q 606 1090 542 1139 l 596 1072 q 473 1128 525 1108 q 384 1163 421 1149 q 317 1196 347 1178 q 282 1237 288 1215 q 288 1276 276 1258 q 322 1299 299 1294 q 372 1286 344 1304 z "},"Ỏ":{"ha":1029,"x_min":74,"x_max":956,"o":"m 515 1003 q 747 943 647 1003 q 901 772 846 883 q 956 500 956 660 q 899 228 956 344 q 743 46 843 111 q 514 -19 643 -19 q 283 40 382 -19 q 128 213 183 100 q 74 483 74 325 q 131 756 74 639 q 287 938 188 872 q 515 1003 386 1003 m 510 978 q 353 915 419 978 q 249 743 286 853 q 213 489 213 633 q 253 233 213 342 q 365 65 294 124 q 519 6 435 6 q 676 68 610 6 q 780 241 743 131 q 817 494 817 351 q 776 751 817 643 q 665 919 735 860 q 510 978 596 978 m 499 1064 l 499 1140 q 569 1186 547 1160 q 590 1244 590 1213 q 562 1305 590 1285 q 493 1325 533 1325 q 457 1321 476 1325 q 426 1303 438 1317 q 471 1246 471 1293 q 453 1201 471 1217 q 408 1185 435 1185 q 365 1201 382 1185 q 349 1243 349 1217 q 365 1290 349 1269 q 403 1325 381 1311 q 449 1344 422 1336 q 519 1353 476 1353 q 595 1343 557 1353 q 660 1312 633 1333 q 686 1253 686 1290 q 643 1176 686 1208 q 526 1128 600 1143 l 526 1064 l 499 1064 z "},"Ơ":{"ha":1029,"x_min":74,"x_max":976,"o":"m 625 978 q 774 985 717 972 q 876 1029 832 999 l 875 1019 q 835 1061 853 1036 q 818 1118 818 1086 q 838 1175 818 1150 q 899 1200 858 1200 q 957 1177 938 1200 q 976 1124 976 1154 q 951 1056 976 1089 q 886 1000 926 1024 q 792 963 846 976 q 669 947 739 949 l 625 978 m 515 1003 q 747 943 647 1003 q 901 772 846 883 q 956 500 956 660 q 899 228 956 344 q 743 46 843 111 q 514 -19 643 -19 q 283 40 382 -19 q 128 213 183 100 q 74 483 74 325 q 131 756 74 639 q 287 938 188 872 q 515 1003 386 1003 m 510 978 q 353 915 419 978 q 249 743 286 853 q 213 489 213 633 q 253 233 213 342 q 365 65 294 124 q 519 6 435 6 q 676 68 610 6 q 780 241 743 131 q 817 494 817 351 q 776 751 817 643 q 665 919 735 860 q 510 978 596 978 z "},"Ớ":{"ha":1029,"x_min":74,"x_max":976,"o":"m 625 978 q 774 985 717 972 q 876 1029 832 999 l 875 1019 q 835 1061 853 1036 q 818 1118 818 1086 q 838 1175 818 1150 q 899 1200 858 1200 q 957 1177 938 1200 q 976 1124 976 1154 q 951 1056 976 1089 q 886 1000 926 1024 q 792 963 846 976 q 669 947 739 949 l 625 978 m 515 1003 q 747 943 647 1003 q 901 772 846 883 q 956 500 956 660 q 899 228 956 344 q 743 46 843 111 q 514 -19 643 -19 q 283 40 382 -19 q 128 213 183 100 q 74 483 74 325 q 131 756 74 639 q 287 938 188 872 q 515 1003 386 1003 m 510 978 q 353 915 419 978 q 249 743 286 853 q 213 489 213 633 q 253 233 213 342 q 365 65 294 124 q 519 6 435 6 q 676 68 610 6 q 780 241 743 131 q 817 494 817 351 q 776 751 817 643 q 665 919 735 860 q 510 978 596 978 m 661 1286 q 712 1299 689 1304 q 746 1276 735 1294 q 751 1237 757 1258 q 717 1196 746 1215 q 649 1163 688 1178 q 560 1128 611 1149 q 438 1072 510 1108 l 428 1090 q 533 1176 492 1139 q 603 1240 574 1213 q 661 1286 632 1268 z "},"Ợ":{"ha":1029,"x_min":74,"x_max":976,"o":"m 625 978 q 774 985 717 972 q 876 1029 832 999 l 875 1019 q 835 1061 853 1036 q 818 1118 818 1086 q 838 1175 818 1150 q 899 1200 858 1200 q 957 1177 938 1200 q 976 1124 976 1154 q 951 1056 976 1089 q 886 1000 926 1024 q 792 963 846 976 q 669 947 739 949 l 625 978 m 515 1003 q 747 943 647 1003 q 901 772 846 883 q 956 500 956 660 q 899 228 956 344 q 743 46 843 111 q 514 -19 643 -19 q 283 40 382 -19 q 128 213 183 100 q 74 483 74 325 q 131 756 74 639 q 287 938 188 872 q 515 1003 386 1003 m 510 978 q 353 915 419 978 q 249 743 286 853 q 213 489 213 633 q 253 233 213 342 q 365 65 294 124 q 519 6 435 6 q 676 68 610 6 q 780 241 743 131 q 817 494 817 351 q 776 751 817 643 q 665 919 735 860 q 510 978 596 978 m 517 -251 q 460 -230 483 -251 q 436 -174 436 -208 q 458 -119 436 -142 q 517 -96 479 -96 q 576 -119 554 -96 q 597 -175 597 -143 q 573 -231 597 -210 q 517 -251 549 -251 z "},"Ờ":{"ha":1029,"x_min":74,"x_max":976,"o":"m 625 978 q 774 985 717 972 q 876 1029 832 999 l 875 1019 q 835 1061 853 1036 q 818 1118 818 1086 q 838 1175 818 1150 q 899 1200 858 1200 q 957 1177 938 1200 q 976 1124 976 1154 q 951 1056 976 1089 q 886 1000 926 1024 q 792 963 846 976 q 669 947 739 949 l 625 978 m 515 1003 q 747 943 647 1003 q 901 772 846 883 q 956 500 956 660 q 899 228 956 344 q 743 46 843 111 q 514 -19 643 -19 q 283 40 382 -19 q 128 213 183 100 q 74 483 74 325 q 131 756 74 639 q 287 938 188 872 q 515 1003 386 1003 m 510 978 q 353 915 419 978 q 249 743 286 853 q 213 489 213 633 q 253 233 213 342 q 365 65 294 124 q 519 6 435 6 q 676 68 610 6 q 780 241 743 131 q 817 494 817 351 q 776 751 817 643 q 665 919 735 860 q 510 978 596 978 m 372 1286 q 431 1240 401 1268 q 501 1176 460 1213 q 606 1090 542 1139 l 596 1072 q 473 1128 525 1108 q 384 1163 421 1149 q 317 1196 347 1178 q 282 1237 288 1215 q 288 1276 276 1258 q 322 1299 299 1294 q 372 1286 344 1304 z "},"Ở":{"ha":1029,"x_min":74,"x_max":976,"o":"m 625 978 q 774 985 717 972 q 876 1029 832 999 l 875 1019 q 835 1061 853 1036 q 818 1118 818 1086 q 838 1175 818 1150 q 899 1200 858 1200 q 957 1177 938 1200 q 976 1124 976 1154 q 951 1056 976 1089 q 886 1000 926 1024 q 792 963 846 976 q 669 947 739 949 l 625 978 m 515 1003 q 747 943 647 1003 q 901 772 846 883 q 956 500 956 660 q 899 228 956 344 q 743 46 843 111 q 514 -19 643 -19 q 283 40 382 -19 q 128 213 183 100 q 74 483 74 325 q 131 756 74 639 q 287 938 188 872 q 515 1003 386 1003 m 510 978 q 353 915 419 978 q 249 743 286 853 q 213 489 213 633 q 253 233 213 342 q 365 65 294 124 q 519 6 435 6 q 676 68 610 6 q 780 241 743 131 q 817 494 817 351 q 776 751 817 643 q 665 919 735 860 q 510 978 596 978 m 499 1064 l 499 1140 q 569 1186 547 1160 q 590 1244 590 1213 q 562 1305 590 1285 q 493 1325 533 1325 q 457 1321 476 1325 q 426 1303 438 1317 q 471 1246 471 1293 q 453 1201 471 1217 q 408 1185 435 1185 q 365 1201 382 1185 q 349 1243 349 1217 q 365 1290 349 1269 q 403 1325 381 1311 q 449 1344 422 1336 q 519 1353 476 1353 q 595 1343 557 1353 q 660 1312 633 1333 q 686 1253 686 1290 q 643 1176 686 1208 q 526 1128 600 1143 l 526 1064 l 499 1064 z "},"Ỡ":{"ha":1029,"x_min":74,"x_max":976,"o":"m 625 978 q 774 985 717 972 q 876 1029 832 999 l 875 1019 q 835 1061 853 1036 q 818 1118 818 1086 q 838 1175 818 1150 q 899 1200 858 1200 q 957 1177 938 1200 q 976 1124 976 1154 q 951 1056 976 1089 q 886 1000 926 1024 q 792 963 846 976 q 669 947 739 949 l 625 978 m 515 1003 q 747 943 647 1003 q 901 772 846 883 q 956 500 956 660 q 899 228 956 344 q 743 46 843 111 q 514 -19 643 -19 q 283 40 382 -19 q 128 213 183 100 q 74 483 74 325 q 131 756 74 639 q 287 938 188 872 q 515 1003 386 1003 m 510 978 q 353 915 419 978 q 249 743 286 853 q 213 489 213 633 q 253 233 213 342 q 365 65 294 124 q 519 6 435 6 q 676 68 610 6 q 780 241 743 131 q 817 494 817 351 q 776 751 817 643 q 665 919 735 860 q 510 978 596 978 m 400 1253 q 472 1237 439 1253 q 538 1199 506 1221 q 601 1162 569 1178 q 669 1146 633 1146 q 720 1163 697 1146 q 756 1224 743 1179 l 776 1219 q 726 1112 771 1151 q 622 1072 681 1072 q 550 1088 583 1072 q 485 1126 517 1104 q 421 1163 453 1147 q 353 1179 389 1179 q 301 1163 324 1179 q 267 1101 279 1146 l 246 1106 q 297 1214 253 1175 q 400 1253 342 1253 z "},"Ő":{"ha":1029,"x_min":74,"x_max":956,"o":"m 515 1003 q 747 943 647 1003 q 901 772 846 883 q 956 500 956 660 q 899 228 956 344 q 743 46 843 111 q 514 -19 643 -19 q 283 40 382 -19 q 128 213 183 100 q 74 483 74 325 q 131 756 74 639 q 287 938 188 872 q 515 1003 386 1003 m 510 978 q 353 915 419 978 q 249 743 286 853 q 213 489 213 633 q 253 233 213 342 q 365 65 294 124 q 519 6 435 6 q 676 68 610 6 q 780 241 743 131 q 817 494 817 351 q 776 751 817 643 q 665 919 735 860 q 510 978 596 978 m 729 1281 q 777 1301 754 1303 q 814 1283 800 1299 q 826 1244 829 1267 q 797 1199 824 1222 q 697 1139 757 1165 q 579 1072 638 1113 l 567 1089 q 627 1158 600 1122 q 678 1226 654 1193 q 729 1281 703 1258 m 469 1281 q 517 1301 494 1303 q 554 1283 540 1299 q 567 1244 569 1267 q 538 1199 564 1222 q 438 1139 497 1165 q 319 1072 378 1113 l 307 1089 q 367 1158 340 1122 q 419 1226 394 1193 q 469 1281 443 1258 z "},"Ō":{"ha":1029,"x_min":74,"x_max":956,"o":"m 515 1003 q 747 943 647 1003 q 901 772 846 883 q 956 500 956 660 q 899 228 956 344 q 743 46 843 111 q 514 -19 643 -19 q 283 40 382 -19 q 128 213 183 100 q 74 483 74 325 q 131 756 74 639 q 287 938 188 872 q 515 1003 386 1003 m 510 978 q 353 915 419 978 q 249 743 286 853 q 213 489 213 633 q 253 233 213 342 q 365 65 294 124 q 519 6 435 6 q 676 68 610 6 q 780 241 743 131 q 817 494 817 351 q 776 751 817 643 q 665 919 735 860 q 510 978 596 978 m 757 1172 l 757 1138 l 268 1138 l 268 1172 l 757 1172 z "},"Ø":{"ha":1029,"x_min":74,"x_max":956,"o":"m 515 1003 q 747 943 647 1003 q 901 772 846 883 q 956 500 956 660 q 899 228 956 344 q 743 46 843 111 q 514 -19 643 -19 q 283 40 382 -19 q 128 213 183 100 q 74 483 74 325 q 131 756 74 639 q 287 938 188 872 q 515 1003 386 1003 m 510 978 q 353 915 419 978 q 249 743 286 853 q 213 489 213 633 q 253 233 213 342 q 365 65 294 124 q 519 6 435 6 q 676 68 610 6 q 780 241 743 131 q 817 494 817 351 q 776 751 817 643 q 665 919 735 860 q 510 978 596 978 m 749 878 l 769 850 l 283 107 l 258 132 l 749 878 m 247 132 l 272 107 l 131 -101 l 101 -82 l 247 132 m 893 1074 l 919 1056 l 779 850 l 758 878 l 893 1074 z "},"Ǿ":{"ha":1029,"x_min":74,"x_max":956,"o":"m 515 1003 q 747 943 647 1003 q 901 772 846 883 q 956 500 956 660 q 899 228 956 344 q 743 46 843 111 q 514 -19 643 -19 q 283 40 382 -19 q 128 213 183 100 q 74 483 74 325 q 131 756 74 639 q 287 938 188 872 q 515 1003 386 1003 m 510 978 q 353 915 419 978 q 249 743 286 853 q 213 489 213 633 q 253 233 213 342 q 365 65 294 124 q 519 6 435 6 q 676 68 610 6 q 780 241 743 131 q 817 494 817 351 q 776 751 817 643 q 665 919 735 860 q 510 978 596 978 m 749 878 l 769 850 l 283 107 l 258 132 l 749 878 m 247 132 l 272 107 l 131 -101 l 101 -82 l 247 132 m 893 1074 l 919 1056 l 779 850 l 758 878 l 893 1074 m 661 1286 q 712 1299 689 1304 q 746 1276 735 1294 q 751 1237 757 1258 q 717 1196 746 1215 q 649 1163 688 1178 q 560 1128 611 1149 q 438 1072 510 1108 l 428 1090 q 533 1176 492 1139 q 603 1240 574 1213 q 661 1286 632 1268 z "},"Õ":{"ha":1029,"x_min":74,"x_max":956,"o":"m 515 1003 q 747 943 647 1003 q 901 772 846 883 q 956 500 956 660 q 899 228 956 344 q 743 46 843 111 q 514 -19 643 -19 q 283 40 382 -19 q 128 213 183 100 q 74 483 74 325 q 131 756 74 639 q 287 938 188 872 q 515 1003 386 1003 m 510 978 q 353 915 419 978 q 249 743 286 853 q 213 489 213 633 q 253 233 213 342 q 365 65 294 124 q 519 6 435 6 q 676 68 610 6 q 780 241 743 131 q 817 494 817 351 q 776 751 817 643 q 665 919 735 860 q 510 978 596 978 m 400 1253 q 472 1237 439 1253 q 538 1199 506 1221 q 601 1162 569 1178 q 669 1146 633 1146 q 720 1163 697 1146 q 756 1224 743 1179 l 776 1219 q 726 1112 771 1151 q 622 1072 681 1072 q 550 1088 583 1072 q 485 1126 517 1104 q 421 1163 453 1147 q 353 1179 389 1179 q 301 1163 324 1179 q 267 1101 279 1146 l 246 1106 q 297 1214 253 1175 q 400 1253 342 1253 z "},"Œ":{"ha":1289,"x_min":74,"x_max":1222,"o":"m 515 1003 q 638 982 582 1003 q 803 980 721 981 q 932 979 885 979 q 1063 980 989 979 q 1194 983 1136 981 q 1187 889 1189 935 q 1185 819 1185 843 q 1186 772 1185 794 q 1189 733 1188 749 l 1157 733 q 1133 863 1149 815 q 1081 931 1118 911 q 971 951 1044 951 l 925 951 q 853 944 878 951 q 821 912 829 936 q 813 836 813 888 l 813 147 q 821 72 813 97 q 853 40 829 47 q 925 32 878 32 l 957 32 q 1090 56 1044 32 q 1155 133 1135 79 q 1185 278 1175 186 l 1217 278 q 1213 178 1213 240 q 1215 102 1213 151 q 1222 0 1217 53 q 1077 3 1158 3 q 932 4 996 4 q 797 4 885 4 q 628 1 710 4 q 573 -14 601 -8 q 514 -19 544 -19 q 283 40 382 -19 q 128 213 183 100 q 74 483 74 325 q 131 756 74 639 q 287 938 188 872 q 515 1003 386 1003 m 510 978 q 353 915 419 978 q 249 743 286 853 q 213 489 213 633 q 253 233 213 342 q 365 65 294 124 q 519 6 435 6 q 594 20 556 6 q 658 66 632 35 q 683 147 683 97 l 683 836 q 660 918 683 888 q 597 963 636 949 q 510 978 557 978 m 1007 508 l 1007 481 l 771 481 l 771 508 l 1007 508 m 1033 664 q 1028 560 1028 596 q 1029 494 1029 525 q 1031 429 1029 464 q 1038 325 1032 394 l 1006 325 q 992 399 1000 363 q 959 458 985 435 q 872 481 933 481 l 872 508 q 958 535 933 508 q 989 599 982 563 q 1001 664 996 636 l 1033 664 z "},"P":{"ha":813,"x_min":58,"x_max":772,"o":"m 58 983 q 135 981 88 982 q 228 979 182 979 q 353 981 293 979 q 438 982 413 982 q 689 906 606 982 q 772 708 772 829 q 756 603 772 658 q 698 502 739 549 q 586 426 657 456 q 407 397 515 397 l 274 397 l 274 425 l 393 425 q 544 463 492 425 q 615 561 596 500 q 633 693 633 622 q 581 890 633 825 q 403 956 529 956 q 319 932 339 956 q 300 836 300 908 l 300 147 q 310 72 300 97 q 351 39 321 47 q 440 28 382 31 l 440 0 q 349 3 404 3 q 236 4 293 4 q 135 3 182 4 q 58 0 88 3 l 58 28 q 130 39 106 31 q 163 72 154 47 q 171 147 171 97 l 171 836 q 163 912 171 888 q 130 945 154 936 q 58 956 106 954 l 58 983 z "},"Þ":{"ha":806,"x_min":58,"x_max":763,"o":"m 428 776 q 679 699 596 776 q 763 506 763 621 q 746 398 763 453 q 688 296 729 343 q 576 220 647 249 q 397 192 506 192 l 264 192 q 264 206 264 192 q 264 219 264 219 l 383 219 q 534 258 482 219 q 605 360 586 296 q 624 497 624 424 q 572 685 624 621 q 393 750 519 750 q 297 749 350 750 q 221 747 244 747 l 218 774 q 343 775 283 774 q 428 776 403 776 m 413 983 l 413 956 q 341 945 365 954 q 308 912 317 936 q 300 836 300 888 l 300 147 q 308 72 300 97 q 341 39 317 47 q 413 28 365 31 l 413 0 q 333 3 381 3 q 236 4 285 4 q 135 3 182 4 q 58 0 88 3 l 58 28 q 130 39 106 31 q 163 72 154 47 q 171 147 171 97 l 171 836 q 163 912 171 888 q 130 945 154 936 q 58 956 106 954 l 58 983 q 135 981 88 982 q 236 979 182 979 q 333 981 285 979 q 413 983 381 982 z "},"Q":{"ha":1029,"x_min":74,"x_max":1060,"o":"m 1039 -32 l 1060 -40 q 1022 -135 1043 -97 q 972 -199 1000 -174 q 901 -242 946 -222 q 785 -261 856 -261 q 642 -237 711 -261 q 500 -178 574 -212 q 338 -114 426 -143 q 319 -108 328 -111 q 304 -104 311 -106 q 247 -119 278 -114 q 189 -125 217 -125 q 143 -118 161 -125 q 125 -97 125 -111 q 200 -68 125 -68 q 304 -79 249 -68 q 390 -48 354 -65 q 465 -15 426 -31 q 557 4 503 0 l 558 -18 q 486 -34 517 -22 q 425 -60 456 -46 q 353 -86 394 -74 q 504 -115 422 -100 q 663 -142 586 -131 q 793 -153 739 -153 q 951 -124 893 -153 q 1039 -32 1008 -94 m 515 1003 q 747 943 647 1003 q 901 772 846 883 q 956 500 956 660 q 899 228 956 344 q 743 46 843 111 q 514 -19 643 -19 q 283 40 382 -19 q 128 213 183 100 q 74 483 74 325 q 131 756 74 639 q 287 938 188 872 q 515 1003 386 1003 m 510 978 q 353 915 419 978 q 249 743 286 853 q 213 489 213 633 q 253 233 213 342 q 365 65 294 124 q 519 6 435 6 q 676 68 610 6 q 780 241 743 131 q 817 494 817 351 q 776 751 817 643 q 665 919 735 860 q 510 978 596 978 z "},"R":{"ha":900,"x_min":58,"x_max":917,"o":"m 58 983 q 135 981 88 982 q 228 979 182 979 q 353 981 293 979 q 438 982 413 982 q 689 913 606 982 q 772 740 772 843 q 756 651 772 699 q 698 563 739 604 q 586 494 657 521 q 407 467 515 467 l 274 467 l 274 494 l 393 494 q 544 526 492 494 q 615 609 596 557 q 633 725 633 661 q 581 895 633 835 q 403 956 529 956 q 319 932 339 956 q 300 836 300 908 l 300 147 q 308 72 300 97 q 341 39 317 47 q 413 28 365 31 l 413 0 q 333 3 381 3 q 236 4 285 4 q 135 3 182 4 q 58 0 88 3 l 58 28 q 130 39 106 31 q 163 72 154 47 q 171 147 171 97 l 171 836 q 163 912 171 888 q 130 945 154 936 q 58 956 106 954 l 58 983 m 279 490 q 397 484 354 488 q 467 478 440 481 q 519 471 494 475 q 653 415 613 456 q 714 288 694 374 l 749 146 q 777 58 763 85 q 822 32 792 31 q 862 47 846 33 q 896 85 878 61 l 917 69 q 856 3 888 26 q 768 -19 825 -19 q 678 11 717 -19 q 619 131 639 42 l 589 269 q 560 373 576 329 q 516 442 544 417 q 432 467 488 467 l 282 467 l 279 490 z "},"Ŕ":{"ha":900,"x_min":58,"x_max":917,"o":"m 58 983 q 135 981 88 982 q 228 979 182 979 q 353 981 293 979 q 438 982 413 982 q 689 913 606 982 q 772 740 772 843 q 756 651 772 699 q 698 563 739 604 q 586 494 657 521 q 407 467 515 467 l 274 467 l 274 494 l 393 494 q 544 526 492 494 q 615 609 596 557 q 633 725 633 661 q 581 895 633 835 q 403 956 529 956 q 319 932 339 956 q 300 836 300 908 l 300 147 q 308 72 300 97 q 341 39 317 47 q 413 28 365 31 l 413 0 q 333 3 381 3 q 236 4 285 4 q 135 3 182 4 q 58 0 88 3 l 58 28 q 130 39 106 31 q 163 72 154 47 q 171 147 171 97 l 171 836 q 163 912 171 888 q 130 945 154 936 q 58 956 106 954 l 58 983 m 279 490 q 397 484 354 488 q 467 478 440 481 q 519 471 494 475 q 653 415 613 456 q 714 288 694 374 l 749 146 q 777 58 763 85 q 822 32 792 31 q 862 47 846 33 q 896 85 878 61 l 917 69 q 856 3 888 26 q 768 -19 825 -19 q 678 11 717 -19 q 619 131 639 42 l 589 269 q 560 373 576 329 q 516 442 544 417 q 432 467 488 467 l 282 467 l 279 490 m 560 1286 q 610 1299 588 1304 q 644 1276 633 1294 q 650 1237 656 1258 q 615 1196 644 1215 q 548 1163 586 1178 q 459 1128 510 1149 q 336 1072 408 1108 l 326 1090 q 431 1176 390 1139 q 501 1240 472 1213 q 560 1286 531 1268 z "},"Ř":{"ha":900,"x_min":58,"x_max":917,"o":"m 58 983 q 135 981 88 982 q 228 979 182 979 q 353 981 293 979 q 438 982 413 982 q 689 913 606 982 q 772 740 772 843 q 756 651 772 699 q 698 563 739 604 q 586 494 657 521 q 407 467 515 467 l 274 467 l 274 494 l 393 494 q 544 526 492 494 q 615 609 596 557 q 633 725 633 661 q 581 895 633 835 q 403 956 529 956 q 319 932 339 956 q 300 836 300 908 l 300 147 q 308 72 300 97 q 341 39 317 47 q 413 28 365 31 l 413 0 q 333 3 381 3 q 236 4 285 4 q 135 3 182 4 q 58 0 88 3 l 58 28 q 130 39 106 31 q 163 72 154 47 q 171 147 171 97 l 171 836 q 163 912 171 888 q 130 945 154 936 q 58 956 106 954 l 58 983 m 279 490 q 397 484 354 488 q 467 478 440 481 q 519 471 494 475 q 653 415 613 456 q 714 288 694 374 l 749 146 q 777 58 763 85 q 822 32 792 31 q 862 47 846 33 q 896 85 878 61 l 917 69 q 856 3 888 26 q 768 -19 825 -19 q 678 11 717 -19 q 619 131 639 42 l 589 269 q 560 373 576 329 q 516 442 544 417 q 432 467 488 467 l 282 467 l 279 490 m 672 1286 l 679 1267 q 520 1186 589 1236 q 419 1083 451 1136 l 394 1083 q 294 1186 363 1136 q 135 1267 225 1236 l 142 1286 q 306 1242 225 1268 q 435 1189 388 1215 q 540 1242 475 1215 q 672 1286 606 1268 z "},"Ŗ":{"ha":900,"x_min":58,"x_max":917,"o":"m 58 983 q 135 981 88 982 q 228 979 182 979 q 353 981 293 979 q 438 982 413 982 q 689 913 606 982 q 772 740 772 843 q 756 651 772 699 q 698 563 739 604 q 586 494 657 521 q 407 467 515 467 l 274 467 l 274 494 l 393 494 q 544 526 492 494 q 615 609 596 557 q 633 725 633 661 q 581 895 633 835 q 403 956 529 956 q 319 932 339 956 q 300 836 300 908 l 300 147 q 308 72 300 97 q 341 39 317 47 q 413 28 365 31 l 413 0 q 333 3 381 3 q 236 4 285 4 q 135 3 182 4 q 58 0 88 3 l 58 28 q 130 39 106 31 q 163 72 154 47 q 171 147 171 97 l 171 836 q 163 912 171 888 q 130 945 154 936 q 58 956 106 954 l 58 983 m 279 490 q 397 484 354 488 q 467 478 440 481 q 519 471 494 475 q 653 415 613 456 q 714 288 694 374 l 749 146 q 777 58 763 85 q 822 32 792 31 q 862 47 846 33 q 896 85 878 61 l 917 69 q 856 3 888 26 q 768 -19 825 -19 q 678 11 717 -19 q 619 131 639 42 l 589 269 q 560 373 576 329 q 516 442 544 417 q 432 467 488 467 l 282 467 l 279 490 z "},"S":{"ha":750,"x_min":88,"x_max":682,"o":"m 356 999 q 461 983 425 999 q 525 947 497 967 q 552 933 542 938 q 572 928 563 928 q 603 989 594 928 l 635 989 q 631 933 633 965 q 628 847 629 900 q 628 706 628 793 l 596 706 q 567 833 592 772 q 494 933 542 894 q 368 972 446 972 q 247 928 294 972 q 199 811 199 883 q 231 706 199 749 q 316 630 263 664 q 432 557 369 596 q 560 469 504 513 q 649 372 617 425 q 682 244 682 319 q 642 97 682 156 q 535 10 601 39 q 388 -19 468 -19 q 271 -3 314 -19 q 197 32 228 14 q 150 51 167 51 q 119 -10 128 51 l 88 -10 q 91 59 90 19 q 92 163 92 99 q 93 324 93 226 l 125 324 q 156 168 131 240 q 235 52 182 96 q 378 8 289 8 q 502 52 446 8 q 558 193 558 96 q 499 333 558 278 q 342 447 439 389 q 219 529 276 488 q 128 626 163 571 q 94 758 94 681 q 131 894 94 840 q 228 973 168 947 q 356 999 288 999 z "},"Ś":{"ha":750,"x_min":88,"x_max":682,"o":"m 356 999 q 461 983 425 999 q 525 947 497 967 q 552 933 542 938 q 572 928 563 928 q 603 989 594 928 l 635 989 q 631 933 633 965 q 628 847 629 900 q 628 706 628 793 l 596 706 q 567 833 592 772 q 494 933 542 894 q 368 972 446 972 q 247 928 294 972 q 199 811 199 883 q 231 706 199 749 q 316 630 263 664 q 432 557 369 596 q 560 469 504 513 q 649 372 617 425 q 682 244 682 319 q 642 97 682 156 q 535 10 601 39 q 388 -19 468 -19 q 271 -3 314 -19 q 197 32 228 14 q 150 51 167 51 q 119 -10 128 51 l 88 -10 q 91 59 90 19 q 92 163 92 99 q 93 324 93 226 l 125 324 q 156 168 131 240 q 235 52 182 96 q 378 8 289 8 q 502 52 446 8 q 558 193 558 96 q 499 333 558 278 q 342 447 439 389 q 219 529 276 488 q 128 626 163 571 q 94 758 94 681 q 131 894 94 840 q 228 973 168 947 q 356 999 288 999 m 531 1286 q 581 1299 558 1304 q 615 1276 604 1294 q 621 1237 626 1258 q 586 1196 615 1215 q 519 1163 557 1178 q 430 1128 481 1149 q 307 1072 379 1108 l 297 1090 q 402 1176 361 1139 q 472 1240 443 1213 q 531 1286 501 1268 z "},"Š":{"ha":750,"x_min":88,"x_max":682,"o":"m 356 999 q 461 983 425 999 q 525 947 497 967 q 552 933 542 938 q 572 928 563 928 q 603 989 594 928 l 635 989 q 631 933 633 965 q 628 847 629 900 q 628 706 628 793 l 596 706 q 567 833 592 772 q 494 933 542 894 q 368 972 446 972 q 247 928 294 972 q 199 811 199 883 q 231 706 199 749 q 316 630 263 664 q 432 557 369 596 q 560 469 504 513 q 649 372 617 425 q 682 244 682 319 q 642 97 682 156 q 535 10 601 39 q 388 -19 468 -19 q 271 -3 314 -19 q 197 32 228 14 q 150 51 167 51 q 119 -10 128 51 l 88 -10 q 91 59 90 19 q 92 163 92 99 q 93 324 93 226 l 125 324 q 156 168 131 240 q 235 52 182 96 q 378 8 289 8 q 502 52 446 8 q 558 193 558 96 q 499 333 558 278 q 342 447 439 389 q 219 529 276 488 q 128 626 163 571 q 94 758 94 681 q 131 894 94 840 q 228 973 168 947 q 356 999 288 999 m 643 1286 l 650 1267 q 491 1186 560 1236 q 390 1083 422 1136 l 365 1083 q 265 1186 333 1136 q 106 1267 196 1236 l 113 1286 q 277 1242 196 1268 q 406 1189 358 1215 q 511 1242 446 1215 q 643 1286 576 1268 z "},"Ş":{"ha":750,"x_min":88,"x_max":682,"o":"m 356 999 q 461 983 425 999 q 525 947 497 967 q 552 933 542 938 q 572 928 563 928 q 603 989 594 928 l 635 989 q 631 933 633 965 q 628 847 629 900 q 628 706 628 793 l 596 706 q 567 833 592 772 q 494 933 542 894 q 368 972 446 972 q 247 928 294 972 q 199 811 199 883 q 231 706 199 749 q 316 630 263 664 q 432 557 369 596 q 560 469 504 513 q 649 372 617 425 q 682 244 682 319 q 642 97 682 156 q 535 10 601 39 q 388 -19 468 -19 q 271 -3 314 -19 q 197 32 228 14 q 150 51 167 51 q 119 -10 128 51 l 88 -10 q 91 59 90 19 q 92 163 92 99 q 93 324 93 226 l 125 324 q 156 168 131 240 q 235 52 182 96 q 378 8 289 8 q 502 52 446 8 q 558 193 558 96 q 499 333 558 278 q 342 447 439 389 q 219 529 276 488 q 128 626 163 571 q 94 758 94 681 q 131 894 94 840 q 228 973 168 947 q 356 999 288 999 m 413 7 l 376 -100 q 415 -93 394 -96 q 458 -90 436 -90 q 520 -107 497 -90 q 543 -156 543 -124 q 517 -217 543 -194 q 456 -251 492 -240 q 386 -261 419 -261 q 319 -256 347 -261 q 271 -246 290 -251 l 276 -221 q 298 -224 283 -222 q 329 -225 313 -225 q 412 -212 369 -225 q 454 -162 454 -200 q 439 -133 454 -143 q 396 -124 424 -124 q 364 -126 385 -124 q 328 -133 343 -128 l 375 7 l 413 7 z "},"Ŝ":{"ha":750,"x_min":88,"x_max":682,"o":"m 356 999 q 461 983 425 999 q 525 947 497 967 q 552 933 542 938 q 572 928 563 928 q 603 989 594 928 l 635 989 q 631 933 633 965 q 628 847 629 900 q 628 706 628 793 l 596 706 q 567 833 592 772 q 494 933 542 894 q 368 972 446 972 q 247 928 294 972 q 199 811 199 883 q 231 706 199 749 q 316 630 263 664 q 432 557 369 596 q 560 469 504 513 q 649 372 617 425 q 682 244 682 319 q 642 97 682 156 q 535 10 601 39 q 388 -19 468 -19 q 271 -3 314 -19 q 197 32 228 14 q 150 51 167 51 q 119 -10 128 51 l 88 -10 q 91 59 90 19 q 92 163 92 99 q 93 324 93 226 l 125 324 q 156 168 131 240 q 235 52 182 96 q 378 8 289 8 q 502 52 446 8 q 558 193 558 96 q 499 333 558 278 q 342 447 439 389 q 219 529 276 488 q 128 626 163 571 q 94 758 94 681 q 131 894 94 840 q 228 973 168 947 q 356 999 288 999 m 394 1272 q 495 1170 426 1219 q 654 1089 564 1121 l 647 1069 q 483 1114 564 1088 q 354 1167 403 1140 q 249 1114 315 1140 q 117 1069 183 1088 l 110 1089 q 269 1170 200 1121 q 369 1272 338 1219 l 394 1272 z "},"Ș":{"ha":750,"x_min":88,"x_max":682,"o":"m 356 999 q 461 983 425 999 q 525 947 497 967 q 552 933 542 938 q 572 928 563 928 q 603 989 594 928 l 635 989 q 631 933 633 965 q 628 847 629 900 q 628 706 628 793 l 596 706 q 567 833 592 772 q 494 933 542 894 q 368 972 446 972 q 247 928 294 972 q 199 811 199 883 q 231 706 199 749 q 316 630 263 664 q 432 557 369 596 q 560 469 504 513 q 649 372 617 425 q 682 244 682 319 q 642 97 682 156 q 535 10 601 39 q 388 -19 468 -19 q 271 -3 314 -19 q 197 32 228 14 q 150 51 167 51 q 119 -10 128 51 l 88 -10 q 91 59 90 19 q 92 163 92 99 q 93 324 93 226 l 125 324 q 156 168 131 240 q 235 52 182 96 q 378 8 289 8 q 502 52 446 8 q 558 193 558 96 q 499 333 558 278 q 342 447 439 389 q 219 529 276 488 q 128 626 163 571 q 94 758 94 681 q 131 894 94 840 q 228 973 168 947 q 356 999 288 999 z "},"ẞ":{"ha":946,"x_min":22,"x_max":892,"o":"m 511 1003 q 669 978 599 1003 q 801 904 740 953 l 592 572 q 744 513 676 554 q 852 410 813 471 q 892 269 892 349 q 850 126 892 192 q 731 20 808 60 q 547 -19 654 -19 q 467 -12 499 -19 q 415 6 435 -4 q 363 49 379 24 q 347 101 347 75 q 368 154 347 133 q 421 175 389 175 q 475 156 453 175 q 497 100 497 136 q 481 52 497 69 q 439 29 465 35 q 488 11 454 15 q 540 7 521 7 q 659 45 613 7 q 729 144 706 83 q 753 274 753 206 q 674 485 753 406 q 467 582 594 564 l 685 938 q 613 968 658 958 q 526 978 568 978 q 399 947 458 978 q 301 838 339 915 q 264 617 264 760 l 264 147 q 278 53 264 78 q 340 28 293 29 l 340 0 q 299 1 319 0 q 252 3 279 3 q 182 4 225 4 q 128 3 158 4 q 70 2 99 3 q 22 0 42 1 l 22 28 q 94 39 69 31 q 126 72 118 47 q 135 147 135 97 l 135 532 q 233 890 135 776 q 511 1003 332 1003 z "},"Ə":{"ha":976,"x_min":74,"x_max":903,"o":"m 469 -19 q 266 26 356 -19 q 125 168 176 72 q 74 411 74 264 l 817 411 l 818 385 l 210 385 q 237 193 204 279 q 333 57 269 107 q 485 7 397 7 q 673 102 599 7 q 764 399 747 197 l 760 404 q 764 450 763 425 q 765 497 765 475 q 740 694 765 608 q 667 840 714 781 q 561 931 621 900 q 432 963 501 963 q 311 940 376 963 q 204 869 246 918 q 162 790 176 838 q 135 664 147 742 l 103 664 q 101 858 103 785 q 97 983 100 932 l 129 983 q 150 907 136 919 q 192 913 164 894 q 260 955 224 935 q 344 989 296 975 q 461 1003 393 1003 q 699 940 600 1003 q 850 761 797 876 q 903 488 903 646 q 852 219 903 333 q 705 43 801 106 q 469 -19 608 -19 z "},"T":{"ha":863,"x_min":40,"x_max":822,"o":"m 822 983 q 815 881 817 931 q 813 806 813 832 q 814 743 813 772 q 817 692 815 714 l 785 692 q 758 845 775 789 q 700 926 742 901 q 571 951 658 951 l 496 951 l 496 161 q 506 78 496 106 q 547 40 517 50 q 636 28 578 31 l 636 0 q 544 3 600 3 q 432 4 489 4 q 315 3 369 4 q 226 0 260 3 l 226 28 q 315 40 285 31 q 356 78 346 50 q 367 161 367 106 l 367 951 l 292 951 q 163 926 206 951 q 104 845 121 901 q 78 692 88 789 l 46 692 q 49 743 49 714 q 50 806 50 772 q 48 881 50 832 q 40 983 46 931 q 167 981 99 982 q 306 979 236 979 q 432 979 375 979 q 558 979 489 979 q 696 981 626 979 q 822 983 765 982 z "},"Ŧ":{"ha":863,"x_min":40,"x_max":822,"o":"m 822 983 q 815 881 817 931 q 813 806 813 832 q 814 743 813 772 q 817 692 815 714 l 785 692 q 758 845 775 789 q 700 926 742 901 q 571 951 658 951 l 496 951 l 496 161 q 506 78 496 106 q 547 40 517 50 q 636 28 578 31 l 636 0 q 544 3 600 3 q 432 4 489 4 q 315 3 369 4 q 226 0 260 3 l 226 28 q 315 40 285 31 q 356 78 346 50 q 367 161 367 106 l 367 951 l 292 951 q 163 926 206 951 q 104 845 121 901 q 78 692 88 789 l 46 692 q 49 743 49 714 q 50 806 50 772 q 48 881 50 832 q 40 983 46 931 q 167 981 99 982 q 306 979 236 979 q 432 979 375 979 q 558 979 489 979 q 696 981 626 979 q 822 983 765 982 m 728 506 l 728 478 l 138 478 l 138 506 l 728 506 z "},"Ť":{"ha":863,"x_min":40,"x_max":822,"o":"m 822 983 q 815 881 817 931 q 813 806 813 832 q 814 743 813 772 q 817 692 815 714 l 785 692 q 758 845 775 789 q 700 926 742 901 q 571 951 658 951 l 496 951 l 496 161 q 506 78 496 106 q 547 40 517 50 q 636 28 578 31 l 636 0 q 544 3 600 3 q 432 4 489 4 q 315 3 369 4 q 226 0 260 3 l 226 28 q 315 40 285 31 q 356 78 346 50 q 367 161 367 106 l 367 951 l 292 951 q 163 926 206 951 q 104 845 121 901 q 78 692 88 789 l 46 692 q 49 743 49 714 q 50 806 50 772 q 48 881 50 832 q 40 983 46 931 q 167 981 99 982 q 306 979 236 979 q 432 979 375 979 q 558 979 489 979 q 696 981 626 979 q 822 983 765 982 m 693 1286 l 700 1267 q 541 1186 610 1236 q 440 1083 472 1136 l 415 1083 q 315 1186 383 1136 q 156 1267 246 1236 l 163 1286 q 327 1242 246 1268 q 456 1189 408 1215 q 561 1242 496 1215 q 693 1286 626 1268 z "},"Ţ":{"ha":863,"x_min":40,"x_max":822,"o":"m 822 983 q 815 881 817 931 q 813 806 813 832 q 814 743 813 772 q 817 692 815 714 l 785 692 q 758 845 775 789 q 700 926 742 901 q 571 951 658 951 l 496 951 l 496 161 q 506 78 496 106 q 547 40 517 50 q 636 28 578 31 l 636 0 q 544 3 600 3 q 432 4 489 4 q 315 3 369 4 q 226 0 260 3 l 226 28 q 315 40 285 31 q 356 78 346 50 q 367 161 367 106 l 367 951 l 292 951 q 163 926 206 951 q 104 845 121 901 q 78 692 88 789 l 46 692 q 49 743 49 714 q 50 806 50 772 q 48 881 50 832 q 40 983 46 931 q 167 981 99 982 q 306 979 236 979 q 432 979 375 979 q 558 979 489 979 q 696 981 626 979 q 822 983 765 982 m 447 7 l 411 -100 q 450 -93 429 -96 q 493 -90 471 -90 q 555 -107 532 -90 q 578 -156 578 -124 q 552 -217 578 -194 q 490 -251 526 -240 q 421 -261 454 -261 q 353 -256 382 -261 q 306 -246 325 -251 l 311 -221 q 333 -224 318 -222 q 364 -225 347 -225 q 447 -212 404 -225 q 489 -162 489 -200 q 474 -133 489 -143 q 431 -124 458 -124 q 399 -126 419 -124 q 363 -133 378 -128 l 410 7 l 447 7 z "},"Ț":{"ha":863,"x_min":40,"x_max":822,"o":"m 822 983 q 815 881 817 931 q 813 806 813 832 q 814 743 813 772 q 817 692 815 714 l 785 692 q 758 845 775 789 q 700 926 742 901 q 571 951 658 951 l 496 951 l 496 161 q 506 78 496 106 q 547 40 517 50 q 636 28 578 31 l 636 0 q 544 3 600 3 q 432 4 489 4 q 315 3 369 4 q 226 0 260 3 l 226 28 q 315 40 285 31 q 356 78 346 50 q 367 161 367 106 l 367 951 l 292 951 q 163 926 206 951 q 104 845 121 901 q 78 692 88 789 l 46 692 q 49 743 49 714 q 50 806 50 772 q 48 881 50 832 q 40 983 46 931 q 167 981 99 982 q 306 979 236 979 q 432 979 375 979 q 558 979 489 979 q 696 981 626 979 q 822 983 765 982 z "},"U":{"ha":947,"x_min":38,"x_max":910,"o":"m 910 983 l 910 956 q 838 942 863 954 q 806 901 814 929 q 797 822 797 874 l 797 404 q 785 235 797 307 q 740 110 772 163 q 639 16 706 51 q 486 -19 572 -19 q 359 -3 419 -19 q 253 56 299 13 q 190 138 213 94 q 158 243 167 181 q 150 400 150 306 l 150 836 q 142 912 150 888 q 109 945 133 936 q 38 956 85 954 l 38 983 q 114 981 67 982 q 215 979 161 979 q 312 981 264 979 q 392 983 360 982 l 392 956 q 320 945 344 954 q 288 912 296 936 q 279 836 279 888 l 279 376 q 293 203 279 282 q 353 76 307 124 q 499 29 400 29 q 662 76 604 29 q 742 204 719 122 q 765 389 765 286 l 765 822 q 753 901 765 874 q 714 942 742 929 q 639 956 686 954 l 639 983 q 705 981 664 982 q 781 979 746 979 q 852 981 817 979 q 910 983 888 982 z "},"Ú":{"ha":947,"x_min":38,"x_max":910,"o":"m 910 983 l 910 956 q 838 942 863 954 q 806 901 814 929 q 797 822 797 874 l 797 404 q 785 235 797 307 q 740 110 772 163 q 639 16 706 51 q 486 -19 572 -19 q 359 -3 419 -19 q 253 56 299 13 q 190 138 213 94 q 158 243 167 181 q 150 400 150 306 l 150 836 q 142 912 150 888 q 109 945 133 936 q 38 956 85 954 l 38 983 q 114 981 67 982 q 215 979 161 979 q 312 981 264 979 q 392 983 360 982 l 392 956 q 320 945 344 954 q 288 912 296 936 q 279 836 279 888 l 279 376 q 293 203 279 282 q 353 76 307 124 q 499 29 400 29 q 662 76 604 29 q 742 204 719 122 q 765 389 765 286 l 765 822 q 753 901 765 874 q 714 942 742 929 q 639 956 686 954 l 639 983 q 705 981 664 982 q 781 979 746 979 q 852 981 817 979 q 910 983 888 982 m 638 1286 q 688 1299 665 1304 q 722 1276 711 1294 q 728 1237 733 1258 q 693 1196 722 1215 q 626 1163 664 1178 q 537 1128 588 1149 q 414 1072 486 1108 l 404 1090 q 509 1176 468 1139 q 579 1240 550 1213 q 638 1286 608 1268 z "},"Ŭ":{"ha":947,"x_min":38,"x_max":910,"o":"m 910 983 l 910 956 q 838 942 863 954 q 806 901 814 929 q 797 822 797 874 l 797 404 q 785 235 797 307 q 740 110 772 163 q 639 16 706 51 q 486 -19 572 -19 q 359 -3 419 -19 q 253 56 299 13 q 190 138 213 94 q 158 243 167 181 q 150 400 150 306 l 150 836 q 142 912 150 888 q 109 945 133 936 q 38 956 85 954 l 38 983 q 114 981 67 982 q 215 979 161 979 q 312 981 264 979 q 392 983 360 982 l 392 956 q 320 945 344 954 q 288 912 296 936 q 279 836 279 888 l 279 376 q 293 203 279 282 q 353 76 307 124 q 499 29 400 29 q 662 76 604 29 q 742 204 719 122 q 765 389 765 286 l 765 822 q 753 901 765 874 q 714 942 742 929 q 639 956 686 954 l 639 983 q 705 981 664 982 q 781 979 746 979 q 852 981 817 979 q 910 983 888 982 m 749 1263 l 765 1247 q 706 1174 743 1211 q 614 1111 668 1136 q 489 1086 560 1086 q 364 1111 418 1086 q 272 1174 310 1136 q 213 1247 235 1211 l 231 1261 q 326 1201 263 1231 q 489 1172 389 1172 q 653 1202 589 1172 q 749 1263 717 1232 z "},"Ǔ":{"ha":947,"x_min":38,"x_max":910,"o":"m 910 983 l 910 956 q 838 942 863 954 q 806 901 814 929 q 797 822 797 874 l 797 404 q 785 235 797 307 q 740 110 772 163 q 639 16 706 51 q 486 -19 572 -19 q 359 -3 419 -19 q 253 56 299 13 q 190 138 213 94 q 158 243 167 181 q 150 400 150 306 l 150 836 q 142 912 150 888 q 109 945 133 936 q 38 956 85 954 l 38 983 q 114 981 67 982 q 215 979 161 979 q 312 981 264 979 q 392 983 360 982 l 392 956 q 320 945 344 954 q 288 912 296 936 q 279 836 279 888 l 279 376 q 293 203 279 282 q 353 76 307 124 q 499 29 400 29 q 662 76 604 29 q 742 204 719 122 q 765 389 765 286 l 765 822 q 753 901 765 874 q 714 942 742 929 q 639 956 686 954 l 639 983 q 705 981 664 982 q 781 979 746 979 q 852 981 817 979 q 910 983 888 982 m 750 1286 l 757 1267 q 598 1186 667 1236 q 497 1083 529 1136 l 472 1083 q 372 1186 440 1136 q 213 1267 303 1236 l 219 1286 q 384 1242 303 1268 q 513 1189 465 1215 q 618 1242 553 1215 q 750 1286 683 1268 z "},"Û":{"ha":947,"x_min":38,"x_max":910,"o":"m 910 983 l 910 956 q 838 942 863 954 q 806 901 814 929 q 797 822 797 874 l 797 404 q 785 235 797 307 q 740 110 772 163 q 639 16 706 51 q 486 -19 572 -19 q 359 -3 419 -19 q 253 56 299 13 q 190 138 213 94 q 158 243 167 181 q 150 400 150 306 l 150 836 q 142 912 150 888 q 109 945 133 936 q 38 956 85 954 l 38 983 q 114 981 67 982 q 215 979 161 979 q 312 981 264 979 q 392 983 360 982 l 392 956 q 320 945 344 954 q 288 912 296 936 q 279 836 279 888 l 279 376 q 293 203 279 282 q 353 76 307 124 q 499 29 400 29 q 662 76 604 29 q 742 204 719 122 q 765 389 765 286 l 765 822 q 753 901 765 874 q 714 942 742 929 q 639 956 686 954 l 639 983 q 705 981 664 982 q 781 979 746 979 q 852 981 817 979 q 910 983 888 982 m 501 1272 q 602 1170 533 1219 q 761 1089 671 1121 l 754 1069 q 590 1114 671 1088 q 461 1167 510 1140 q 356 1114 422 1140 q 224 1069 290 1088 l 217 1089 q 376 1170 307 1121 q 476 1272 444 1219 l 501 1272 z "},"Ü":{"ha":947,"x_min":38,"x_max":910,"o":"m 910 983 l 910 956 q 838 942 863 954 q 806 901 814 929 q 797 822 797 874 l 797 404 q 785 235 797 307 q 740 110 772 163 q 639 16 706 51 q 486 -19 572 -19 q 359 -3 419 -19 q 253 56 299 13 q 190 138 213 94 q 158 243 167 181 q 150 400 150 306 l 150 836 q 142 912 150 888 q 109 945 133 936 q 38 956 85 954 l 38 983 q 114 981 67 982 q 215 979 161 979 q 312 981 264 979 q 392 983 360 982 l 392 956 q 320 945 344 954 q 288 912 296 936 q 279 836 279 888 l 279 376 q 293 203 279 282 q 353 76 307 124 q 499 29 400 29 q 662 76 604 29 q 742 204 719 122 q 765 389 765 286 l 765 822 q 753 901 765 874 q 714 942 742 929 q 639 956 686 954 l 639 983 q 705 981 664 982 q 781 979 746 979 q 852 981 817 979 q 910 983 888 982 m 636 1233 q 692 1209 668 1233 q 717 1153 717 1185 q 692 1096 717 1119 q 636 1072 668 1072 q 579 1096 603 1072 q 556 1153 556 1119 q 579 1209 556 1185 q 636 1233 603 1233 m 342 1233 q 398 1209 374 1233 q 422 1153 422 1185 q 398 1096 422 1119 q 342 1072 374 1072 q 285 1096 308 1072 q 261 1153 261 1119 q 285 1209 261 1185 q 342 1233 308 1233 z "},"Ụ":{"ha":947,"x_min":38,"x_max":910,"o":"m 910 983 l 910 956 q 838 942 863 954 q 806 901 814 929 q 797 822 797 874 l 797 404 q 785 235 797 307 q 740 110 772 163 q 639 16 706 51 q 486 -19 572 -19 q 359 -3 419 -19 q 253 56 299 13 q 190 138 213 94 q 158 243 167 181 q 150 400 150 306 l 150 836 q 142 912 150 888 q 109 945 133 936 q 38 956 85 954 l 38 983 q 114 981 67 982 q 215 979 161 979 q 312 981 264 979 q 392 983 360 982 l 392 956 q 320 945 344 954 q 288 912 296 936 q 279 836 279 888 l 279 376 q 293 203 279 282 q 353 76 307 124 q 499 29 400 29 q 662 76 604 29 q 742 204 719 122 q 765 389 765 286 l 765 822 q 753 901 765 874 q 714 942 742 929 q 639 956 686 954 l 639 983 q 705 981 664 982 q 781 979 746 979 q 852 981 817 979 q 910 983 888 982 m 500 -251 q 443 -230 467 -251 q 419 -174 419 -208 q 441 -119 419 -142 q 500 -96 463 -96 q 559 -119 538 -96 q 581 -175 581 -143 q 556 -231 581 -210 q 500 -251 532 -251 z "},"Ù":{"ha":947,"x_min":38,"x_max":910,"o":"m 910 983 l 910 956 q 838 942 863 954 q 806 901 814 929 q 797 822 797 874 l 797 404 q 785 235 797 307 q 740 110 772 163 q 639 16 706 51 q 486 -19 572 -19 q 359 -3 419 -19 q 253 56 299 13 q 190 138 213 94 q 158 243 167 181 q 150 400 150 306 l 150 836 q 142 912 150 888 q 109 945 133 936 q 38 956 85 954 l 38 983 q 114 981 67 982 q 215 979 161 979 q 312 981 264 979 q 392 983 360 982 l 392 956 q 320 945 344 954 q 288 912 296 936 q 279 836 279 888 l 279 376 q 293 203 279 282 q 353 76 307 124 q 499 29 400 29 q 662 76 604 29 q 742 204 719 122 q 765 389 765 286 l 765 822 q 753 901 765 874 q 714 942 742 929 q 639 956 686 954 l 639 983 q 705 981 664 982 q 781 979 746 979 q 852 981 817 979 q 910 983 888 982 m 349 1286 q 407 1240 378 1268 q 477 1176 436 1213 q 582 1090 518 1139 l 572 1072 q 449 1128 501 1108 q 360 1163 397 1149 q 293 1196 324 1178 q 258 1237 264 1215 q 264 1276 253 1258 q 298 1299 275 1294 q 349 1286 321 1304 z "},"Ủ":{"ha":947,"x_min":38,"x_max":910,"o":"m 910 983 l 910 956 q 838 942 863 954 q 806 901 814 929 q 797 822 797 874 l 797 404 q 785 235 797 307 q 740 110 772 163 q 639 16 706 51 q 486 -19 572 -19 q 359 -3 419 -19 q 253 56 299 13 q 190 138 213 94 q 158 243 167 181 q 150 400 150 306 l 150 836 q 142 912 150 888 q 109 945 133 936 q 38 956 85 954 l 38 983 q 114 981 67 982 q 215 979 161 979 q 312 981 264 979 q 392 983 360 982 l 392 956 q 320 945 344 954 q 288 912 296 936 q 279 836 279 888 l 279 376 q 293 203 279 282 q 353 76 307 124 q 499 29 400 29 q 662 76 604 29 q 742 204 719 122 q 765 389 765 286 l 765 822 q 753 901 765 874 q 714 942 742 929 q 639 956 686 954 l 639 983 q 705 981 664 982 q 781 979 746 979 q 852 981 817 979 q 910 983 888 982 m 475 1064 l 475 1140 q 545 1186 524 1160 q 567 1244 567 1213 q 538 1305 567 1285 q 469 1325 510 1325 q 433 1321 453 1325 q 403 1303 414 1317 q 447 1246 447 1293 q 429 1201 447 1217 q 385 1185 411 1185 q 342 1201 358 1185 q 325 1243 325 1217 q 341 1290 325 1269 q 379 1325 357 1311 q 426 1344 399 1336 q 496 1353 453 1353 q 572 1343 533 1353 q 636 1312 610 1333 q 663 1253 663 1290 q 619 1176 663 1208 q 503 1128 576 1143 l 503 1064 l 475 1064 z "},"Ư":{"ha":947,"x_min":38,"x_max":1017,"o":"m 486 -19 q 359 -3 419 -19 q 253 56 299 13 q 190 138 213 94 q 158 243 167 181 q 150 400 150 306 l 150 836 q 142 912 150 888 q 109 945 133 936 q 38 956 85 954 l 38 983 q 114 981 67 982 q 215 979 161 979 q 312 981 264 979 q 392 983 360 982 l 392 956 q 320 945 344 954 q 288 912 296 936 q 279 836 279 888 l 279 376 q 293 203 279 282 q 353 76 307 124 q 499 29 400 29 q 662 76 604 29 q 742 204 719 122 q 765 389 765 286 l 765 968 l 771 953 q 703 952 738 951 q 636 956 669 953 l 643 983 q 691 981 663 982 q 746 979 719 979 q 828 985 783 979 q 917 1026 872 992 l 915 1019 q 876 1060 894 1035 q 858 1117 858 1086 q 878 1174 858 1149 q 939 1200 899 1200 q 997 1177 978 1200 q 1017 1122 1017 1154 q 991 1055 1017 1086 q 926 1000 965 1024 q 850 965 885 975 q 783 953 815 954 l 797 967 l 797 404 q 785 235 797 307 q 740 110 772 163 q 639 16 706 51 q 486 -19 572 -19 z "},"Ứ":{"ha":947,"x_min":38,"x_max":1017,"o":"m 486 -19 q 359 -3 419 -19 q 253 56 299 13 q 190 138 213 94 q 158 243 167 181 q 150 400 150 306 l 150 836 q 142 912 150 888 q 109 945 133 936 q 38 956 85 954 l 38 983 q 114 981 67 982 q 215 979 161 979 q 312 981 264 979 q 392 983 360 982 l 392 956 q 320 945 344 954 q 288 912 296 936 q 279 836 279 888 l 279 376 q 293 203 279 282 q 353 76 307 124 q 499 29 400 29 q 662 76 604 29 q 742 204 719 122 q 765 389 765 286 l 765 968 l 771 953 q 703 952 738 951 q 636 956 669 953 l 643 983 q 691 981 663 982 q 746 979 719 979 q 828 985 783 979 q 917 1026 872 992 l 915 1019 q 876 1060 894 1035 q 858 1117 858 1086 q 878 1174 858 1149 q 939 1200 899 1200 q 997 1177 978 1200 q 1017 1122 1017 1154 q 991 1055 1017 1086 q 926 1000 965 1024 q 850 965 885 975 q 783 953 815 954 l 797 967 l 797 404 q 785 235 797 307 q 740 110 772 163 q 639 16 706 51 q 486 -19 572 -19 m 638 1286 q 688 1299 665 1304 q 722 1276 711 1294 q 728 1237 733 1258 q 693 1196 722 1215 q 626 1163 664 1178 q 537 1128 588 1149 q 414 1072 486 1108 l 404 1090 q 509 1176 468 1139 q 579 1240 550 1213 q 638 1286 608 1268 z "},"Ự":{"ha":947,"x_min":38,"x_max":1017,"o":"m 486 -19 q 359 -3 419 -19 q 253 56 299 13 q 190 138 213 94 q 158 243 167 181 q 150 400 150 306 l 150 836 q 142 912 150 888 q 109 945 133 936 q 38 956 85 954 l 38 983 q 114 981 67 982 q 215 979 161 979 q 312 981 264 979 q 392 983 360 982 l 392 956 q 320 945 344 954 q 288 912 296 936 q 279 836 279 888 l 279 376 q 293 203 279 282 q 353 76 307 124 q 499 29 400 29 q 662 76 604 29 q 742 204 719 122 q 765 389 765 286 l 765 968 l 771 953 q 703 952 738 951 q 636 956 669 953 l 643 983 q 691 981 663 982 q 746 979 719 979 q 828 985 783 979 q 917 1026 872 992 l 915 1019 q 876 1060 894 1035 q 858 1117 858 1086 q 878 1174 858 1149 q 939 1200 899 1200 q 997 1177 978 1200 q 1017 1122 1017 1154 q 991 1055 1017 1086 q 926 1000 965 1024 q 850 965 885 975 q 783 953 815 954 l 797 967 l 797 404 q 785 235 797 307 q 740 110 772 163 q 639 16 706 51 q 486 -19 572 -19 m 500 -251 q 443 -230 467 -251 q 419 -174 419 -208 q 441 -119 419 -142 q 500 -96 463 -96 q 559 -119 538 -96 q 581 -175 581 -143 q 556 -231 581 -210 q 500 -251 532 -251 z "},"Ừ":{"ha":947,"x_min":38,"x_max":1017,"o":"m 486 -19 q 359 -3 419 -19 q 253 56 299 13 q 190 138 213 94 q 158 243 167 181 q 150 400 150 306 l 150 836 q 142 912 150 888 q 109 945 133 936 q 38 956 85 954 l 38 983 q 114 981 67 982 q 215 979 161 979 q 312 981 264 979 q 392 983 360 982 l 392 956 q 320 945 344 954 q 288 912 296 936 q 279 836 279 888 l 279 376 q 293 203 279 282 q 353 76 307 124 q 499 29 400 29 q 662 76 604 29 q 742 204 719 122 q 765 389 765 286 l 765 968 l 771 953 q 703 952 738 951 q 636 956 669 953 l 643 983 q 691 981 663 982 q 746 979 719 979 q 828 985 783 979 q 917 1026 872 992 l 915 1019 q 876 1060 894 1035 q 858 1117 858 1086 q 878 1174 858 1149 q 939 1200 899 1200 q 997 1177 978 1200 q 1017 1122 1017 1154 q 991 1055 1017 1086 q 926 1000 965 1024 q 850 965 885 975 q 783 953 815 954 l 797 967 l 797 404 q 785 235 797 307 q 740 110 772 163 q 639 16 706 51 q 486 -19 572 -19 m 349 1286 q 407 1240 378 1268 q 477 1176 436 1213 q 582 1090 518 1139 l 572 1072 q 449 1128 501 1108 q 360 1163 397 1149 q 293 1196 324 1178 q 258 1237 264 1215 q 264 1276 253 1258 q 298 1299 275 1294 q 349 1286 321 1304 z "},"Ử":{"ha":947,"x_min":38,"x_max":1017,"o":"m 486 -19 q 359 -3 419 -19 q 253 56 299 13 q 190 138 213 94 q 158 243 167 181 q 150 400 150 306 l 150 836 q 142 912 150 888 q 109 945 133 936 q 38 956 85 954 l 38 983 q 114 981 67 982 q 215 979 161 979 q 312 981 264 979 q 392 983 360 982 l 392 956 q 320 945 344 954 q 288 912 296 936 q 279 836 279 888 l 279 376 q 293 203 279 282 q 353 76 307 124 q 499 29 400 29 q 662 76 604 29 q 742 204 719 122 q 765 389 765 286 l 765 968 l 771 953 q 703 952 738 951 q 636 956 669 953 l 643 983 q 691 981 663 982 q 746 979 719 979 q 828 985 783 979 q 917 1026 872 992 l 915 1019 q 876 1060 894 1035 q 858 1117 858 1086 q 878 1174 858 1149 q 939 1200 899 1200 q 997 1177 978 1200 q 1017 1122 1017 1154 q 991 1055 1017 1086 q 926 1000 965 1024 q 850 965 885 975 q 783 953 815 954 l 797 967 l 797 404 q 785 235 797 307 q 740 110 772 163 q 639 16 706 51 q 486 -19 572 -19 m 475 1064 l 475 1140 q 545 1186 524 1160 q 567 1244 567 1213 q 538 1305 567 1285 q 469 1325 510 1325 q 433 1321 453 1325 q 403 1303 414 1317 q 447 1246 447 1293 q 429 1201 447 1217 q 385 1185 411 1185 q 342 1201 358 1185 q 325 1243 325 1217 q 341 1290 325 1269 q 379 1325 357 1311 q 426 1344 399 1336 q 496 1353 453 1353 q 572 1343 533 1353 q 636 1312 610 1333 q 663 1253 663 1290 q 619 1176 663 1208 q 503 1128 576 1143 l 503 1064 l 475 1064 z "},"Ữ":{"ha":947,"x_min":38,"x_max":1017,"o":"m 486 -19 q 359 -3 419 -19 q 253 56 299 13 q 190 138 213 94 q 158 243 167 181 q 150 400 150 306 l 150 836 q 142 912 150 888 q 109 945 133 936 q 38 956 85 954 l 38 983 q 114 981 67 982 q 215 979 161 979 q 312 981 264 979 q 392 983 360 982 l 392 956 q 320 945 344 954 q 288 912 296 936 q 279 836 279 888 l 279 376 q 293 203 279 282 q 353 76 307 124 q 499 29 400 29 q 662 76 604 29 q 742 204 719 122 q 765 389 765 286 l 765 968 l 771 953 q 703 952 738 951 q 636 956 669 953 l 643 983 q 691 981 663 982 q 746 979 719 979 q 828 985 783 979 q 917 1026 872 992 l 915 1019 q 876 1060 894 1035 q 858 1117 858 1086 q 878 1174 858 1149 q 939 1200 899 1200 q 997 1177 978 1200 q 1017 1122 1017 1154 q 991 1055 1017 1086 q 926 1000 965 1024 q 850 965 885 975 q 783 953 815 954 l 797 967 l 797 404 q 785 235 797 307 q 740 110 772 163 q 639 16 706 51 q 486 -19 572 -19 m 376 1253 q 449 1237 415 1253 q 514 1199 482 1221 q 578 1162 546 1178 q 646 1146 610 1146 q 697 1163 674 1146 q 732 1224 719 1179 l 753 1219 q 702 1112 747 1151 q 599 1072 657 1072 q 526 1088 560 1072 q 461 1126 493 1104 q 397 1163 429 1147 q 329 1179 365 1179 q 278 1163 300 1179 q 243 1101 256 1146 l 222 1106 q 274 1214 229 1175 q 376 1253 318 1253 z "},"Ű":{"ha":947,"x_min":38,"x_max":910,"o":"m 910 983 l 910 956 q 838 942 863 954 q 806 901 814 929 q 797 822 797 874 l 797 404 q 785 235 797 307 q 740 110 772 163 q 639 16 706 51 q 486 -19 572 -19 q 359 -3 419 -19 q 253 56 299 13 q 190 138 213 94 q 158 243 167 181 q 150 400 150 306 l 150 836 q 142 912 150 888 q 109 945 133 936 q 38 956 85 954 l 38 983 q 114 981 67 982 q 215 979 161 979 q 312 981 264 979 q 392 983 360 982 l 392 956 q 320 945 344 954 q 288 912 296 936 q 279 836 279 888 l 279 376 q 293 203 279 282 q 353 76 307 124 q 499 29 400 29 q 662 76 604 29 q 742 204 719 122 q 765 389 765 286 l 765 822 q 753 901 765 874 q 714 942 742 929 q 639 956 686 954 l 639 983 q 705 981 664 982 q 781 979 746 979 q 852 981 817 979 q 910 983 888 982 m 706 1281 q 753 1301 731 1303 q 790 1283 776 1299 q 803 1244 806 1267 q 774 1199 800 1222 q 674 1139 733 1165 q 556 1072 614 1113 l 543 1089 q 603 1158 576 1122 q 655 1226 631 1193 q 706 1281 679 1258 m 446 1281 q 494 1301 471 1303 q 531 1283 517 1299 q 543 1244 546 1267 q 514 1199 540 1222 q 414 1139 474 1165 q 296 1072 354 1113 l 283 1089 q 344 1158 317 1122 q 395 1226 371 1193 q 446 1281 419 1258 z "},"Ū":{"ha":947,"x_min":38,"x_max":910,"o":"m 910 983 l 910 956 q 838 942 863 954 q 806 901 814 929 q 797 822 797 874 l 797 404 q 785 235 797 307 q 740 110 772 163 q 639 16 706 51 q 486 -19 572 -19 q 359 -3 419 -19 q 253 56 299 13 q 190 138 213 94 q 158 243 167 181 q 150 400 150 306 l 150 836 q 142 912 150 888 q 109 945 133 936 q 38 956 85 954 l 38 983 q 114 981 67 982 q 215 979 161 979 q 312 981 264 979 q 392 983 360 982 l 392 956 q 320 945 344 954 q 288 912 296 936 q 279 836 279 888 l 279 376 q 293 203 279 282 q 353 76 307 124 q 499 29 400 29 q 662 76 604 29 q 742 204 719 122 q 765 389 765 286 l 765 822 q 753 901 765 874 q 714 942 742 929 q 639 956 686 954 l 639 983 q 705 981 664 982 q 781 979 746 979 q 852 981 817 979 q 910 983 888 982 m 733 1172 l 733 1138 l 244 1138 l 244 1172 l 733 1172 z "},"Ų":{"ha":947,"x_min":38,"x_max":910,"o":"m 910 983 l 910 956 q 838 942 863 954 q 806 901 814 929 q 797 822 797 874 l 797 404 q 785 235 797 307 q 740 110 772 163 q 639 16 706 51 q 486 -19 572 -19 q 359 -3 419 -19 q 253 56 299 13 q 190 138 213 94 q 158 243 167 181 q 150 400 150 306 l 150 836 q 142 912 150 888 q 109 945 133 936 q 38 956 85 954 l 38 983 q 114 981 67 982 q 215 979 161 979 q 312 981 264 979 q 392 983 360 982 l 392 956 q 320 945 344 954 q 288 912 296 936 q 279 836 279 888 l 279 376 q 293 203 279 282 q 353 76 307 124 q 499 29 400 29 q 662 76 604 29 q 742 204 719 122 q 765 389 765 286 l 765 822 q 753 901 765 874 q 714 942 742 929 q 639 956 686 954 l 639 983 q 705 981 664 982 q 781 979 746 979 q 852 981 817 979 q 910 983 888 982 m 611 4 q 499 -58 529 -18 q 468 -133 468 -97 q 484 -177 468 -160 q 528 -194 500 -194 q 576 -181 554 -194 q 613 -149 599 -167 l 633 -167 q 562 -238 601 -215 q 476 -261 522 -261 q 397 -236 426 -261 q 367 -171 367 -211 q 417 -72 367 -117 q 558 4 467 -26 l 611 4 z "},"Ů":{"ha":947,"x_min":38,"x_max":910,"o":"m 910 983 l 910 956 q 838 942 863 954 q 806 901 814 929 q 797 822 797 874 l 797 404 q 785 235 797 307 q 740 110 772 163 q 639 16 706 51 q 486 -19 572 -19 q 359 -3 419 -19 q 253 56 299 13 q 190 138 213 94 q 158 243 167 181 q 150 400 150 306 l 150 836 q 142 912 150 888 q 109 945 133 936 q 38 956 85 954 l 38 983 q 114 981 67 982 q 215 979 161 979 q 312 981 264 979 q 392 983 360 982 l 392 956 q 320 945 344 954 q 288 912 296 936 q 279 836 279 888 l 279 376 q 293 203 279 282 q 353 76 307 124 q 499 29 400 29 q 662 76 604 29 q 742 204 719 122 q 765 389 765 286 l 765 822 q 753 901 765 874 q 714 942 742 929 q 639 956 686 954 l 639 983 q 705 981 664 982 q 781 979 746 979 q 852 981 817 979 q 910 983 888 982 m 489 1368 q 583 1334 543 1368 q 624 1242 624 1300 q 583 1148 624 1182 q 489 1114 543 1114 q 396 1148 436 1114 q 356 1242 356 1182 q 396 1334 356 1300 q 489 1368 436 1368 m 489 1339 q 425 1314 456 1339 q 394 1240 394 1289 q 425 1167 394 1192 q 489 1143 456 1143 q 554 1167 524 1143 q 585 1240 585 1192 q 554 1314 585 1289 q 489 1339 524 1339 z "},"Ũ":{"ha":947,"x_min":38,"x_max":910,"o":"m 910 983 l 910 956 q 838 942 863 954 q 806 901 814 929 q 797 822 797 874 l 797 404 q 785 235 797 307 q 740 110 772 163 q 639 16 706 51 q 486 -19 572 -19 q 359 -3 419 -19 q 253 56 299 13 q 190 138 213 94 q 158 243 167 181 q 150 400 150 306 l 150 836 q 142 912 150 888 q 109 945 133 936 q 38 956 85 954 l 38 983 q 114 981 67 982 q 215 979 161 979 q 312 981 264 979 q 392 983 360 982 l 392 956 q 320 945 344 954 q 288 912 296 936 q 279 836 279 888 l 279 376 q 293 203 279 282 q 353 76 307 124 q 499 29 400 29 q 662 76 604 29 q 742 204 719 122 q 765 389 765 286 l 765 822 q 753 901 765 874 q 714 942 742 929 q 639 956 686 954 l 639 983 q 705 981 664 982 q 781 979 746 979 q 852 981 817 979 q 910 983 888 982 m 376 1253 q 449 1237 415 1253 q 514 1199 482 1221 q 578 1162 546 1178 q 646 1146 610 1146 q 697 1163 674 1146 q 732 1224 719 1179 l 753 1219 q 702 1112 747 1151 q 599 1072 657 1072 q 526 1088 560 1072 q 461 1126 493 1104 q 397 1163 429 1147 q 329 1179 365 1179 q 278 1163 300 1179 q 243 1101 256 1146 l 222 1106 q 274 1214 229 1175 q 376 1253 318 1253 z "},"V":{"ha":875,"x_min":-8,"x_max":885,"o":"m 885 983 l 885 956 q 828 924 858 950 q 775 835 799 897 l 449 -7 q 443 -7 446 -7 q 438 -7 440 -7 q 432 -7 435 -7 q 426 -7 429 -7 l 88 867 q 40 937 67 919 q -8 956 14 954 l -8 983 q 60 981 19 982 q 140 979 101 979 q 242 981 194 979 q 318 983 289 982 l 318 956 q 228 931 247 953 q 236 839 210 910 l 494 154 l 472 131 l 714 758 q 742 876 743 833 q 710 936 740 918 q 621 956 679 954 l 621 983 q 703 981 661 982 q 781 979 744 979 q 840 981 817 979 q 885 983 864 982 z "},"W":{"ha":1257,"x_min":-10,"x_max":1260,"o":"m 1260 983 l 1260 956 q 1201 924 1233 950 q 1150 835 1169 899 l 888 -7 q 882 -7 885 -7 q 876 -7 879 -7 q 871 -7 874 -7 q 865 -7 868 -7 l 571 867 q 531 938 553 921 q 489 956 508 954 l 489 983 q 551 981 514 982 q 624 979 589 979 q 725 981 678 979 q 801 983 772 982 l 801 956 q 735 947 760 954 q 708 917 711 940 q 721 839 704 893 l 928 199 l 908 182 l 1092 758 q 1115 877 1117 835 q 1083 937 1113 919 q 996 956 1054 954 l 996 983 q 1078 981 1036 982 q 1156 979 1119 979 q 1215 981 1192 979 q 1260 983 1239 982 m 289 983 l 289 956 q 237 942 253 953 q 222 906 221 931 q 236 839 222 882 l 451 182 l 417 147 l 611 768 l 632 735 l 403 -7 q 397 -7 400 -7 q 392 -7 394 -7 q 386 -7 389 -7 q 381 -7 383 -7 l 86 867 q 40 938 68 921 q -10 956 13 954 l -10 983 q 59 981 18 982 q 139 979 100 979 q 224 981 185 979 q 289 983 264 982 z "},"Ẃ":{"ha":1257,"x_min":-10,"x_max":1260,"o":"m 1260 983 l 1260 956 q 1201 924 1233 950 q 1150 835 1169 899 l 888 -7 q 882 -7 885 -7 q 876 -7 879 -7 q 871 -7 874 -7 q 865 -7 868 -7 l 571 867 q 531 938 553 921 q 489 956 508 954 l 489 983 q 551 981 514 982 q 624 979 589 979 q 725 981 678 979 q 801 983 772 982 l 801 956 q 735 947 760 954 q 708 917 711 940 q 721 839 704 893 l 928 199 l 908 182 l 1092 758 q 1115 877 1117 835 q 1083 937 1113 919 q 996 956 1054 954 l 996 983 q 1078 981 1036 982 q 1156 979 1119 979 q 1215 981 1192 979 q 1260 983 1239 982 m 289 983 l 289 956 q 237 942 253 953 q 222 906 221 931 q 236 839 222 882 l 451 182 l 417 147 l 611 768 l 632 735 l 403 -7 q 397 -7 400 -7 q 392 -7 394 -7 q 386 -7 389 -7 q 381 -7 383 -7 l 86 867 q 40 938 68 921 q -10 956 13 954 l -10 983 q 59 981 18 982 q 139 979 100 979 q 224 981 185 979 q 289 983 264 982 m 793 1286 q 844 1299 821 1304 q 878 1276 867 1294 q 883 1237 889 1258 q 849 1196 878 1215 q 781 1163 819 1178 q 692 1128 743 1149 q 569 1072 642 1108 l 560 1090 q 665 1176 624 1139 q 735 1240 706 1213 q 793 1286 764 1268 z "},"Ŵ":{"ha":1257,"x_min":-10,"x_max":1260,"o":"m 1260 983 l 1260 956 q 1201 924 1233 950 q 1150 835 1169 899 l 888 -7 q 882 -7 885 -7 q 876 -7 879 -7 q 871 -7 874 -7 q 865 -7 868 -7 l 571 867 q 531 938 553 921 q 489 956 508 954 l 489 983 q 551 981 514 982 q 624 979 589 979 q 725 981 678 979 q 801 983 772 982 l 801 956 q 735 947 760 954 q 708 917 711 940 q 721 839 704 893 l 928 199 l 908 182 l 1092 758 q 1115 877 1117 835 q 1083 937 1113 919 q 996 956 1054 954 l 996 983 q 1078 981 1036 982 q 1156 979 1119 979 q 1215 981 1192 979 q 1260 983 1239 982 m 289 983 l 289 956 q 237 942 253 953 q 222 906 221 931 q 236 839 222 882 l 451 182 l 417 147 l 611 768 l 632 735 l 403 -7 q 397 -7 400 -7 q 392 -7 394 -7 q 386 -7 389 -7 q 381 -7 383 -7 l 86 867 q 40 938 68 921 q -10 956 13 954 l -10 983 q 59 981 18 982 q 139 979 100 979 q 224 981 185 979 q 289 983 264 982 m 657 1272 q 758 1170 689 1219 q 917 1089 826 1121 l 910 1069 q 746 1114 826 1088 q 617 1167 665 1140 q 512 1114 578 1140 q 379 1069 446 1088 l 372 1089 q 531 1170 463 1121 q 632 1272 600 1219 l 657 1272 z "},"Ẅ":{"ha":1257,"x_min":-10,"x_max":1260,"o":"m 1260 983 l 1260 956 q 1201 924 1233 950 q 1150 835 1169 899 l 888 -7 q 882 -7 885 -7 q 876 -7 879 -7 q 871 -7 874 -7 q 865 -7 868 -7 l 571 867 q 531 938 553 921 q 489 956 508 954 l 489 983 q 551 981 514 982 q 624 979 589 979 q 725 981 678 979 q 801 983 772 982 l 801 956 q 735 947 760 954 q 708 917 711 940 q 721 839 704 893 l 928 199 l 908 182 l 1092 758 q 1115 877 1117 835 q 1083 937 1113 919 q 996 956 1054 954 l 996 983 q 1078 981 1036 982 q 1156 979 1119 979 q 1215 981 1192 979 q 1260 983 1239 982 m 289 983 l 289 956 q 237 942 253 953 q 222 906 221 931 q 236 839 222 882 l 451 182 l 417 147 l 611 768 l 632 735 l 403 -7 q 397 -7 400 -7 q 392 -7 394 -7 q 386 -7 389 -7 q 381 -7 383 -7 l 86 867 q 40 938 68 921 q -10 956 13 954 l -10 983 q 59 981 18 982 q 139 979 100 979 q 224 981 185 979 q 289 983 264 982 m 792 1233 q 848 1209 824 1233 q 872 1153 872 1185 q 848 1096 872 1119 q 792 1072 824 1072 q 735 1096 758 1072 q 711 1153 711 1119 q 735 1209 711 1185 q 792 1233 758 1233 m 497 1233 q 553 1209 529 1233 q 578 1153 578 1185 q 553 1096 578 1119 q 497 1072 529 1072 q 440 1096 464 1072 q 417 1153 417 1119 q 440 1209 417 1185 q 497 1233 464 1233 z "},"Ẁ":{"ha":1257,"x_min":-10,"x_max":1260,"o":"m 1260 983 l 1260 956 q 1201 924 1233 950 q 1150 835 1169 899 l 888 -7 q 882 -7 885 -7 q 876 -7 879 -7 q 871 -7 874 -7 q 865 -7 868 -7 l 571 867 q 531 938 553 921 q 489 956 508 954 l 489 983 q 551 981 514 982 q 624 979 589 979 q 725 981 678 979 q 801 983 772 982 l 801 956 q 735 947 760 954 q 708 917 711 940 q 721 839 704 893 l 928 199 l 908 182 l 1092 758 q 1115 877 1117 835 q 1083 937 1113 919 q 996 956 1054 954 l 996 983 q 1078 981 1036 982 q 1156 979 1119 979 q 1215 981 1192 979 q 1260 983 1239 982 m 289 983 l 289 956 q 237 942 253 953 q 222 906 221 931 q 236 839 222 882 l 451 182 l 417 147 l 611 768 l 632 735 l 403 -7 q 397 -7 400 -7 q 392 -7 394 -7 q 386 -7 389 -7 q 381 -7 383 -7 l 86 867 q 40 938 68 921 q -10 956 13 954 l -10 983 q 59 981 18 982 q 139 979 100 979 q 224 981 185 979 q 289 983 264 982 m 504 1286 q 563 1240 533 1268 q 633 1176 592 1213 q 738 1090 674 1139 l 728 1072 q 605 1128 657 1108 q 516 1163 553 1149 q 449 1196 479 1178 q 414 1237 419 1215 q 419 1276 408 1258 q 453 1299 431 1294 q 504 1286 476 1304 z "},"X":{"ha":881,"x_min":22,"x_max":871,"o":"m 339 983 l 339 954 q 254 940 269 954 q 258 893 239 925 l 778 99 q 822 45 804 58 q 871 29 840 32 l 871 0 q 820 3 853 1 q 751 6 788 6 q 640 3 696 6 q 556 0 583 1 l 556 29 q 644 38 625 29 q 644 76 664 46 l 117 885 q 73 939 90 925 q 24 954 56 953 l 24 983 q 75 980 42 982 q 143 978 108 978 q 250 980 200 978 q 339 983 300 982 m 415 507 q 422 489 415 507 q 428 471 428 471 l 257 217 q 205 101 207 142 q 236 45 203 61 q 328 28 269 29 l 328 0 q 267 2 301 1 q 199 3 232 3 q 140 4 165 4 q 22 0 64 4 l 22 28 q 103 67 65 35 q 179 156 140 99 l 415 507 m 842 983 l 842 956 q 761 917 799 950 q 685 828 724 885 l 461 494 q 457 513 461 494 q 453 531 453 531 l 611 767 q 669 917 686 879 q 564 956 651 954 l 564 983 q 646 981 604 982 q 724 979 688 979 q 842 983 800 979 z "},"Y":{"ha":821,"x_min":-4,"x_max":817,"o":"m 817 983 l 817 956 q 764 922 790 950 q 706 832 738 893 l 425 276 l 401 276 l 76 876 q 30 941 49 928 q -4 954 11 954 l -4 983 q 53 981 24 982 q 118 979 83 979 q 216 980 164 979 q 313 983 268 981 l 313 954 q 251 946 278 954 q 217 915 225 938 q 229 853 208 893 l 464 403 l 453 394 l 638 763 q 676 881 676 839 q 643 938 675 922 q 553 956 611 954 l 553 983 q 635 981 593 982 q 713 979 676 979 q 772 981 749 979 q 817 983 796 982 m 488 422 l 488 147 q 496 72 488 97 q 528 39 504 47 q 600 28 553 31 l 600 0 q 520 3 568 3 q 424 4 472 4 q 322 3 369 4 q 246 0 275 3 l 246 28 q 317 39 293 31 q 350 72 342 47 q 358 147 358 97 l 358 432 l 433 346 l 488 422 z "},"Ý":{"ha":821,"x_min":-4,"x_max":817,"o":"m 817 983 l 817 956 q 764 922 790 950 q 706 832 738 893 l 425 276 l 401 276 l 76 876 q 30 941 49 928 q -4 954 11 954 l -4 983 q 53 981 24 982 q 118 979 83 979 q 216 980 164 979 q 313 983 268 981 l 313 954 q 251 946 278 954 q 217 915 225 938 q 229 853 208 893 l 464 403 l 453 394 l 638 763 q 676 881 676 839 q 643 938 675 922 q 553 956 611 954 l 553 983 q 635 981 593 982 q 713 979 676 979 q 772 981 749 979 q 817 983 796 982 m 488 422 l 488 147 q 496 72 488 97 q 528 39 504 47 q 600 28 553 31 l 600 0 q 520 3 568 3 q 424 4 472 4 q 322 3 369 4 q 246 0 275 3 l 246 28 q 317 39 293 31 q 350 72 342 47 q 358 147 358 97 l 358 432 l 433 346 l 488 422 m 571 1286 q 622 1299 599 1304 q 656 1276 644 1294 q 661 1237 667 1258 q 626 1196 656 1215 q 559 1163 597 1178 q 470 1128 521 1149 q 347 1072 419 1108 l 338 1090 q 442 1176 401 1139 q 513 1240 483 1213 q 571 1286 542 1268 z "},"Ŷ":{"ha":821,"x_min":-4,"x_max":817,"o":"m 817 983 l 817 956 q 764 922 790 950 q 706 832 738 893 l 425 276 l 401 276 l 76 876 q 30 941 49 928 q -4 954 11 954 l -4 983 q 53 981 24 982 q 118 979 83 979 q 216 980 164 979 q 313 983 268 981 l 313 954 q 251 946 278 954 q 217 915 225 938 q 229 853 208 893 l 464 403 l 453 394 l 638 763 q 676 881 676 839 q 643 938 675 922 q 553 956 611 954 l 553 983 q 635 981 593 982 q 713 979 676 979 q 772 981 749 979 q 817 983 796 982 m 488 422 l 488 147 q 496 72 488 97 q 528 39 504 47 q 600 28 553 31 l 600 0 q 520 3 568 3 q 424 4 472 4 q 322 3 369 4 q 246 0 275 3 l 246 28 q 317 39 293 31 q 350 72 342 47 q 358 147 358 97 l 358 432 l 433 346 l 488 422 m 435 1272 q 535 1170 467 1219 q 694 1089 604 1121 l 688 1069 q 524 1114 604 1088 q 394 1167 443 1140 q 290 1114 356 1140 q 157 1069 224 1088 l 150 1089 q 309 1170 240 1121 q 410 1272 378 1219 l 435 1272 z "},"Ÿ":{"ha":821,"x_min":-4,"x_max":817,"o":"m 817 983 l 817 956 q 764 922 790 950 q 706 832 738 893 l 425 276 l 401 276 l 76 876 q 30 941 49 928 q -4 954 11 954 l -4 983 q 53 981 24 982 q 118 979 83 979 q 216 980 164 979 q 313 983 268 981 l 313 954 q 251 946 278 954 q 217 915 225 938 q 229 853 208 893 l 464 403 l 453 394 l 638 763 q 676 881 676 839 q 643 938 675 922 q 553 956 611 954 l 553 983 q 635 981 593 982 q 713 979 676 979 q 772 981 749 979 q 817 983 796 982 m 488 422 l 488 147 q 496 72 488 97 q 528 39 504 47 q 600 28 553 31 l 600 0 q 520 3 568 3 q 424 4 472 4 q 322 3 369 4 q 246 0 275 3 l 246 28 q 317 39 293 31 q 350 72 342 47 q 358 147 358 97 l 358 432 l 433 346 l 488 422 m 569 1233 q 626 1209 601 1233 q 650 1153 650 1185 q 626 1096 650 1119 q 569 1072 601 1072 q 513 1096 536 1072 q 489 1153 489 1119 q 513 1209 489 1185 q 569 1233 536 1233 m 275 1233 q 331 1209 307 1233 q 356 1153 356 1185 q 331 1096 356 1119 q 275 1072 307 1072 q 218 1096 242 1072 q 194 1153 194 1119 q 218 1209 194 1185 q 275 1233 242 1233 z "},"Ỵ":{"ha":821,"x_min":-4,"x_max":817,"o":"m 817 983 l 817 956 q 764 922 790 950 q 706 832 738 893 l 425 276 l 401 276 l 76 876 q 30 941 49 928 q -4 954 11 954 l -4 983 q 53 981 24 982 q 118 979 83 979 q 216 980 164 979 q 313 983 268 981 l 313 954 q 251 946 278 954 q 217 915 225 938 q 229 853 208 893 l 464 403 l 453 394 l 638 763 q 676 881 676 839 q 643 938 675 922 q 553 956 611 954 l 553 983 q 635 981 593 982 q 713 979 676 979 q 772 981 749 979 q 817 983 796 982 m 488 422 l 488 147 q 496 72 488 97 q 528 39 504 47 q 600 28 553 31 l 600 0 q 520 3 568 3 q 424 4 472 4 q 322 3 369 4 q 246 0 275 3 l 246 28 q 317 39 293 31 q 350 72 342 47 q 358 147 358 97 l 358 432 l 433 346 l 488 422 m 411 -251 q 354 -230 378 -251 q 331 -174 331 -208 q 352 -119 331 -142 q 411 -96 374 -96 q 470 -119 449 -96 q 492 -175 492 -143 q 467 -231 492 -210 q 411 -251 443 -251 z "},"Ỳ":{"ha":821,"x_min":-4,"x_max":817,"o":"m 817 983 l 817 956 q 764 922 790 950 q 706 832 738 893 l 425 276 l 401 276 l 76 876 q 30 941 49 928 q -4 954 11 954 l -4 983 q 53 981 24 982 q 118 979 83 979 q 216 980 164 979 q 313 983 268 981 l 313 954 q 251 946 278 954 q 217 915 225 938 q 229 853 208 893 l 464 403 l 453 394 l 638 763 q 676 881 676 839 q 643 938 675 922 q 553 956 611 954 l 553 983 q 635 981 593 982 q 713 979 676 979 q 772 981 749 979 q 817 983 796 982 m 488 422 l 488 147 q 496 72 488 97 q 528 39 504 47 q 600 28 553 31 l 600 0 q 520 3 568 3 q 424 4 472 4 q 322 3 369 4 q 246 0 275 3 l 246 28 q 317 39 293 31 q 350 72 342 47 q 358 147 358 97 l 358 432 l 433 346 l 488 422 m 282 1286 q 340 1240 311 1268 q 410 1176 369 1213 q 515 1090 451 1139 l 506 1072 q 383 1128 435 1108 q 294 1163 331 1149 q 226 1196 257 1178 q 192 1237 197 1215 q 197 1276 186 1258 q 231 1299 208 1294 q 282 1286 254 1304 z "},"Ỷ":{"ha":821,"x_min":-4,"x_max":817,"o":"m 817 983 l 817 956 q 764 922 790 950 q 706 832 738 893 l 425 276 l 401 276 l 76 876 q 30 941 49 928 q -4 954 11 954 l -4 983 q 53 981 24 982 q 118 979 83 979 q 216 980 164 979 q 313 983 268 981 l 313 954 q 251 946 278 954 q 217 915 225 938 q 229 853 208 893 l 464 403 l 453 394 l 638 763 q 676 881 676 839 q 643 938 675 922 q 553 956 611 954 l 553 983 q 635 981 593 982 q 713 979 676 979 q 772 981 749 979 q 817 983 796 982 m 488 422 l 488 147 q 496 72 488 97 q 528 39 504 47 q 600 28 553 31 l 600 0 q 520 3 568 3 q 424 4 472 4 q 322 3 369 4 q 246 0 275 3 l 246 28 q 317 39 293 31 q 350 72 342 47 q 358 147 358 97 l 358 432 l 433 346 l 488 422 m 408 1064 l 408 1140 q 478 1186 457 1160 q 500 1244 500 1213 q 472 1305 500 1285 q 403 1325 443 1325 q 367 1321 386 1325 q 336 1303 347 1317 q 381 1246 381 1293 q 363 1201 381 1217 q 318 1185 344 1185 q 275 1201 292 1185 q 258 1243 258 1217 q 274 1290 258 1269 q 313 1325 290 1311 q 359 1344 332 1336 q 429 1353 386 1353 q 505 1343 467 1353 q 569 1312 543 1333 q 596 1253 596 1290 q 553 1176 596 1208 q 436 1128 510 1143 l 436 1064 l 408 1064 z "},"Ỹ":{"ha":821,"x_min":-4,"x_max":817,"o":"m 817 983 l 817 956 q 764 922 790 950 q 706 832 738 893 l 425 276 l 401 276 l 76 876 q 30 941 49 928 q -4 954 11 954 l -4 983 q 53 981 24 982 q 118 979 83 979 q 216 980 164 979 q 313 983 268 981 l 313 954 q 251 946 278 954 q 217 915 225 938 q 229 853 208 893 l 464 403 l 453 394 l 638 763 q 676 881 676 839 q 643 938 675 922 q 553 956 611 954 l 553 983 q 635 981 593 982 q 713 979 676 979 q 772 981 749 979 q 817 983 796 982 m 488 422 l 488 147 q 496 72 488 97 q 528 39 504 47 q 600 28 553 31 l 600 0 q 520 3 568 3 q 424 4 472 4 q 322 3 369 4 q 246 0 275 3 l 246 28 q 317 39 293 31 q 350 72 342 47 q 358 147 358 97 l 358 432 l 433 346 l 488 422 m 310 1253 q 382 1237 349 1253 q 447 1199 415 1221 q 511 1162 479 1178 q 579 1146 543 1146 q 630 1163 607 1146 q 665 1224 653 1179 l 686 1219 q 635 1112 681 1151 q 532 1072 590 1072 q 460 1088 493 1072 q 394 1126 426 1104 q 331 1163 363 1147 q 263 1179 299 1179 q 211 1163 233 1179 q 176 1101 189 1146 l 156 1106 q 207 1214 163 1175 q 310 1253 251 1253 z "},"Z":{"ha":825,"x_min":58,"x_max":764,"o":"m 764 983 l 764 956 l 210 32 l 482 32 q 588 46 547 32 q 653 90 629 60 q 690 169 678 119 q 710 292 703 219 l 742 292 q 738 178 738 249 q 740 102 738 151 q 747 0 742 53 q 574 3 671 3 q 401 4 478 4 q 228 3 319 4 q 58 0 138 3 l 58 28 l 617 951 l 346 951 q 214 926 260 951 q 148 845 168 901 q 118 692 128 789 l 86 692 q 90 743 89 714 q 90 806 90 772 q 88 881 90 832 q 81 983 86 931 q 254 980 158 981 q 426 979 350 979 q 597 980 506 979 q 764 983 688 981 z "},"Ź":{"ha":825,"x_min":58,"x_max":764,"o":"m 764 983 l 764 956 l 210 32 l 482 32 q 588 46 547 32 q 653 90 629 60 q 690 169 678 119 q 710 292 703 219 l 742 292 q 738 178 738 249 q 740 102 738 151 q 747 0 742 53 q 574 3 671 3 q 401 4 478 4 q 228 3 319 4 q 58 0 138 3 l 58 28 l 617 951 l 346 951 q 214 926 260 951 q 148 845 168 901 q 118 692 128 789 l 86 692 q 90 743 89 714 q 90 806 90 772 q 88 881 90 832 q 81 983 86 931 q 254 980 158 981 q 426 979 350 979 q 597 980 506 979 q 764 983 688 981 m 558 1286 q 609 1299 586 1304 q 643 1276 632 1294 q 649 1237 654 1258 q 614 1196 643 1215 q 547 1163 585 1178 q 458 1128 508 1149 q 335 1072 407 1108 l 325 1090 q 430 1176 389 1139 q 500 1240 471 1213 q 558 1286 529 1268 z "},"Ž":{"ha":825,"x_min":58,"x_max":764,"o":"m 764 983 l 764 956 l 210 32 l 482 32 q 588 46 547 32 q 653 90 629 60 q 690 169 678 119 q 710 292 703 219 l 742 292 q 738 178 738 249 q 740 102 738 151 q 747 0 742 53 q 574 3 671 3 q 401 4 478 4 q 228 3 319 4 q 58 0 138 3 l 58 28 l 617 951 l 346 951 q 214 926 260 951 q 148 845 168 901 q 118 692 128 789 l 86 692 q 90 743 89 714 q 90 806 90 772 q 88 881 90 832 q 81 983 86 931 q 254 980 158 981 q 426 979 350 979 q 597 980 506 979 q 764 983 688 981 m 671 1286 l 678 1267 q 519 1186 588 1236 q 418 1083 450 1136 l 393 1083 q 292 1186 361 1136 q 133 1267 224 1236 l 140 1286 q 305 1242 224 1268 q 433 1189 386 1215 q 539 1242 474 1215 q 671 1286 604 1268 z "},"Ż":{"ha":825,"x_min":58,"x_max":764,"o":"m 764 983 l 764 956 l 210 32 l 482 32 q 588 46 547 32 q 653 90 629 60 q 690 169 678 119 q 710 292 703 219 l 742 292 q 738 178 738 249 q 740 102 738 151 q 747 0 742 53 q 574 3 671 3 q 401 4 478 4 q 228 3 319 4 q 58 0 138 3 l 58 28 l 617 951 l 346 951 q 214 926 260 951 q 148 845 168 901 q 118 692 128 789 l 86 692 q 90 743 89 714 q 90 806 90 772 q 88 881 90 832 q 81 983 86 931 q 254 980 158 981 q 426 979 350 979 q 597 980 506 979 q 764 983 688 981 m 410 1332 q 472 1306 446 1332 q 499 1243 499 1279 q 472 1181 499 1207 q 410 1154 446 1154 q 347 1181 374 1154 q 321 1243 321 1207 q 347 1306 321 1279 q 410 1332 374 1332 z "},"a":{"ha":692,"x_min":54,"x_max":690,"o":"m 226 -10 q 95 35 136 -10 q 54 156 54 81 q 83 252 54 214 q 156 315 111 290 q 249 356 200 339 q 343 390 299 374 q 416 428 388 407 q 444 481 444 449 l 444 567 q 427 656 444 625 q 381 697 410 686 q 315 707 351 707 q 241 697 281 707 q 178 657 201 688 q 224 629 204 651 q 243 572 243 607 q 221 517 243 538 q 164 497 199 497 q 105 523 124 497 q 86 581 86 549 q 104 639 86 617 q 150 681 122 661 q 233 719 182 703 q 347 735 283 735 q 444 722 404 735 q 511 683 485 708 q 558 602 547 650 q 569 488 569 554 l 569 101 q 579 52 569 68 q 613 36 589 36 q 647 44 632 36 q 675 65 661 53 l 690 42 q 635 5 661 19 q 564 -10 608 -10 q 468 28 492 -10 q 444 114 444 65 q 344 15 400 40 q 226 -10 288 -10 m 288 46 q 369 70 329 46 q 444 151 410 94 l 444 424 q 380 375 424 393 q 290 335 336 357 q 210 277 243 314 q 176 172 176 240 q 208 77 176 108 q 288 46 240 46 z "},"á":{"ha":692,"x_min":54,"x_max":690,"o":"m 226 -10 q 95 35 136 -10 q 54 156 54 81 q 83 252 54 214 q 156 315 111 290 q 249 356 200 339 q 343 390 299 374 q 416 428 388 407 q 444 481 444 449 l 444 567 q 427 656 444 625 q 381 697 410 686 q 315 707 351 707 q 241 697 281 707 q 178 657 201 688 q 224 629 204 651 q 243 572 243 607 q 221 517 243 538 q 164 497 199 497 q 105 523 124 497 q 86 581 86 549 q 104 639 86 617 q 150 681 122 661 q 233 719 182 703 q 347 735 283 735 q 444 722 404 735 q 511 683 485 708 q 558 602 547 650 q 569 488 569 554 l 569 101 q 579 52 569 68 q 613 36 589 36 q 647 44 632 36 q 675 65 661 53 l 690 42 q 635 5 661 19 q 564 -10 608 -10 q 468 28 492 -10 q 444 114 444 65 q 344 15 400 40 q 226 -10 288 -10 m 288 46 q 369 70 329 46 q 444 151 410 94 l 444 424 q 380 375 424 393 q 290 335 336 357 q 210 277 243 314 q 176 172 176 240 q 208 77 176 108 q 288 46 240 46 m 490 1129 q 509 1093 507 1115 q 490 1043 511 1071 q 439 990 469 1017 q 367 927 408 964 q 271 832 326 890 l 256 844 q 324 961 299 913 q 368 1046 350 1010 q 407 1108 386 1082 q 451 1139 428 1136 q 490 1129 474 1142 z "},"ă":{"ha":692,"x_min":54,"x_max":690,"o":"m 226 -10 q 95 35 136 -10 q 54 156 54 81 q 83 252 54 214 q 156 315 111 290 q 249 356 200 339 q 343 390 299 374 q 416 428 388 407 q 444 481 444 449 l 444 567 q 427 656 444 625 q 381 697 410 686 q 315 707 351 707 q 241 697 281 707 q 178 657 201 688 q 224 629 204 651 q 243 572 243 607 q 221 517 243 538 q 164 497 199 497 q 105 523 124 497 q 86 581 86 549 q 104 639 86 617 q 150 681 122 661 q 233 719 182 703 q 347 735 283 735 q 444 722 404 735 q 511 683 485 708 q 558 602 547 650 q 569 488 569 554 l 569 101 q 579 52 569 68 q 613 36 589 36 q 647 44 632 36 q 675 65 661 53 l 690 42 q 635 5 661 19 q 564 -10 608 -10 q 468 28 492 -10 q 444 114 444 65 q 344 15 400 40 q 226 -10 288 -10 m 288 46 q 369 70 329 46 q 444 151 410 94 l 444 424 q 380 375 424 393 q 290 335 336 357 q 210 277 243 314 q 176 172 176 240 q 208 77 176 108 q 288 46 240 46 m 565 1094 l 589 1082 q 535 989 569 1036 q 453 910 501 942 q 340 879 404 879 q 228 910 276 879 q 145 989 179 942 q 92 1082 111 1036 l 115 1094 q 197 1004 143 1047 q 340 961 251 961 q 484 1004 431 961 q 565 1094 538 1047 z "},"ắ":{"ha":692,"x_min":54,"x_max":690,"o":"m 226 -10 q 95 35 136 -10 q 54 156 54 81 q 83 252 54 214 q 156 315 111 290 q 249 356 200 339 q 343 390 299 374 q 416 428 388 407 q 444 481 444 449 l 444 567 q 427 656 444 625 q 381 697 410 686 q 315 707 351 707 q 241 697 281 707 q 178 657 201 688 q 224 629 204 651 q 243 572 243 607 q 221 517 243 538 q 164 497 199 497 q 105 523 124 497 q 86 581 86 549 q 104 639 86 617 q 150 681 122 661 q 233 719 182 703 q 347 735 283 735 q 444 722 404 735 q 511 683 485 708 q 558 602 547 650 q 569 488 569 554 l 569 101 q 579 52 569 68 q 613 36 589 36 q 647 44 632 36 q 675 65 661 53 l 690 42 q 635 5 661 19 q 564 -10 608 -10 q 468 28 492 -10 q 444 114 444 65 q 344 15 400 40 q 226 -10 288 -10 m 288 46 q 369 70 329 46 q 444 151 410 94 l 444 424 q 380 375 424 393 q 290 335 336 357 q 210 277 243 314 q 176 172 176 240 q 208 77 176 108 q 288 46 240 46 m 565 1094 l 589 1082 q 535 989 569 1036 q 453 910 501 942 q 340 879 404 879 q 228 910 276 879 q 145 989 179 942 q 92 1082 111 1036 l 115 1094 q 197 1004 143 1047 q 340 961 251 961 q 484 1004 431 961 q 565 1094 538 1047 m 489 1399 q 508 1363 506 1385 q 489 1313 510 1340 q 438 1260 468 1286 q 366 1197 407 1233 q 269 1101 325 1160 l 254 1114 q 323 1231 297 1182 q 367 1315 349 1279 q 406 1378 385 1351 q 449 1408 426 1406 q 489 1399 472 1411 z "},"ặ":{"ha":692,"x_min":54,"x_max":690,"o":"m 226 -10 q 95 35 136 -10 q 54 156 54 81 q 83 252 54 214 q 156 315 111 290 q 249 356 200 339 q 343 390 299 374 q 416 428 388 407 q 444 481 444 449 l 444 567 q 427 656 444 625 q 381 697 410 686 q 315 707 351 707 q 241 697 281 707 q 178 657 201 688 q 224 629 204 651 q 243 572 243 607 q 221 517 243 538 q 164 497 199 497 q 105 523 124 497 q 86 581 86 549 q 104 639 86 617 q 150 681 122 661 q 233 719 182 703 q 347 735 283 735 q 444 722 404 735 q 511 683 485 708 q 558 602 547 650 q 569 488 569 554 l 569 101 q 579 52 569 68 q 613 36 589 36 q 647 44 632 36 q 675 65 661 53 l 690 42 q 635 5 661 19 q 564 -10 608 -10 q 468 28 492 -10 q 444 114 444 65 q 344 15 400 40 q 226 -10 288 -10 m 288 46 q 369 70 329 46 q 444 151 410 94 l 444 424 q 380 375 424 393 q 290 335 336 357 q 210 277 243 314 q 176 172 176 240 q 208 77 176 108 q 288 46 240 46 m 565 1094 l 589 1082 q 535 989 569 1036 q 453 910 501 942 q 340 879 404 879 q 228 910 276 879 q 145 989 179 942 q 92 1082 111 1036 l 115 1094 q 197 1004 143 1047 q 340 961 251 961 q 484 1004 431 961 q 565 1094 538 1047 m 346 -251 q 289 -230 313 -251 q 265 -174 265 -208 q 287 -119 265 -142 q 346 -96 308 -96 q 405 -119 383 -96 q 426 -175 426 -143 q 402 -231 426 -210 q 346 -251 378 -251 z "},"ằ":{"ha":692,"x_min":54,"x_max":690,"o":"m 226 -10 q 95 35 136 -10 q 54 156 54 81 q 83 252 54 214 q 156 315 111 290 q 249 356 200 339 q 343 390 299 374 q 416 428 388 407 q 444 481 444 449 l 444 567 q 427 656 444 625 q 381 697 410 686 q 315 707 351 707 q 241 697 281 707 q 178 657 201 688 q 224 629 204 651 q 243 572 243 607 q 221 517 243 538 q 164 497 199 497 q 105 523 124 497 q 86 581 86 549 q 104 639 86 617 q 150 681 122 661 q 233 719 182 703 q 347 735 283 735 q 444 722 404 735 q 511 683 485 708 q 558 602 547 650 q 569 488 569 554 l 569 101 q 579 52 569 68 q 613 36 589 36 q 647 44 632 36 q 675 65 661 53 l 690 42 q 635 5 661 19 q 564 -10 608 -10 q 468 28 492 -10 q 444 114 444 65 q 344 15 400 40 q 226 -10 288 -10 m 288 46 q 369 70 329 46 q 444 151 410 94 l 444 424 q 380 375 424 393 q 290 335 336 357 q 210 277 243 314 q 176 172 176 240 q 208 77 176 108 q 288 46 240 46 m 565 1094 l 589 1082 q 535 989 569 1036 q 453 910 501 942 q 340 879 404 879 q 228 910 276 879 q 145 989 179 942 q 92 1082 111 1036 l 115 1094 q 197 1004 143 1047 q 340 961 251 961 q 484 1004 431 961 q 565 1094 538 1047 m 169 1399 q 209 1408 186 1411 q 253 1378 232 1406 q 292 1315 274 1351 q 335 1231 310 1279 q 404 1114 361 1182 l 389 1101 q 293 1197 335 1160 q 222 1260 251 1233 q 169 1313 192 1286 q 151 1363 149 1340 q 169 1399 153 1385 z "},"ẳ":{"ha":692,"x_min":54,"x_max":690,"o":"m 226 -10 q 95 35 136 -10 q 54 156 54 81 q 83 252 54 214 q 156 315 111 290 q 249 356 200 339 q 343 390 299 374 q 416 428 388 407 q 444 481 444 449 l 444 567 q 427 656 444 625 q 381 697 410 686 q 315 707 351 707 q 241 697 281 707 q 178 657 201 688 q 224 629 204 651 q 243 572 243 607 q 221 517 243 538 q 164 497 199 497 q 105 523 124 497 q 86 581 86 549 q 104 639 86 617 q 150 681 122 661 q 233 719 182 703 q 347 735 283 735 q 444 722 404 735 q 511 683 485 708 q 558 602 547 650 q 569 488 569 554 l 569 101 q 579 52 569 68 q 613 36 589 36 q 647 44 632 36 q 675 65 661 53 l 690 42 q 635 5 661 19 q 564 -10 608 -10 q 468 28 492 -10 q 444 114 444 65 q 344 15 400 40 q 226 -10 288 -10 m 288 46 q 369 70 329 46 q 444 151 410 94 l 444 424 q 380 375 424 393 q 290 335 336 357 q 210 277 243 314 q 176 172 176 240 q 208 77 176 108 q 288 46 240 46 m 565 1094 l 589 1082 q 535 989 569 1036 q 453 910 501 942 q 340 879 404 879 q 228 910 276 879 q 145 989 179 942 q 92 1082 111 1036 l 115 1094 q 197 1004 143 1047 q 340 961 251 961 q 484 1004 431 961 q 565 1094 538 1047 m 326 1092 l 326 1168 q 408 1220 383 1190 q 432 1290 432 1250 q 410 1356 432 1331 q 346 1381 388 1381 q 313 1376 332 1381 q 282 1358 293 1372 q 314 1340 301 1354 q 326 1301 326 1325 q 308 1256 326 1272 q 264 1240 290 1240 q 221 1256 238 1240 q 204 1299 204 1272 q 220 1346 204 1325 q 258 1381 236 1367 q 303 1399 274 1390 q 372 1408 333 1408 q 483 1379 438 1408 q 528 1297 528 1350 q 477 1208 528 1243 q 354 1156 426 1172 l 354 1092 l 326 1092 z "},"ẵ":{"ha":692,"x_min":54,"x_max":690,"o":"m 226 -10 q 95 35 136 -10 q 54 156 54 81 q 83 252 54 214 q 156 315 111 290 q 249 356 200 339 q 343 390 299 374 q 416 428 388 407 q 444 481 444 449 l 444 567 q 427 656 444 625 q 381 697 410 686 q 315 707 351 707 q 241 697 281 707 q 178 657 201 688 q 224 629 204 651 q 243 572 243 607 q 221 517 243 538 q 164 497 199 497 q 105 523 124 497 q 86 581 86 549 q 104 639 86 617 q 150 681 122 661 q 233 719 182 703 q 347 735 283 735 q 444 722 404 735 q 511 683 485 708 q 558 602 547 650 q 569 488 569 554 l 569 101 q 579 52 569 68 q 613 36 589 36 q 647 44 632 36 q 675 65 661 53 l 690 42 q 635 5 661 19 q 564 -10 608 -10 q 468 28 492 -10 q 444 114 444 65 q 344 15 400 40 q 226 -10 288 -10 m 288 46 q 369 70 329 46 q 444 151 410 94 l 444 424 q 380 375 424 393 q 290 335 336 357 q 210 277 243 314 q 176 172 176 240 q 208 77 176 108 q 288 46 240 46 m 565 1094 l 589 1082 q 535 989 569 1036 q 453 910 501 942 q 340 879 404 879 q 228 910 276 879 q 145 989 179 942 q 92 1082 111 1036 l 115 1094 q 197 1004 143 1047 q 340 961 251 961 q 484 1004 431 961 q 565 1094 538 1047 m 238 1336 q 301 1322 275 1336 q 349 1290 328 1308 q 394 1258 371 1272 q 447 1244 417 1244 q 503 1262 476 1244 q 554 1318 531 1279 l 574 1308 q 507 1199 551 1232 q 410 1165 463 1165 q 345 1179 372 1165 q 297 1212 318 1193 q 252 1244 275 1231 q 199 1258 229 1258 q 142 1241 169 1258 q 92 1183 115 1224 l 72 1193 q 140 1303 94 1271 q 238 1336 185 1336 z "},"ǎ":{"ha":692,"x_min":54,"x_max":690,"o":"m 226 -10 q 95 35 136 -10 q 54 156 54 81 q 83 252 54 214 q 156 315 111 290 q 249 356 200 339 q 343 390 299 374 q 416 428 388 407 q 444 481 444 449 l 444 567 q 427 656 444 625 q 381 697 410 686 q 315 707 351 707 q 241 697 281 707 q 178 657 201 688 q 224 629 204 651 q 243 572 243 607 q 221 517 243 538 q 164 497 199 497 q 105 523 124 497 q 86 581 86 549 q 104 639 86 617 q 150 681 122 661 q 233 719 182 703 q 347 735 283 735 q 444 722 404 735 q 511 683 485 708 q 558 602 547 650 q 569 488 569 554 l 569 101 q 579 52 569 68 q 613 36 589 36 q 647 44 632 36 q 675 65 661 53 l 690 42 q 635 5 661 19 q 564 -10 608 -10 q 468 28 492 -10 q 444 114 444 65 q 344 15 400 40 q 226 -10 288 -10 m 288 46 q 369 70 329 46 q 444 151 410 94 l 444 424 q 380 375 424 393 q 290 335 336 357 q 210 277 243 314 q 176 172 176 240 q 208 77 176 108 q 288 46 240 46 m 561 1114 l 572 1094 q 430 990 492 1056 q 340 856 368 925 l 315 856 q 226 990 288 925 q 83 1094 164 1056 l 94 1114 q 241 1050 169 1088 q 356 975 313 1013 q 447 1050 392 1013 q 561 1114 503 1088 z "},"â":{"ha":692,"x_min":54,"x_max":690,"o":"m 226 -10 q 95 35 136 -10 q 54 156 54 81 q 83 252 54 214 q 156 315 111 290 q 249 356 200 339 q 343 390 299 374 q 416 428 388 407 q 444 481 444 449 l 444 567 q 427 656 444 625 q 381 697 410 686 q 315 707 351 707 q 241 697 281 707 q 178 657 201 688 q 224 629 204 651 q 243 572 243 607 q 221 517 243 538 q 164 497 199 497 q 105 523 124 497 q 86 581 86 549 q 104 639 86 617 q 150 681 122 661 q 233 719 182 703 q 347 735 283 735 q 444 722 404 735 q 511 683 485 708 q 558 602 547 650 q 569 488 569 554 l 569 101 q 579 52 569 68 q 613 36 589 36 q 647 44 632 36 q 675 65 661 53 l 690 42 q 635 5 661 19 q 564 -10 608 -10 q 468 28 492 -10 q 444 114 444 65 q 344 15 400 40 q 226 -10 288 -10 m 288 46 q 369 70 329 46 q 444 151 410 94 l 444 424 q 380 375 424 393 q 290 335 336 357 q 210 277 243 314 q 176 172 176 240 q 208 77 176 108 q 288 46 240 46 m 354 1114 q 444 980 382 1044 q 586 875 506 915 l 575 856 q 429 919 500 882 q 314 994 358 957 q 223 919 279 957 q 108 856 167 882 l 97 875 q 240 980 178 915 q 329 1114 301 1044 l 354 1114 z "},"ấ":{"ha":692,"x_min":54,"x_max":690,"o":"m 226 -10 q 95 35 136 -10 q 54 156 54 81 q 83 252 54 214 q 156 315 111 290 q 249 356 200 339 q 343 390 299 374 q 416 428 388 407 q 444 481 444 449 l 444 567 q 427 656 444 625 q 381 697 410 686 q 315 707 351 707 q 241 697 281 707 q 178 657 201 688 q 224 629 204 651 q 243 572 243 607 q 221 517 243 538 q 164 497 199 497 q 105 523 124 497 q 86 581 86 549 q 104 639 86 617 q 150 681 122 661 q 233 719 182 703 q 347 735 283 735 q 444 722 404 735 q 511 683 485 708 q 558 602 547 650 q 569 488 569 554 l 569 101 q 579 52 569 68 q 613 36 589 36 q 647 44 632 36 q 675 65 661 53 l 690 42 q 635 5 661 19 q 564 -10 608 -10 q 468 28 492 -10 q 444 114 444 65 q 344 15 400 40 q 226 -10 288 -10 m 288 46 q 369 70 329 46 q 444 151 410 94 l 444 424 q 380 375 424 393 q 290 335 336 357 q 210 277 243 314 q 176 172 176 240 q 208 77 176 108 q 288 46 240 46 m 354 1114 q 444 980 382 1044 q 586 875 506 915 l 575 856 q 429 919 500 882 q 314 994 358 957 q 223 919 279 957 q 108 856 167 882 l 97 875 q 240 980 178 915 q 329 1114 301 1044 l 354 1114 m 478 1468 q 497 1432 494 1454 q 478 1382 499 1410 q 426 1329 457 1356 q 355 1266 396 1303 q 258 1171 314 1229 l 243 1183 q 312 1300 286 1251 q 356 1385 338 1349 q 394 1447 374 1421 q 438 1478 415 1475 q 478 1468 461 1481 z "},"ậ":{"ha":692,"x_min":54,"x_max":690,"o":"m 226 -10 q 95 35 136 -10 q 54 156 54 81 q 83 252 54 214 q 156 315 111 290 q 249 356 200 339 q 343 390 299 374 q 416 428 388 407 q 444 481 444 449 l 444 567 q 427 656 444 625 q 381 697 410 686 q 315 707 351 707 q 241 697 281 707 q 178 657 201 688 q 224 629 204 651 q 243 572 243 607 q 221 517 243 538 q 164 497 199 497 q 105 523 124 497 q 86 581 86 549 q 104 639 86 617 q 150 681 122 661 q 233 719 182 703 q 347 735 283 735 q 444 722 404 735 q 511 683 485 708 q 558 602 547 650 q 569 488 569 554 l 569 101 q 579 52 569 68 q 613 36 589 36 q 647 44 632 36 q 675 65 661 53 l 690 42 q 635 5 661 19 q 564 -10 608 -10 q 468 28 492 -10 q 444 114 444 65 q 344 15 400 40 q 226 -10 288 -10 m 288 46 q 369 70 329 46 q 444 151 410 94 l 444 424 q 380 375 424 393 q 290 335 336 357 q 210 277 243 314 q 176 172 176 240 q 208 77 176 108 q 288 46 240 46 m 354 1114 q 444 980 382 1044 q 586 875 506 915 l 575 856 q 429 919 500 882 q 314 994 358 957 q 223 919 279 957 q 108 856 167 882 l 97 875 q 240 980 178 915 q 329 1114 301 1044 l 354 1114 m 346 -251 q 289 -230 313 -251 q 265 -174 265 -208 q 287 -119 265 -142 q 346 -96 308 -96 q 405 -119 383 -96 q 426 -175 426 -143 q 402 -231 426 -210 q 346 -251 378 -251 z "},"ầ":{"ha":692,"x_min":54,"x_max":690,"o":"m 226 -10 q 95 35 136 -10 q 54 156 54 81 q 83 252 54 214 q 156 315 111 290 q 249 356 200 339 q 343 390 299 374 q 416 428 388 407 q 444 481 444 449 l 444 567 q 427 656 444 625 q 381 697 410 686 q 315 707 351 707 q 241 697 281 707 q 178 657 201 688 q 224 629 204 651 q 243 572 243 607 q 221 517 243 538 q 164 497 199 497 q 105 523 124 497 q 86 581 86 549 q 104 639 86 617 q 150 681 122 661 q 233 719 182 703 q 347 735 283 735 q 444 722 404 735 q 511 683 485 708 q 558 602 547 650 q 569 488 569 554 l 569 101 q 579 52 569 68 q 613 36 589 36 q 647 44 632 36 q 675 65 661 53 l 690 42 q 635 5 661 19 q 564 -10 608 -10 q 468 28 492 -10 q 444 114 444 65 q 344 15 400 40 q 226 -10 288 -10 m 288 46 q 369 70 329 46 q 444 151 410 94 l 444 424 q 380 375 424 393 q 290 335 336 357 q 210 277 243 314 q 176 172 176 240 q 208 77 176 108 q 288 46 240 46 m 354 1114 q 444 980 382 1044 q 586 875 506 915 l 575 856 q 429 919 500 882 q 314 994 358 957 q 223 919 279 957 q 108 856 167 882 l 97 875 q 240 980 178 915 q 329 1114 301 1044 l 354 1114 m 158 1468 q 198 1478 175 1481 q 242 1447 221 1475 q 281 1385 263 1421 q 324 1300 299 1349 q 393 1183 350 1251 l 378 1171 q 282 1266 324 1229 q 210 1329 240 1303 q 158 1382 181 1356 q 140 1432 138 1410 q 158 1468 142 1454 z "},"ẩ":{"ha":692,"x_min":54,"x_max":763,"o":"m 226 -10 q 95 35 136 -10 q 54 156 54 81 q 83 252 54 214 q 156 315 111 290 q 249 356 200 339 q 343 390 299 374 q 416 428 388 407 q 444 481 444 449 l 444 567 q 427 656 444 625 q 381 697 410 686 q 315 707 351 707 q 241 697 281 707 q 178 657 201 688 q 224 629 204 651 q 243 572 243 607 q 221 517 243 538 q 164 497 199 497 q 105 523 124 497 q 86 581 86 549 q 104 639 86 617 q 150 681 122 661 q 233 719 182 703 q 347 735 283 735 q 444 722 404 735 q 511 683 485 708 q 558 602 547 650 q 569 488 569 554 l 569 101 q 579 52 569 68 q 613 36 589 36 q 647 44 632 36 q 675 65 661 53 l 690 42 q 635 5 661 19 q 564 -10 608 -10 q 468 28 492 -10 q 444 114 444 65 q 344 15 400 40 q 226 -10 288 -10 m 288 46 q 369 70 329 46 q 444 151 410 94 l 444 424 q 380 375 424 393 q 290 335 336 357 q 210 277 243 314 q 176 172 176 240 q 208 77 176 108 q 288 46 240 46 m 354 1114 q 444 980 382 1044 q 586 875 506 915 l 575 856 q 429 919 500 882 q 314 994 358 957 q 223 919 279 957 q 108 856 167 882 l 97 875 q 240 980 178 915 q 329 1114 301 1044 l 354 1114 m 561 1061 l 561 1138 q 642 1190 618 1160 q 667 1260 667 1219 q 644 1325 667 1300 q 581 1350 622 1350 q 547 1346 567 1350 q 517 1328 528 1342 q 549 1309 536 1324 q 561 1271 561 1294 q 543 1226 561 1242 q 499 1210 525 1210 q 456 1226 472 1210 q 439 1268 439 1242 q 455 1315 439 1294 q 493 1350 471 1336 q 538 1369 508 1360 q 607 1378 568 1378 q 717 1349 672 1378 q 763 1267 763 1319 q 712 1177 763 1213 q 589 1125 661 1142 l 589 1061 l 561 1061 z "},"ẫ":{"ha":692,"x_min":54,"x_max":690,"o":"m 226 -10 q 95 35 136 -10 q 54 156 54 81 q 83 252 54 214 q 156 315 111 290 q 249 356 200 339 q 343 390 299 374 q 416 428 388 407 q 444 481 444 449 l 444 567 q 427 656 444 625 q 381 697 410 686 q 315 707 351 707 q 241 697 281 707 q 178 657 201 688 q 224 629 204 651 q 243 572 243 607 q 221 517 243 538 q 164 497 199 497 q 105 523 124 497 q 86 581 86 549 q 104 639 86 617 q 150 681 122 661 q 233 719 182 703 q 347 735 283 735 q 444 722 404 735 q 511 683 485 708 q 558 602 547 650 q 569 488 569 554 l 569 101 q 579 52 569 68 q 613 36 589 36 q 647 44 632 36 q 675 65 661 53 l 690 42 q 635 5 661 19 q 564 -10 608 -10 q 468 28 492 -10 q 444 114 444 65 q 344 15 400 40 q 226 -10 288 -10 m 288 46 q 369 70 329 46 q 444 151 410 94 l 444 424 q 380 375 424 393 q 290 335 336 357 q 210 277 243 314 q 176 172 176 240 q 208 77 176 108 q 288 46 240 46 m 354 1114 q 444 980 382 1044 q 586 875 506 915 l 575 856 q 429 919 500 882 q 314 994 358 957 q 223 919 279 957 q 108 856 167 882 l 97 875 q 240 980 178 915 q 329 1114 301 1044 l 354 1114 m 226 1406 q 290 1392 264 1406 q 338 1360 317 1378 q 383 1328 360 1342 q 436 1314 406 1314 q 492 1331 465 1314 q 543 1388 519 1349 l 563 1378 q 496 1268 540 1301 q 399 1235 451 1235 q 334 1249 361 1235 q 285 1281 307 1263 q 241 1314 264 1300 q 188 1328 218 1328 q 131 1310 158 1328 q 81 1253 104 1293 l 61 1263 q 128 1373 83 1340 q 226 1406 174 1406 z "},"ä":{"ha":692,"x_min":54,"x_max":690,"o":"m 226 -10 q 95 35 136 -10 q 54 156 54 81 q 83 252 54 214 q 156 315 111 290 q 249 356 200 339 q 343 390 299 374 q 416 428 388 407 q 444 481 444 449 l 444 567 q 427 656 444 625 q 381 697 410 686 q 315 707 351 707 q 241 697 281 707 q 178 657 201 688 q 224 629 204 651 q 243 572 243 607 q 221 517 243 538 q 164 497 199 497 q 105 523 124 497 q 86 581 86 549 q 104 639 86 617 q 150 681 122 661 q 233 719 182 703 q 347 735 283 735 q 444 722 404 735 q 511 683 485 708 q 558 602 547 650 q 569 488 569 554 l 569 101 q 579 52 569 68 q 613 36 589 36 q 647 44 632 36 q 675 65 661 53 l 690 42 q 635 5 661 19 q 564 -10 608 -10 q 468 28 492 -10 q 444 114 444 65 q 344 15 400 40 q 226 -10 288 -10 m 288 46 q 369 70 329 46 q 444 151 410 94 l 444 424 q 380 375 424 393 q 290 335 336 357 q 210 277 243 314 q 176 172 176 240 q 208 77 176 108 q 288 46 240 46 m 490 1032 q 547 1008 522 1032 q 571 951 571 983 q 547 894 571 918 q 490 871 522 871 q 433 894 457 871 q 410 951 410 918 q 433 1008 410 983 q 490 1032 457 1032 m 196 1032 q 252 1008 228 1032 q 276 951 276 983 q 252 894 276 918 q 196 871 228 871 q 139 894 163 871 q 115 951 115 918 q 139 1008 115 983 q 196 1032 163 1032 z "},"ạ":{"ha":692,"x_min":54,"x_max":690,"o":"m 226 -10 q 95 35 136 -10 q 54 156 54 81 q 83 252 54 214 q 156 315 111 290 q 249 356 200 339 q 343 390 299 374 q 416 428 388 407 q 444 481 444 449 l 444 567 q 427 656 444 625 q 381 697 410 686 q 315 707 351 707 q 241 697 281 707 q 178 657 201 688 q 224 629 204 651 q 243 572 243 607 q 221 517 243 538 q 164 497 199 497 q 105 523 124 497 q 86 581 86 549 q 104 639 86 617 q 150 681 122 661 q 233 719 182 703 q 347 735 283 735 q 444 722 404 735 q 511 683 485 708 q 558 602 547 650 q 569 488 569 554 l 569 101 q 579 52 569 68 q 613 36 589 36 q 647 44 632 36 q 675 65 661 53 l 690 42 q 635 5 661 19 q 564 -10 608 -10 q 468 28 492 -10 q 444 114 444 65 q 344 15 400 40 q 226 -10 288 -10 m 288 46 q 369 70 329 46 q 444 151 410 94 l 444 424 q 380 375 424 393 q 290 335 336 357 q 210 277 243 314 q 176 172 176 240 q 208 77 176 108 q 288 46 240 46 m 346 -251 q 289 -230 313 -251 q 265 -174 265 -208 q 287 -119 265 -142 q 346 -96 308 -96 q 405 -119 383 -96 q 426 -175 426 -143 q 402 -231 426 -210 q 346 -251 378 -251 z "},"à":{"ha":692,"x_min":54,"x_max":690,"o":"m 226 -10 q 95 35 136 -10 q 54 156 54 81 q 83 252 54 214 q 156 315 111 290 q 249 356 200 339 q 343 390 299 374 q 416 428 388 407 q 444 481 444 449 l 444 567 q 427 656 444 625 q 381 697 410 686 q 315 707 351 707 q 241 697 281 707 q 178 657 201 688 q 224 629 204 651 q 243 572 243 607 q 221 517 243 538 q 164 497 199 497 q 105 523 124 497 q 86 581 86 549 q 104 639 86 617 q 150 681 122 661 q 233 719 182 703 q 347 735 283 735 q 444 722 404 735 q 511 683 485 708 q 558 602 547 650 q 569 488 569 554 l 569 101 q 579 52 569 68 q 613 36 589 36 q 647 44 632 36 q 675 65 661 53 l 690 42 q 635 5 661 19 q 564 -10 608 -10 q 468 28 492 -10 q 444 114 444 65 q 344 15 400 40 q 226 -10 288 -10 m 288 46 q 369 70 329 46 q 444 151 410 94 l 444 424 q 380 375 424 393 q 290 335 336 357 q 210 277 243 314 q 176 172 176 240 q 208 77 176 108 q 288 46 240 46 m 171 1129 q 210 1139 188 1142 q 254 1108 233 1136 q 293 1046 275 1082 q 337 961 311 1010 q 406 844 363 913 l 390 832 q 294 927 336 890 q 223 990 253 964 q 171 1043 193 1017 q 152 1093 150 1071 q 171 1129 154 1115 z "},"ả":{"ha":692,"x_min":54,"x_max":690,"o":"m 226 -10 q 95 35 136 -10 q 54 156 54 81 q 83 252 54 214 q 156 315 111 290 q 249 356 200 339 q 343 390 299 374 q 416 428 388 407 q 444 481 444 449 l 444 567 q 427 656 444 625 q 381 697 410 686 q 315 707 351 707 q 241 697 281 707 q 178 657 201 688 q 224 629 204 651 q 243 572 243 607 q 221 517 243 538 q 164 497 199 497 q 105 523 124 497 q 86 581 86 549 q 104 639 86 617 q 150 681 122 661 q 233 719 182 703 q 347 735 283 735 q 444 722 404 735 q 511 683 485 708 q 558 602 547 650 q 569 488 569 554 l 569 101 q 579 52 569 68 q 613 36 589 36 q 647 44 632 36 q 675 65 661 53 l 690 42 q 635 5 661 19 q 564 -10 608 -10 q 468 28 492 -10 q 444 114 444 65 q 344 15 400 40 q 226 -10 288 -10 m 288 46 q 369 70 329 46 q 444 151 410 94 l 444 424 q 380 375 424 393 q 290 335 336 357 q 210 277 243 314 q 176 172 176 240 q 208 77 176 108 q 288 46 240 46 m 328 822 l 328 899 q 409 951 385 921 q 433 1021 433 981 q 411 1086 433 1061 q 347 1111 389 1111 q 314 1107 333 1111 q 283 1089 294 1103 q 315 1070 303 1085 q 328 1032 328 1056 q 310 987 328 1003 q 265 971 292 971 q 222 987 239 971 q 206 1029 206 1003 q 222 1076 206 1056 q 260 1111 238 1097 q 305 1130 275 1121 q 374 1139 335 1139 q 484 1110 439 1139 q 529 1028 529 1081 q 478 938 529 974 q 356 886 428 903 l 356 822 l 328 822 z "},"ā":{"ha":692,"x_min":54,"x_max":690,"o":"m 226 -10 q 95 35 136 -10 q 54 156 54 81 q 83 252 54 214 q 156 315 111 290 q 249 356 200 339 q 343 390 299 374 q 416 428 388 407 q 444 481 444 449 l 444 567 q 427 656 444 625 q 381 697 410 686 q 315 707 351 707 q 241 697 281 707 q 178 657 201 688 q 224 629 204 651 q 243 572 243 607 q 221 517 243 538 q 164 497 199 497 q 105 523 124 497 q 86 581 86 549 q 104 639 86 617 q 150 681 122 661 q 233 719 182 703 q 347 735 283 735 q 444 722 404 735 q 511 683 485 708 q 558 602 547 650 q 569 488 569 554 l 569 101 q 579 52 569 68 q 613 36 589 36 q 647 44 632 36 q 675 65 661 53 l 690 42 q 635 5 661 19 q 564 -10 608 -10 q 468 28 492 -10 q 444 114 444 65 q 344 15 400 40 q 226 -10 288 -10 m 288 46 q 369 70 329 46 q 444 151 410 94 l 444 424 q 380 375 424 393 q 290 335 336 357 q 210 277 243 314 q 176 172 176 240 q 208 77 176 108 q 288 46 240 46 m 554 989 l 554 954 l 121 954 l 121 989 l 554 989 z "},"ą":{"ha":692,"x_min":54,"x_max":690,"o":"m 226 -10 q 95 35 136 -10 q 54 156 54 81 q 83 252 54 214 q 156 315 111 290 q 249 356 200 339 q 343 390 299 374 q 416 428 388 407 q 444 481 444 449 l 444 567 q 427 656 444 625 q 381 697 410 686 q 315 707 351 707 q 241 697 281 707 q 178 657 201 688 q 224 629 204 651 q 243 572 243 607 q 221 517 243 538 q 164 497 199 497 q 105 523 124 497 q 86 581 86 549 q 104 639 86 617 q 150 681 122 661 q 233 719 182 703 q 347 735 283 735 q 444 722 404 735 q 511 683 485 708 q 558 602 547 650 q 569 488 569 554 l 569 101 q 579 52 569 68 q 613 36 589 36 q 647 44 632 36 q 675 65 661 53 l 690 42 q 635 5 661 19 q 564 -10 608 -10 q 468 28 492 -10 q 444 114 444 65 q 344 15 400 40 q 226 -10 288 -10 m 288 46 q 369 70 329 46 q 444 151 410 94 l 444 424 q 380 375 424 393 q 290 335 336 357 q 210 277 243 314 q 176 172 176 240 q 208 77 176 108 q 288 46 240 46 m 631 4 q 624 0 628 1 q 617 -3 619 -1 q 522 -66 549 -32 q 496 -133 496 -100 q 512 -177 496 -160 q 556 -194 528 -194 q 604 -181 582 -194 q 640 -149 626 -167 l 661 -167 q 590 -238 629 -215 q 504 -261 550 -261 q 424 -236 454 -261 q 394 -171 394 -211 q 444 -72 394 -117 q 586 4 494 -26 l 631 4 z "},"å":{"ha":692,"x_min":54,"x_max":690,"o":"m 226 -10 q 95 35 136 -10 q 54 156 54 81 q 83 252 54 214 q 156 315 111 290 q 249 356 200 339 q 343 390 299 374 q 416 428 388 407 q 444 481 444 449 l 444 567 q 427 656 444 625 q 381 697 410 686 q 315 707 351 707 q 241 697 281 707 q 178 657 201 688 q 224 629 204 651 q 243 572 243 607 q 221 517 243 538 q 164 497 199 497 q 105 523 124 497 q 86 581 86 549 q 104 639 86 617 q 150 681 122 661 q 233 719 182 703 q 347 735 283 735 q 444 722 404 735 q 511 683 485 708 q 558 602 547 650 q 569 488 569 554 l 569 101 q 579 52 569 68 q 613 36 589 36 q 647 44 632 36 q 675 65 661 53 l 690 42 q 635 5 661 19 q 564 -10 608 -10 q 468 28 492 -10 q 444 114 444 65 q 344 15 400 40 q 226 -10 288 -10 m 288 46 q 369 70 329 46 q 444 151 410 94 l 444 424 q 380 375 424 393 q 290 335 336 357 q 210 277 243 314 q 176 172 176 240 q 208 77 176 108 q 288 46 240 46 m 342 1099 q 436 1065 396 1099 q 476 972 476 1031 q 436 878 476 913 q 342 844 396 844 q 249 878 289 844 q 208 972 208 913 q 249 1065 208 1031 q 342 1099 289 1099 m 342 1069 q 278 1044 308 1069 q 247 971 247 1019 q 278 898 247 922 q 342 874 308 874 q 407 898 376 874 q 438 971 438 922 q 407 1044 438 1019 q 342 1069 376 1069 z "}}}
